<svg xmlns="http://www.w3.org/2000/svg" width="15" height="15" viewBox="0 0 15 15">
  <path id="패스_62793" data-name="패스 62793" d="M11.33,14.966a.679.679,0,0,1-.255-.047.714.714,0,0,1-.234-.164L7.3,11.216a.664.664,0,0,1-.2-.507.746.746,0,0,1,.214-.5A.718.718,0,0,1,7.829,10a.688.688,0,0,1,.5.211l2.3,2.32V4.536a.679.679,0,0,1,.2-.5.686.686,0,0,1,.5-.2.673.673,0,0,1,.5.2.686.686,0,0,1,.2.5v7.992l2.32-2.32a.623.623,0,0,1,.49-.2.755.755,0,0,1,.5.223.7.7,0,0,1,.2.5.688.688,0,0,1-.211.5l-3.516,3.516a.653.653,0,0,1-.5.211ZM5.24,18.833a1.349,1.349,0,0,1-.984-.422,1.349,1.349,0,0,1-.422-.984V14.779a.679.679,0,0,1,.2-.5.686.686,0,0,1,.5-.2.673.673,0,0,1,.5.2.686.686,0,0,1,.2.5v2.648H17.427V14.779a.679.679,0,0,1,.2-.5.686.686,0,0,1,.5-.2.673.673,0,0,1,.5.2.686.686,0,0,1,.2.5v2.648a1.442,1.442,0,0,1-1.406,1.406Z" transform="translate(-3.833 -3.833)"/>
</svg>
