<svg xmlns="http://www.w3.org/2000/svg" xmlns:xlink="http://www.w3.org/1999/xlink" width="44.681" height="104.001" viewBox="0 0 44.681 104.001">
  <defs>
    <linearGradient id="linear-gradient" x1="0.263" x2="0.723" y2="1" gradientUnits="objectBoundingBox">
      <stop offset="0" stop-color="#249ad7"/>
      <stop offset="1" stop-color="#052d73"/>
    </linearGradient>
  </defs>
  <g id="그룹_52167" data-name="그룹 52167" transform="translate(1.181 0.5)" style="mix-blend-mode: normal;isolation: isolate">
    <path id="합치기_4" data-name="합치기 4" d="M-2666.968-8550.008a23.467,23.467,0,0,1-6.75-1.439l-.369-.137c-.638-.241-1.192-.476-1.62-.674a6.336,6.336,0,0,0-2.371.115,19.2,19.2,0,0,0-1.922.44s.052-.078.15-.219a3.794,3.794,0,0,1,1.227-.8c1.068-.547,3.021-1.237,3.375-1.544.178-.156.374-.323.578-.5.183-.152.371-.315.582-.465a16.1,16.1,0,0,1,7.458-2.814,16.044,16.044,0,0,1,3.083-.08,20.53,20.53,0,0,1,4.736.764l.66.2.664.234c.408.152.756.3,1.03.42.21.1.382.185.7.347,0,0-.371.417-1.045,1.064-.467.447-1.077,1.008-1.807,1.611a4.939,4.939,0,0,1-.434.334,26.962,26.962,0,0,1-5.453,2.876l-.408.147a1.256,1.256,0,0,1-.352.1c-.176.015-.356.025-.543.03C-2666.177-8550-2666.566-8550.006-2666.968-8550.008Zm-10.637-6.176a9.321,9.321,0,0,0,.263-2.5,12.362,12.362,0,0,1-.445-1.739l-.07-.413a11.457,11.457,0,0,1-.122-2.21,11.237,11.237,0,0,1,.484-2.834,13.454,13.454,0,0,1,.6-1.538,2.606,2.606,0,0,0,.23-.692c.059-.218.122-.433.193-.646a11.157,11.157,0,0,1,1.066-2.308,25.961,25.961,0,0,1,2.432-3.228c.083-.082.163-.165.243-.247a13.178,13.178,0,0,1,1.145-1.019c.421-.408.691-.639.691-.639.191.291.287.447.406.643.146.248.319.563.506.934.089.191.185.394.284.608.085.187.176.4.25.6a11.887,11.887,0,0,1,.767,4.258,10.751,10.751,0,0,1-.391,2.739,12.745,12.745,0,0,1-2.973,4.639,17.42,17.42,0,0,1-1.813,1.644l-.621.527c-.23.185-.449.363-.651.528a16.812,16.812,0,0,0-1.879,3.411,4.3,4.3,0,0,1-.717,1.3l-.2.172Zm15.87-5.536-.367-.13a13.215,13.215,0,0,1-1.546-.692,10.23,10.23,0,0,0-2.767-.039,10.3,10.3,0,0,1-1.373.054l.183-.165a6.614,6.614,0,0,1,1.242-.554,20.275,20.275,0,0,0,3.305-1.316c.18-.16.371-.327.573-.506.182-.151.374-.311.571-.478a21.135,21.135,0,0,1,2.86-2.358,17.357,17.357,0,0,1,1.772-1.062,15.072,15.072,0,0,1,1.85-.969,13.747,13.747,0,0,1,2.693-.832,16.512,16.512,0,0,1,2.424-.3,19.522,19.522,0,0,1,2.08-.037c.221.013.434.026.638.037l.656.063c.406.046.754.1,1.03.154.215.046.391.083.719.163,0,0-.211.474-.623,1.229-.146.261-.3.563-.5.879s-.456.635-.723.981l-.313.4a19.6,19.6,0,0,1-4.048,3.963,14.786,14.786,0,0,1-2.875,1.481,9.781,9.781,0,0,1-3.648.692A11.913,11.913,0,0,1-2661.734-8561.72Zm-3.166-4.79a5.83,5.83,0,0,0,.065-2.189c-.2-.4-.449-.925-.7-1.535-.043-.117-.091-.234-.141-.356-.2-.527-.406-1.107-.584-1.722a13.3,13.3,0,0,1-.586-4.788,10.2,10.2,0,0,1,.313-2.365,10.323,10.323,0,0,1,.68-1.883c.282-.562.469-1.148.734-1.62l.152-.291a12.134,12.134,0,0,1,.767-1.227,8.184,8.184,0,0,1,.556-.715c.248.213.374.328.532.472.2.182.434.419.695.7.13.146.265.3.41.465.122.152.248.311.378.471a11.494,11.494,0,0,1,1.909,3.662,7.73,7.73,0,0,1,.373,2.54,12.056,12.056,0,0,1-1.5,5.047,19.288,19.288,0,0,1-1.153,1.6l-.445.536-.476.543a5.7,5.7,0,0,0-.6,1.354c-.224.646-.562,1.3-.788,1.8a3.606,3.606,0,0,1-.708,1.151l-.2.146S-2665.035-8565.585-2664.9-8566.51Zm8-8.035c.052-.131.343-.317.973-.806a17.815,17.815,0,0,0,2.547-2.037c.111-.191.23-.4.358-.61l.369-.582c.584-.847,1.123-1.885,1.911-2.834a17.9,17.9,0,0,1,2.726-2.678,11.5,11.5,0,0,1,2.176-1.372,15.157,15.157,0,0,1,4.022-1.281l.61-.1.628-.078c.393-.039.714-.065.979-.074.208,0,.378-.006.7,0a6.452,6.452,0,0,1-.271,1.24c-.15.527-.358,1.2-.636,1.952-.054.141-.111.284-.167.435a14.387,14.387,0,0,1-2.582,4.5,12.877,12.877,0,0,1-2.137,2.028,9.02,9.02,0,0,1-1.724,1.01,10.622,10.622,0,0,1-1.792.545,11.392,11.392,0,0,1-3.164.211l-.365-.03a12.562,12.562,0,0,1-1.572-.263,6.515,6.515,0,0,0-2.046.506c-.4.154-.838.268-1.145.362a1.646,1.646,0,0,1-.362.089C-2656.938-8574.413-2656.957-8574.448-2656.9-8574.545Zm1.67-4.243a5.442,5.442,0,0,0-.569-1.957c-.3-.3-.638-.682-1.051-1.166l-.232-.278c-.33-.4-.671-.855-1-1.344a11.989,11.989,0,0,1-1.9-4.172,16.165,16.165,0,0,1-.28-2.187,12.232,12.232,0,0,1,.478-3.512c.024-.1.045-.206.067-.307a11.827,11.827,0,0,1,.385-1.317,7.852,7.852,0,0,1,.328-.793c.287.13.434.2.619.289.23.119.515.271.832.462.161.1.328.207.506.317.152.106.313.215.478.332a11.048,11.048,0,0,1,2.747,2.811,6.653,6.653,0,0,1,.94,2.156,9.531,9.531,0,0,1,.269,2.513,7.836,7.836,0,0,1-.356,2.41,17.027,17.027,0,0,1-.606,1.679c-.091.206-.178.406-.263.6l-.291.6a5.481,5.481,0,0,0-.178,1.359c-.078.608-.172,1.3-.237,1.789a3.207,3.207,0,0,1-.321,1.208.055.055,0,0,1-.038.025C-2655.024-8577.267-2655.1-8578.016-2655.232-8578.788Zm4.951-8.878a2.869,2.869,0,0,1,.66-.94,9.786,9.786,0,0,0,1.776-2.38c.043-.2.089-.413.141-.639.05-.2.1-.4.156-.61a26.486,26.486,0,0,1,1.066-2.944,10.8,10.8,0,0,1,1.735-2.971,10.631,10.631,0,0,1,1.74-1.638,12.516,12.516,0,0,1,3.3-1.9c.182-.065.36-.133.53-.2l.554-.183c.345-.1.652-.182.9-.238.2-.041.352-.076.654-.128,0,0,.046.44.067,1.168.011.506.011,1.151-.032,1.883a2.854,2.854,0,0,1-.039.424,18.139,18.139,0,0,1-1.29,4.536,7.585,7.585,0,0,1-1.431,2.236,9.305,9.305,0,0,1-5.585,2.917l-.332.046a11.5,11.5,0,0,1-1.481.08,6.664,6.664,0,0,0-1.785.859,5.368,5.368,0,0,1-1.251.677C-2650.272-8587.606-2650.289-8587.625-2650.281-8587.666Zm.515-4.3a4.983,4.983,0,0,0-1.04-1.59c-.35-.188-.786-.445-1.262-.762l-.273-.187a15.476,15.476,0,0,1-1.34-1.042,11.9,11.9,0,0,1-2.634-3.138,7.246,7.246,0,0,1-.682-1.888c-.1-.586-.215-1.168-.282-1.727a9.591,9.591,0,0,1-.043-1.561c0-.1.011-.2.017-.294a10.829,10.829,0,0,1,.176-1.285,5.533,5.533,0,0,0,.094-.589.9.9,0,0,1,.686-.1c.243.05.545.122.89.218l.55.165c.172.056.339.117.512.185a9.56,9.56,0,0,1,3.064,1.858,7.386,7.386,0,0,1,1.372,1.7,7.564,7.564,0,0,1,.971,4.21,14.95,14.95,0,0,1-.137,1.833c-.03.206-.059.406-.087.6a4.655,4.655,0,0,1-.161.6,16.13,16.13,0,0,0,.323,2.866,2.9,2.9,0,0,1,.02,1.146c-.01.022-.023.033-.038.033C-2649.187-8590.708-2649.449-8591.332-2649.766-8591.966Zm2.469-9.718a2.412,2.412,0,0,1,.319-.99,13.2,13.2,0,0,0,1.064-2.5c0-.189,0-.389-.02-.6-.013-.188-.024-.382-.035-.582a13.51,13.51,0,0,1,.165-2.855,13.579,13.579,0,0,1,.919-3,8.2,8.2,0,0,1,1.145-1.787,11.655,11.655,0,0,1,2.719-2.321c.161-.1.315-.187.46-.275.172-.094.332-.181.484-.266.306-.158.578-.286.8-.38.176-.074.317-.13.588-.234,0,0,.135.385.3,1.033.117.45.248,1.025.36,1.689l.059.385a10.965,10.965,0,0,1-.056,4.289,9.315,9.315,0,0,1-.792,2.273,7.185,7.185,0,0,1-2.009,2.411,9.647,9.647,0,0,1-2.417,1.278l-.3.1a11.566,11.566,0,0,1-1.372.365,4.987,4.987,0,0,0-1.379,1.138c-.443.446-.835.867-.961.867C-2647.28-8601.64-2647.293-8601.653-2647.3-8601.684Zm.113-3.379a9.314,9.314,0,0,0-.617-.747,4.666,4.666,0,0,0-1.357-1.139c-.371-.078-.841-.19-1.36-.352l-.3-.1a13.8,13.8,0,0,1-1.661-.66,8.377,8.377,0,0,1-2.856-2.087,7.332,7.332,0,0,1-1.092-1.526,8.238,8.238,0,0,1-.858-2.934c-.017-.092-.035-.183-.054-.27a9.993,9.993,0,0,1-.163-1.2c-.035-.476-.024-.773-.024-.773.287-.028.439-.039.623-.052.232-.013.526-.021.86-.018.169.007.347.011.534.018l.519.039a9.443,9.443,0,0,1,3.31.908,5.3,5.3,0,0,1,1.579,1.2,8.244,8.244,0,0,1,1.746,3.366,7.14,7.14,0,0,1,.239,1.861c0,.2,0,.38.007.561,0,.2-.011.395-.015.577a14.114,14.114,0,0,0,1.008,2.463,1.875,1.875,0,0,1,.237,1.008c-.017.066-.04.095-.069.095C-2647.007-8604.822-2647.084-8604.926-2647.184-8605.062Zm-.647-10.022a2.212,2.212,0,0,1,.1-.953,8.992,8.992,0,0,0,.293-2.417c-.057-.167-.115-.346-.178-.53l-.15-.517a13.155,13.155,0,0,1-.441-2.582,7.427,7.427,0,0,1,.1-2.806,7.022,7.022,0,0,1,.728-1.81,10.609,10.609,0,0,1,2.113-2.568l.369-.326c.137-.11.269-.219.4-.319.25-.193.478-.354.665-.478.15-.094.271-.169.508-.311,0,0,.056.078.156.22a4.143,4.143,0,0,1,.386.618c.2.378.437.867.673,1.438.046.106.089.217.135.33a13.41,13.41,0,0,1,.929,3.791,6.807,6.807,0,0,1-.267,2.17,7.216,7.216,0,0,1-3.3,4.106l-.254.149a10.2,10.2,0,0,1-1.183.58,4.952,4.952,0,0,0-1.006,1.279c-.332.5-.62.967-.732.967C-2647.81-8615.052-2647.823-8615.062-2647.832-8615.085Zm-1.394-3.739a3.727,3.727,0,0,0-1.425-.693c-.356.024-.808.037-1.314.024-.1,0-.193-.009-.291-.011a12.393,12.393,0,0,1-1.574-.176,8.705,8.705,0,0,1-3.173-1.182,5.445,5.445,0,0,1-1.24-1.16,6.389,6.389,0,0,1-.762-1.271c-.2-.436-.437-.838-.58-1.237-.031-.078-.061-.158-.091-.241a9.889,9.889,0,0,1-.334-1.105c-.1-.442-.139-.728-.139-.728.259-.091.393-.137.563-.193.211-.067.478-.143.784-.217.154-.032.321-.069.493-.106l.48-.085a8.49,8.49,0,0,1,3.166.067,5.956,5.956,0,0,1,1.731.7,6.37,6.37,0,0,1,2.185,2.745,11.7,11.7,0,0,1,.593,1.562c.05.169.1.337.141.5a2.628,2.628,0,0,1,.1.53,11.409,11.409,0,0,0,1.3,2,2.092,2.092,0,0,1,.43.845c0,.034-.015.05-.045.05A4.8,4.8,0,0,1-2649.226-8618.824Zm-1.618-7.946a1.977,1.977,0,0,1-.172-.845,9.516,9.516,0,0,0-.232-2.209c-.087-.139-.178-.288-.274-.44-.08-.139-.161-.284-.245-.432a10.054,10.054,0,0,1-1.414-4.717,6.013,6.013,0,0,1,.361-1.74,9.369,9.369,0,0,1,1.559-2.664l.308-.36c.117-.126.228-.248.33-.358.208-.22.4-.4.558-.545.128-.111.232-.2.437-.365l.189.163c.113.11.267.28.454.5.261.295.578.687.91,1.146l.189.27a11.669,11.669,0,0,1,1.592,3.188,5.053,5.053,0,0,1,.18,1.964,6.491,6.491,0,0,1-2.356,4.256l-.213.183a9.973,9.973,0,0,1-1.014.736,3.6,3.6,0,0,0-.665,1.313c-.1.287-.189.561-.259.763-.054.147-.095.257-.149.257C-2650.791-8626.711-2650.815-8626.729-2650.844-8626.771Zm-2.2-3.242a3.187,3.187,0,0,0-1.412-.312c-.322.1-.732.226-1.2.332-.087.02-.178.037-.267.059a12.056,12.056,0,0,1-1.5.2,6.969,6.969,0,0,1-3.112-.38,4.608,4.608,0,0,1-1.32-.832,10.837,10.837,0,0,1-1.627-2.1l-.124-.209a9.7,9.7,0,0,1-.486-.985c-.169-.4-.248-.665-.248-.665.221-.141.336-.213.482-.3.185-.106.415-.234.686-.369.135-.065.282-.135.432-.206s.28-.12.426-.181a7.86,7.86,0,0,1,2.906-.612,5.153,5.153,0,0,1,1.694.287,5.349,5.349,0,0,1,2.43,2.071,10.467,10.467,0,0,1,.8,1.355c.072.147.141.295.206.434.07.161.137.317.2.463a18.32,18.32,0,0,0,1.546,1.535c.391.387.506.587.528.687.007.043-.017.061-.067.061A5.573,5.573,0,0,1-2653.045-8630.013Zm-2.786-6.587a2.291,2.291,0,0,1-.306-.74,8.167,8.167,0,0,0-.634-1.933c-.109-.108-.224-.224-.343-.341-.1-.111-.208-.226-.319-.341a9.251,9.251,0,0,1-1.3-1.824,5.883,5.883,0,0,1-.847-2.174,4.917,4.917,0,0,1,.048-1.618,8.2,8.2,0,0,1,1.062-2.667l.237-.378c.094-.134.183-.263.265-.384.171-.234.328-.437.46-.6.106-.121.193-.222.367-.41,0,0,.284.169.719.484a13.677,13.677,0,0,1,1.075.855l.228.2a8.254,8.254,0,0,1,2.039,2.584,5.69,5.69,0,0,1,.482,1.744,5.79,5.79,0,0,1-1.516,4.23c-.059.065-.117.132-.174.2a10.356,10.356,0,0,1-.843.848,3.024,3.024,0,0,0-.4,1.3c-.069.488-.166.977-.274.977A.045.045,0,0,1-2655.832-8636.6Zm-9.549-1.253a4.08,4.08,0,0,1-1.355-.519,5.93,5.93,0,0,1-1.776-1.746,10.818,10.818,0,0,1-.754-1.025,6.442,6.442,0,0,1-.341-.582c.18-.178.276-.267.4-.38.152-.137.345-.306.571-.486l.365-.28.363-.256a7.447,7.447,0,0,1,2.573-1.155,3.631,3.631,0,0,1,1.564-.033,5.313,5.313,0,0,1,2.517,1.473,9.585,9.585,0,0,1,.988,1.143l.263.371a2.632,2.632,0,0,1,.245.4,8.33,8.33,0,0,0,1.633,1.153c.421.28.56.441.6.534.056.159-.452.042-1-.034a2.937,2.937,0,0,0-1.346.006c-.278.17-.636.372-1.047.569l-.239.11a10.094,10.094,0,0,1-1.375.513,7.534,7.534,0,0,1-1.983.295A4.919,4.919,0,0,1-2665.38-8637.853Zm2.728-6.958a2.4,2.4,0,0,0-1.2-.627c-.332.028-.749.052-1.209.05l-.265,0a6.159,6.159,0,0,1-4.026-1.262,4.453,4.453,0,0,1-1.025-1.1,8.079,8.079,0,0,1-1.023-2.582l-.056-.259c-.1-.452-.156-.864-.2-1.194-.056-.478-.069-.782-.069-.782.241-.071.367-.1.523-.147.2-.048.448-.1.736-.149l.46-.063q.221-.022.449-.041a7.859,7.859,0,0,1,2.94.321,5.1,5.1,0,0,1,1.52.777,6.826,6.826,0,0,1,1.978,4.147c.018.152.035.3.05.45l.032.462a2.281,2.281,0,0,0,.4.763c.2.35.413.734.569,1.012a1.548,1.548,0,0,1,.267.745.043.043,0,0,1-.046.041A3.335,3.335,0,0,1-2662.653-8644.811Z" transform="translate(2680 8653)" stroke="rgba(0,0,0,0)" stroke-width="1" fill="url(#linear-gradient)"/>
  </g>
</svg>
