<svg width="48" height="48" viewBox="0 0 48 48" fill="none" xmlns="http://www.w3.org/2000/svg">
<circle cx="24" cy="24" r="24" fill="#FAE100"/>
<path d="M23.974 13C17.361 13 12 17.238 12 22.466C12 25.866 14.271 28.851 17.68 30.52C17.43 31.455 16.773 33.907 16.642 34.431C16.479 35.082 16.88 35.074 17.142 34.899C17.348 34.762 20.423 32.67 21.75 31.768C22.486 31.8769 23.229 31.9314 23.973 31.931C30.586 31.931 35.947 27.694 35.947 22.466C35.947 17.238 30.587 13 23.974 13Z" fill="#371C1D"/>
<path d="M15.6201 20.7231H16.8521C16.8521 20.7231 16.8601 24.1081 16.8521 24.8971C16.8521 25.4731 18.1341 25.4811 18.1321 24.9051L18.1381 20.7671C18.1381 20.7671 18.5511 20.7671 19.3641 20.7671C19.524 20.7671 19.6774 20.7036 19.7905 20.5905C19.9036 20.4774 19.9671 20.324 19.9671 20.1641C19.9671 20.0042 19.9036 19.8508 19.7905 19.7377C19.6774 19.6246 19.524 19.5611 19.3641 19.5611C18.5011 19.5611 15.6161 19.5371 15.6161 19.5371C15.4678 19.5493 15.3294 19.6169 15.2286 19.7264C15.1278 19.8359 15.0718 19.9793 15.0718 20.1281C15.0718 20.277 15.1278 20.4204 15.2286 20.5299C15.3294 20.6393 15.4678 20.7069 15.6161 20.7191" fill="#F8E049"/>
<mask id="mask0_554_108" style="mask-type:luminance" maskUnits="userSpaceOnUse" x="15" y="19" width="5" height="7">
<path d="M15.6201 20.7231H16.8521C16.8521 20.7231 16.8601 24.1081 16.8521 24.8971C16.8521 25.4731 18.1341 25.4811 18.1321 24.9051L18.1381 20.7671C18.1381 20.7671 18.5511 20.7671 19.3641 20.7671C19.524 20.7671 19.6774 20.7036 19.7905 20.5905C19.9036 20.4774 19.9671 20.324 19.9671 20.1641C19.9671 20.0042 19.9036 19.8508 19.7905 19.7377C19.6774 19.6246 19.524 19.5611 19.3641 19.5611C18.5011 19.5611 15.6161 19.5371 15.6161 19.5371C15.4678 19.5493 15.3294 19.6169 15.2286 19.7264C15.1278 19.8359 15.0718 19.9793 15.0718 20.1281C15.0718 20.277 15.1278 20.4204 15.2286 20.5299C15.3294 20.6393 15.4678 20.7069 15.6161 20.7191" fill="white"/>
</mask>
<g mask="url(#mask0_554_108)">
<path d="M20.132 19.541H14.895V25.48H20.132V19.541Z" fill="#F8E049"/>
</g>
<path d="M21.5192 20.9422L22.2052 23.0912H20.7752L21.5192 20.9422ZM20.7512 19.9352C20.4512 20.6032 19.3512 23.7572 18.9892 24.5932C18.7262 25.1932 19.8602 25.6932 20.1232 25.0862L20.3702 24.2242H22.6242C22.6242 24.2242 22.5462 24.2592 22.8462 25.0502C23.0892 25.6892 24.2602 25.2502 24.0172 24.6062C23.6712 23.6922 22.4732 20.4012 22.2552 19.9352C22.1617 19.8105 22.0383 19.7112 21.8964 19.6466C21.7546 19.5819 21.5987 19.5539 21.4432 19.5652C21.3044 19.5526 21.1648 19.5809 21.0418 19.6466C20.9189 19.7124 20.8178 19.8127 20.7512 19.9352Z" fill="#F8E049"/>
<mask id="mask1_554_108" style="mask-type:luminance" maskUnits="userSpaceOnUse" x="18" y="19" width="7" height="7">
<path d="M21.5192 20.9422L22.2052 23.0912H20.7752L21.5192 20.9422ZM20.7512 19.9352C20.4512 20.6032 19.3512 23.7572 18.9892 24.5932C18.7262 25.1932 19.8602 25.6932 20.1232 25.0862L20.3702 24.2242H22.6242C22.6242 24.2242 22.5462 24.2592 22.8462 25.0502C23.0892 25.6892 24.2602 25.2502 24.0172 24.6062C23.6712 23.6922 22.4732 20.4012 22.2552 19.9352C22.1617 19.8105 22.0383 19.7112 21.8964 19.6466C21.7546 19.5819 21.5987 19.5539 21.4432 19.5652C21.3044 19.5526 21.1648 19.5809 21.0418 19.6466C20.9189 19.7124 20.8178 19.8127 20.7512 19.9352Z" fill="white"/>
</mask>
<g mask="url(#mask1_554_108)">
<path d="M24.2593 19.5652H18.7253V25.6912H24.2593V19.5652Z" fill="#F8E049"/>
</g>
<path d="M24.4482 20.132C24.4482 21.204 24.4542 24.659 24.4542 24.659C24.4542 24.659 24.3542 25.346 24.9442 25.346C25.5342 25.346 26.8442 25.339 27.4192 25.339C27.9942 25.339 27.9952 24.107 27.4192 24.107C26.8432 24.107 25.7832 24.101 25.7832 24.101C25.7832 24.101 25.7882 20.901 25.7832 20.13C25.7571 19.9719 25.6757 19.8282 25.5536 19.7246C25.4314 19.6209 25.2764 19.564 25.1162 19.564C24.9559 19.564 24.8009 19.6209 24.6787 19.7246C24.5566 19.8282 24.4752 19.9719 24.4492 20.13" fill="#F8E049"/>
<mask id="mask2_554_108" style="mask-type:luminance" maskUnits="userSpaceOnUse" x="24" y="19" width="4" height="7">
<path d="M24.4482 20.132C24.4482 21.204 24.4542 24.659 24.4542 24.659C24.4542 24.659 24.3542 25.346 24.9442 25.346C25.5342 25.346 26.8442 25.339 27.4192 25.339C27.9942 25.339 27.9952 24.107 27.4192 24.107C26.8432 24.107 25.7832 24.101 25.7832 24.101C25.7832 24.101 25.7882 20.901 25.7832 20.13C25.7571 19.9719 25.6757 19.8282 25.5536 19.7246C25.4314 19.6209 25.2764 19.564 25.1162 19.564C24.9559 19.564 24.8009 19.6209 24.6787 19.7246C24.5566 19.8282 24.4752 19.9719 24.4492 20.13" fill="white"/>
</mask>
<g mask="url(#mask2_554_108)">
<path d="M27.9972 19.5659H24.3552V25.3449H27.9972V19.5659Z" fill="#F8E049"/>
</g>
<path d="M28.1522 19.9622C28.1652 20.4322 28.1372 24.6822 28.1372 24.9972C28.1372 25.4972 29.4032 25.4972 29.4022 24.9972C29.4022 24.4202 29.4022 23.3252 29.4022 23.3252L29.7742 23.0252L31.3992 25.2422C31.7282 25.6752 32.7612 24.8922 32.4332 24.4592L30.7082 22.1872C30.7082 22.1872 31.8792 20.9202 32.3412 20.4622C32.6102 20.1952 31.7772 19.3542 31.5072 19.6232C31.2372 19.8922 29.4072 21.7232 29.4072 21.7232C29.4072 21.7232 29.4232 20.5702 29.4072 19.9322C29.4012 19.6902 29.1072 19.5732 28.8002 19.5732C28.4752 19.5732 28.1422 19.7072 28.1492 19.9662" fill="#F8E049"/>
<mask id="mask3_554_108" style="mask-type:luminance" maskUnits="userSpaceOnUse" x="28" y="19" width="5" height="7">
<path d="M28.1522 19.9622C28.1652 20.4322 28.1372 24.6822 28.1372 24.9972C28.1372 25.4972 29.4032 25.4972 29.4022 24.9972C29.4022 24.4202 29.4022 23.3252 29.4022 23.3252L29.7742 23.0252L31.3992 25.2422C31.7282 25.6752 32.7612 24.8922 32.4332 24.4592L30.7082 22.1872C30.7082 22.1872 31.8792 20.9202 32.3412 20.4622C32.6102 20.1952 31.7772 19.3542 31.5072 19.6232C31.2372 19.8922 29.4072 21.7232 29.4072 21.7232C29.4072 21.7232 29.4232 20.5702 29.4072 19.9322C29.4012 19.6902 29.1072 19.5732 28.8002 19.5732C28.4752 19.5732 28.1422 19.7072 28.1492 19.9662" fill="white"/>
</mask>
<g mask="url(#mask3_554_108)">
<path d="M32.7612 19.3552H28.1372V25.6762H32.7612V19.3552Z" fill="#F8E049"/>
</g>
</svg>
