<svg xmlns="http://www.w3.org/2000/svg" width="19.998" height="19.998" viewBox="0 0 19.998 19.998">
  <g id="그룹_33537" data-name="그룹 33537" transform="translate(-1757.778 -958.056)">
    <g id="그룹_33532" data-name="그룹 33532" transform="translate(1757.778 958.056)">
      <path id="패스_468" data-name="패스 468" d="M1767.777,978.054a10,10,0,1,1,10-10A10.01,10.01,0,0,1,1767.777,978.054Zm0-18.946a8.947,8.947,0,1,0,8.947,8.947A8.957,8.957,0,0,0,1767.777,959.108Z" transform="translate(-1757.778 -958.056)"/>
    </g>
    <g id="그룹_33535" data-name="그룹 33535" transform="translate(1763.04 966.366)">
      <g id="그룹_33533" data-name="그룹 33533" transform="translate(0 0)">
        <path id="패스_469" data-name="패스 469" d="M1782.1,994.2a1.053,1.053,0,1,1-1.052-1.052A1.053,1.053,0,0,1,1782.1,994.2Z" transform="translate(-1779.999 -993.144)"/>
      </g>
      <g id="그룹_33534" data-name="그룹 33534" transform="translate(7.368 0)">
        <path id="패스_470" data-name="패스 470" d="M1813.215,994.2a1.053,1.053,0,1,1-1.052-1.052A1.053,1.053,0,0,1,1813.215,994.2Z" transform="translate(-1811.11 -993.144)"/>
      </g>
    </g>
    <g id="그룹_33536" data-name="그룹 33536" transform="translate(1765.145 969.828)">
      <path id="패스_471" data-name="패스 471" d="M1791.519,1010.311a2.769,2.769,0,0,1-2.6-1.846.527.527,0,0,1,.993-.351,1.7,1.7,0,0,0,3.218,0,.526.526,0,1,1,.991.352A2.771,2.771,0,0,1,1791.519,1010.311Z" transform="translate(-1788.888 -1007.763)"/>
    </g>
  </g>
</svg>
