<svg xmlns="http://www.w3.org/2000/svg" width="26" height="26" viewBox="0 0 26 26">
  <g id="그룹_33481" data-name="그룹 33481" transform="translate(-1.554 -0.965)">
    <path id="패스_404" data-name="패스 404" d="M13.739,5.424l.468-.468a1.985,1.985,0,1,1,2.807,2.807l-.468.468M13.739,5.424A3.163,3.163,0,0,0,14.675,7.3a3.163,3.163,0,0,0,1.872.936M13.739,5.424l-4.3,4.3a6.9,6.9,0,0,0-.562.6,3.315,3.315,0,0,0-.378.611,6.891,6.891,0,0,0-.283.77L7.8,12.956l-.135.4m8.884-5.13-4.3,4.3a6.9,6.9,0,0,1-.6.562,3.315,3.315,0,0,1-.611.378,6.891,6.891,0,0,1-.77.283l-1.251.417-.4.135m0,0-.4.135a.535.535,0,0,1-.677-.677l.135-.4m.947.947" transform="translate(8.959 3.51)" fill="none" stroke="#0042a6" stroke-width="2"/>
    <path id="패스_405" data-name="패스 405" d="M5,8.125h6" transform="translate(2.352 5.852)" fill="none" stroke="#222" stroke-linecap="round" stroke-width="2"/>
    <path id="패스_406" data-name="패스 406" d="M5,5.625H15" transform="translate(2.346 3.249)" fill="none" stroke="#222" stroke-linecap="round" stroke-width="2"/>
    <path id="패스_407" data-name="패스 407" d="M5,10.625H8" transform="translate(2.356 8.444)" fill="none" stroke="#222" stroke-linecap="round" stroke-width="2"/>
    <path id="패스_408" data-name="패스 408" d="M22.736,2.656C21.284,1.25,18.946,1.25,14.271,1.25H11.792c-4.675,0-7.012,0-8.465,1.406S1.875,6.325,1.875,10.85v4.8c0,4.525,0,6.788,1.452,8.194s3.79,1.406,8.465,1.406h2.479c4.675,0,7.012,0,8.465-1.406,1.169-1.132,1.4-2.819,1.442-5.794" transform="translate(0.679 0.715)" fill="none" stroke="#222" stroke-linecap="round" stroke-width="2"/>
  </g>
</svg>
