<svg xmlns="http://www.w3.org/2000/svg" width="20" height="20" viewBox="0 0 20 20">
  <g id="그룹_33549" data-name="그룹 33549" transform="translate(-1224.444 -424.444)">
    <g id="그룹_33544" data-name="그룹 33544" transform="translate(1224.444 424.444)">
      <path id="패스_476" data-name="패스 476" d="M1234.444,444.444a10,10,0,1,1,10-10A10.011,10.011,0,0,1,1234.444,444.444Zm0-18.947a8.947,8.947,0,1,0,8.947,8.947A8.957,8.957,0,0,0,1234.444,425.5Z" transform="translate(-1224.444 -424.444)"/>
    </g>
    <g id="그룹_33547" data-name="그룹 33547" transform="translate(1229.729 432.108)">
      <g id="그룹_33545" data-name="그룹 33545" transform="translate(6.371 0)">
        <path id="패스_477" data-name="패스 477" d="M1274.131,458.617a.531.531,0,0,1-.182-1.03l2-.726a.531.531,0,0,1,.363,1l-2,.726A.525.525,0,0,1,1274.131,458.617Z" transform="translate(-1273.6 -456.829)"/>
      </g>
      <g id="그룹_33546" data-name="그룹 33546" transform="translate(0 0)">
        <path id="패스_478" data-name="패스 478" d="M1249.459,458.618a.526.526,0,0,1-.182-.032l-2-.726a.531.531,0,0,1,.363-1l2,.726a.531.531,0,0,1-.181,1.03Z" transform="translate(-1246.933 -456.83)"/>
      </g>
    </g>
    <g id="그룹_33548" data-name="그룹 33548" transform="translate(1231.789 436.024)">
      <path id="패스_479" data-name="패스 479" d="M1260.333,475.971a.532.532,0,0,1-.5-.353,1.718,1.718,0,0,0-3.247,0,.531.531,0,1,1-1-.356,2.78,2.78,0,0,1,5.248,0,.531.531,0,0,1-.5.709Z" transform="translate(-1255.555 -473.401)"/>
    </g>
  </g>
</svg>
