<svg xmlns="http://www.w3.org/2000/svg" width="20" height="20" viewBox="0 0 20 20">
  <g id="그룹_33543" data-name="그룹 33543" transform="translate(-424.444 -958.056)">
    <g id="그룹_33538" data-name="그룹 33538" transform="translate(424.444 958.056)">
      <path id="패스_472" data-name="패스 472" d="M434.444,978.056a10,10,0,1,1,10-10A10.011,10.011,0,0,1,434.444,978.056Zm0-18.948a8.947,8.947,0,1,0,8.947,8.947A8.958,8.958,0,0,0,434.444,959.109Z" transform="translate(-424.444 -958.056)"/>
    </g>
    <g id="그룹_33539" data-name="그룹 33539" transform="translate(431.792 969.825)">
      <path id="패스_473" data-name="패스 473" d="M460.33,1008.828h-4.244a.53.53,0,1,1,0-1.061h4.244a.53.53,0,1,1,0,1.061Z" transform="translate(-455.556 -1007.767)"/>
    </g>
    <g id="그룹_33542" data-name="그룹 33542" transform="translate(429.67 966.668)">
      <g id="그룹_33540" data-name="그룹 33540" transform="translate(6.365 0)">
        <path id="패스_474" data-name="패스 474" d="M475.985,995.495h-2.121a.53.53,0,1,1,0-1.061h2.121a.53.53,0,1,1,0,1.061Z" transform="translate(-473.333 -994.434)"/>
      </g>
      <g id="그룹_33541" data-name="그룹 33541" transform="translate(0 0)">
        <path id="패스_475" data-name="패스 475" d="M449.319,995.495H447.2a.53.53,0,0,1,0-1.061h2.122a.53.53,0,1,1,0,1.061Z" transform="translate(-446.667 -994.434)"/>
      </g>
    </g>
  </g>
</svg>
