<svg id="구성_요소_59_1" data-name="구성 요소 59 – 1" xmlns="http://www.w3.org/2000/svg" xmlns:xlink="http://www.w3.org/1999/xlink" width="81" height="80" viewBox="0 0 81 80">
  <defs>
    <clipPath id="clip-path">
      <rect id="사각형_39" data-name="사각형 39" width="50.333" height="44.41" fill="none"/>
    </clipPath>
  </defs>
  <rect id="사각형_41" data-name="사각형 41" width="81" height="80" fill="none"/>
  <g id="그룹_40" data-name="그룹 40" transform="translate(15.338 18)">
    <g id="그룹_39" data-name="그룹 39" transform="translate(0 0)" clip-path="url(#clip-path)">
      <path id="패스_271" data-name="패스 271" d="M47.155,44.41H3.178A3.181,3.181,0,0,1,0,41.232V12.57A3.182,3.182,0,0,1,3.178,9.392H47.155a3.182,3.182,0,0,1,3.178,3.178V41.232a3.181,3.181,0,0,1-3.178,3.177M3.032,12.57c0,.227-.081,28.807.146,28.807H47.155c.28,0,.167-28.954,0-28.954-.227,0-44.123-.081-44.123.146M36.643,0H14.262V6.455h3.032V3.032H33.612V6.455h3.032Zm8.23,18.737-2.679-1.419-3.343,6.313H11.481L8.138,17.318,5.458,18.737l4.2,7.926h31.02Zm-15.691-.583H21.15v3.032h8.032Z" transform="translate(0 0)" fill="#274694"/>
    </g>
  </g>
</svg>
