<svg xmlns="http://www.w3.org/2000/svg" width="21" height="26" viewBox="0 0 21 26">
  <path id="Book_icon" data-name="Book icon" d="M8.1,27.917A4.132,4.132,0,0,1,5.08,26.682a4.053,4.053,0,0,1-1.247-2.99V6.142A4.053,4.053,0,0,1,5.08,3.152,4.132,4.132,0,0,1,8.1,1.917H24.833v19.5a1.746,1.746,0,0,0-1.411.682,2.552,2.552,0,0,0,0,3.185,1.746,1.746,0,0,0,1.411.683v1.95H8.1Zm.984-8.45h1.969V3.867H9.083v15.6Zm-.984,6.5h13.42a4.3,4.3,0,0,1-.459-1.073,4.431,4.431,0,0,1-.164-1.2,4.378,4.378,0,0,1,.164-1.219,3.734,3.734,0,0,1,.492-1.056H8.1a2.224,2.224,0,0,0-1.624.666,2.26,2.26,0,0,0,0,3.218,2.224,2.224,0,0,0,1.624.666Z" transform="translate(-3.833 -1.917)" fill="#274694"/>
</svg>
