<svg xmlns="http://www.w3.org/2000/svg" xmlns:xlink="http://www.w3.org/1999/xlink" width="70" height="70" viewBox="0 0 70 70">
  <defs>
    <linearGradient id="linear-gradient" x1="-0.97" y1="2.325" x2="3.346" y2="-3.034" gradientUnits="objectBoundingBox">
      <stop offset="0" stop-color="#5494bb"/>
      <stop offset="1" stop-color="#74cdc0"/>
    </linearGradient>
    <linearGradient id="linear-gradient-2" x1="0.5" y1="0.896" x2="0.5" y2="-0.215" gradientUnits="objectBoundingBox">
      <stop offset="0" stop-color="#3e6efa"/>
      <stop offset="1" stop-color="#8ddcfd"/>
    </linearGradient>
  </defs>
  <g id="설립근거_icon" transform="translate(-1305.092 -1106.092)">
    <rect id="사각형_24799" data-name="사각형 24799" width="70" height="70" transform="translate(1305.092 1106.092)" fill="none"/>
    <g id="그룹_51845" data-name="그룹 51845">
      <path id="사각형_24878" data-name="사각형 24878" d="M5.519,0H45.188a5.52,5.52,0,0,1,5.52,5.52V29.77a5.519,5.519,0,0,1-5.519,5.519H5.52A5.52,5.52,0,0,1,0,29.769V5.519A5.519,5.519,0,0,1,5.519,0Z" transform="translate(1314.737 1130.582)" opacity="0.5" fill="url(#linear-gradient)"/>
      <g id="그룹_51843" data-name="그룹 51843" transform="translate(1325.873 1116.313)">
        <path id="패스_83" data-name="패스 83" d="M609.707,232.216a4.572,4.572,0,0,0-4.573-4.572H585.842a4.572,4.572,0,0,0-4.573,4.572v44.159h28.438Z" transform="translate(-581.269 -227.644)" fill="url(#linear-gradient-2)"/>
      </g>
      <path id="패스_62290" data-name="패스 62290" d="M603.418,233.863a16.912,16.912,0,0,0-1.191-6.219H585.842a4.572,4.572,0,0,0-4.573,4.572v17.829a16.983,16.983,0,0,0,22.149-16.181Z" transform="translate(744.604 888.668)" fill="#fff" opacity="0.2"/>
      <line id="선_1787" data-name="선 1787" x2="4.622" transform="translate(1337.781 1154.025)" fill="none" stroke="#fff" stroke-linecap="round" stroke-linejoin="round" stroke-width="3"/>
      <line id="선_1788" data-name="선 1788" x2="4.622" transform="translate(1337.781 1145.441)" fill="none" stroke="#fff" stroke-linecap="round" stroke-linejoin="round" stroke-width="3"/>
      <g id="그룹_51844" data-name="그룹 51844" transform="translate(1325.873 1116.313)">
        <path id="패스_93" data-name="패스 93" d="M609.707,232.216a4.572,4.572,0,0,0-4.573-4.572H585.842a4.572,4.572,0,0,0-4.573,4.572v44.159h28.438Z" transform="translate(-581.269 -227.644)" fill="none" stroke="#fff" stroke-linecap="round" stroke-linejoin="round" stroke-width="3"/>
      </g>
      <circle id="타원_2599" data-name="타원 2599" cx="3.23" cy="3.23" r="3.23" transform="translate(1336.861 1126.379)" fill="#fff"/>
    </g>
  </g>
</svg>
