<svg id="menu6_icon01" xmlns="http://www.w3.org/2000/svg" xmlns:xlink="http://www.w3.org/1999/xlink" width="63" height="46" viewBox="0 0 63 46">
  <defs>
    <clipPath id="clip-path">
      <rect id="사각형_25430" data-name="사각형 25430" width="63" height="46" fill="none"/>
    </clipPath>
  </defs>
  <g id="그룹_52389" data-name="그룹 52389" clip-path="url(#clip-path)">
    <path id="패스_62853" data-name="패스 62853" d="M108.181,255.883a5.439,5.439,0,0,1-2.163-.489,2.067,2.067,0,0,1-.88-.632,1.256,1.256,0,0,1-.2-.421,5.567,5.567,0,0,1-1.591.107,2.264,2.264,0,0,1-2.057-1.671,2.128,2.128,0,0,1,.164-1.2,5.511,5.511,0,0,1-1.714-.385,3.487,3.487,0,0,1-1.99-1.955,1.915,1.915,0,0,1-.1-.964,3.942,3.942,0,0,1-1.717-1.325,1.077,1.077,0,0,1-.217-.771.726.726,0,0,1,.3-.478.54.54,0,0,1,.749.127.531.531,0,0,1,.056.519,2.855,2.855,0,0,0,1.7,1.077.533.533,0,0,1,.246.924.573.573,0,0,0,0,.528,2.419,2.419,0,0,0,1.393,1.333,5.333,5.333,0,0,0,2.173.326.541.541,0,0,1,.476.268.531.531,0,0,1-.008.544,2.008,2.008,0,0,0-.447,1.243c.08.447.635.745,1.117.8a5.209,5.209,0,0,0,1.458-.128c.178-.032.362-.065.546-.092a.538.538,0,0,1,.549.269.531.531,0,0,1-.048.59.193.193,0,0,0,.036.106,1.147,1.147,0,0,0,.445.285,3.937,3.937,0,0,0,2.352.333.534.534,0,1,1,.235,1.042,3.942,3.942,0,0,1-.855.091" transform="translate(-82.48 -211.894)" fill="#d1d1d1"/>
    <path id="패스_62854" data-name="패스 62854" d="M226.691,283.35a3.058,3.058,0,0,1-.882-.128.534.534,0,1,1,.312-1.022,2.262,2.262,0,0,0,1.73-.227,2.237,2.237,0,0,0,1.1-1.342.539.539,0,0,1,.834-.3,2.226,2.226,0,0,0,2.4-.155,7.515,7.515,0,0,0,1.947-2.234.539.539,0,0,1,.523-.234,2.32,2.32,0,0,0,2.451-1.65.537.537,0,0,1,1.043.255,3.415,3.415,0,0,1-3.3,2.479,7.75,7.75,0,0,1-2.077,2.274,3.486,3.486,0,0,1-3.032.448,3.427,3.427,0,0,1-1.379,1.388,3.489,3.489,0,0,1-1.683.444" transform="translate(-194.283 -237.821)" fill="#d1d1d1"/>
    <path id="패스_62855" data-name="패스 62855" d="M334.8,208.119a.534.534,0,0,1-.414-.874,7.2,7.2,0,0,0,1.1-1.8l.013-.032a1.687,1.687,0,0,1,.45-.688,1.707,1.707,0,0,1,.522-.277l1.871-.7a.539.539,0,0,1,.692.312.533.533,0,0,1-.314.688l-1.871.7a.949.949,0,0,0-.207.094.978.978,0,0,0-.152.285l-.014.033a8.269,8.269,0,0,1-1.263,2.067.538.538,0,0,1-.414.193" transform="translate(-288.086 -175.755)" fill="#d1d1d1"/>
    <path id="패스_62856" data-name="패스 62856" d="M160.882,174.866q-.162,0-.327-.009a.534.534,0,1,1,.063-1.066,9.293,9.293,0,0,0,4.611-1.452,10.565,10.565,0,0,1,5.033-1.582.534.534,0,1,1-.032,1.067,9.63,9.63,0,0,0-4.51,1.465,10.852,10.852,0,0,1-4.837,1.578" transform="translate(-137.937 -147.317)" fill="#d1d1d1"/>
    <path id="패스_62857" data-name="패스 62857" d="M240.5,173.292a7.335,7.335,0,0,1-2.806-.612c-.68-.285-1.33-.634-1.959-.973a15.547,15.547,0,0,0-2.516-1.171.534.534,0,1,1,.335-1.014,16.6,16.6,0,0,1,2.693,1.246c.606.326,1.232.663,1.864.927.8.335,2.824,1.006,4.289,0a.54.54,0,0,1,.748.134.532.532,0,0,1-.135.743,4.37,4.37,0,0,1-2.512.723" transform="translate(-200.676 -146.231)" fill="#d1d1d1"/>
    <path id="패스_62858" data-name="패스 62858" d="M243.325,182.827a4.251,4.251,0,0,1-2.493-1.129l-3.358-2.582a.531.531,0,0,1-.1-.749.54.54,0,0,1,.754-.1l3.358,2.582a3.064,3.064,0,0,0,2,.9c.815-.1,2.176-.37,2.139-1.005-.054-.924-1.574-2.774-2.146-3.471-2.444-2.974-7.928-6.465-12.083-8.376a.533.533,0,0,1-.262-.709.539.539,0,0,1,.713-.26c4.135,1.9,9.8,5.426,12.464,8.67,1.2,1.462,2.322,2.969,2.387,4.085.067,1.145-.969,1.86-3.077,2.126a2.383,2.383,0,0,1-.3.019" transform="translate(-199.162 -144.837)"/>
    <path id="패스_62859" data-name="패스 62859" d="M263.121,271.28a2.859,2.859,0,0,1-1.859-.75l-3.044-2.61a.531.531,0,0,1-.056-.753.54.54,0,0,1,.758-.055l3.044,2.61a1.81,1.81,0,0,0,2.564-.093,1.866,1.866,0,0,0,.735-1.264,2.19,2.19,0,0,0-.462-1.609.531.531,0,0,1,.1-.749.54.54,0,0,1,.754.1,3.258,3.258,0,0,1,.678,2.4,2.949,2.949,0,0,1-1.146,1.974,3.4,3.4,0,0,1-2.062.8" transform="translate(-222.383 -229.401)"/>
    <path id="패스_62860" data-name="패스 62860" d="M240.041,300.88a5.934,5.934,0,0,1-3.522-1.509,6.883,6.883,0,0,0-.563-.4.532.532,0,0,1-.188-.731.539.539,0,0,1,.736-.187,7.485,7.485,0,0,1,.666.47,4.979,4.979,0,0,0,2.871,1.291,3.632,3.632,0,0,0,2.592-2.072.537.537,0,0,1,1.021.333,4.589,4.589,0,0,1-3.613,2.807" transform="translate(-203.13 -256.557)"/>
    <path id="패스_62861" data-name="패스 62861" d="M78.43,225.626a.539.539,0,0,1-.2-.039,1.888,1.888,0,0,1-.747-.42c-.455-.34-1.195-.946-2.2-1.8a.532.532,0,0,1-.058-.753.54.54,0,0,1,.758-.058c1.586,1.35,2.177,1.792,2.393,1.936a.668.668,0,0,1,.428.215.531.531,0,0,1,.014.755.537.537,0,0,1-.387.163" transform="translate(-64.72 -191.899)"/>
    <path id="패스_62862" data-name="패스 62862" d="M201.3,316.222a11.4,11.4,0,0,1-4.882-1.669c-.231-.122-.449-.237-.636-.33a.532.532,0,0,1-.24-.716.539.539,0,0,1,.721-.238c.2.1.422.217.659.342,1.465.774,3.678,1.943,5.25,1.411a2.516,2.516,0,0,0,1.467-1.467.539.539,0,0,1,.711-.266.532.532,0,0,1,.267.707,3.574,3.574,0,0,1-2.1,2.037,3.788,3.788,0,0,1-1.219.19" transform="translate(-168.476 -270.222)"/>
    <path id="패스_62863" data-name="패스 62863" d="M143.711,121.709a2.5,2.5,0,0,1-2.08-.9c-.687-.913-.587-2.481,1.187-3.927a35.921,35.921,0,0,1,8.83-5.455c3.3-1.345,6.22-1.668,8.674-.96a27.179,27.179,0,0,0,6.029.773,12.44,12.44,0,0,0,3.826-1.811.539.539,0,0,1,.748.134.532.532,0,0,1-.135.743,13.021,13.021,0,0,1-4.269,1.991.547.547,0,0,1-.116.012,28.106,28.106,0,0,1-6.383-.816c-4.177-1.206-10.2,1.06-16.521,6.215-1.219.994-1.377,1.973-1.008,2.462.455.6,2.052.882,4.584-.83a10.413,10.413,0,0,1,7.176-1.967.534.534,0,1,1-.13,1.06,9.369,9.369,0,0,0-6.442,1.79,7.364,7.364,0,0,1-3.969,1.483" transform="translate(-121.724 -94.33)"/>
    <path id="패스_62864" data-name="패스 62864" d="M118.205,113.73a.538.538,0,0,1-.408-.186,4.534,4.534,0,0,0-2.643-1.372,12.525,12.525,0,0,0-3.252-.035c-1.558.134-3.1.331-4.947.585-.04.006-4.161.442-5.056-.549a.531.531,0,0,1,.042-.754.54.54,0,0,1,.759.041c.385.343,3.058.349,4.107.2,1.859-.256,3.42-.455,5-.591a13.449,13.449,0,0,1,3.538.048,5.606,5.606,0,0,1,3.265,1.726.531.531,0,0,1-.057.753.537.537,0,0,1-.35.129" transform="translate(-87.704 -95.748)"/>
    <path id="패스_62865" data-name="패스 62865" d="M93.8,240.376a2.719,2.719,0,0,1-.46-.039,3.394,3.394,0,0,1-1.976-1.177,1.959,1.959,0,0,1-.385-2.249,1.777,1.777,0,0,1,.7-.616,2.884,2.884,0,0,1,2.177-.218,3.236,3.236,0,0,1,2.094,1.9,1.642,1.642,0,0,1,.125.711,1.541,1.541,0,0,1-.435.922,2.5,2.5,0,0,1-1.836.766m-.765-3.351a1.812,1.812,0,0,0-.85.209.769.769,0,0,0-.294.24c-.155.247.03.688.292,1a2.319,2.319,0,0,0,1.339.816,1.488,1.488,0,0,0,1.323-.4.526.526,0,0,0,.155-.279.633.633,0,0,0-.057-.251,2.157,2.157,0,0,0-1.4-1.26,1.764,1.764,0,0,0-.506-.073" transform="translate(-78.222 -203.57)"/>
    <path id="패스_62866" data-name="패스 62866" d="M111.588,254.7a3.012,3.012,0,0,1-.606-.059,3.39,3.39,0,0,1-2.085-2.42,1.555,1.555,0,0,1,.308-1.643.54.54,0,0,1,.758.051.531.531,0,0,1-.051.753,1.071,1.071,0,0,0,.077.742,2.356,2.356,0,0,0,1.21,1.471,5.159,5.159,0,0,0,3.171-.947,2.75,2.75,0,0,0,1.1-1.6.922.922,0,0,0-.305-.8c-.55-.547-1.849-.793-3.844.155a.539.539,0,0,1-.717-.251.532.532,0,0,1,.253-.712c3.146-1.5,4.674-.337,5.067.054a1.987,1.987,0,0,1,.613,1.674,3.766,3.766,0,0,1-1.594,2.389,7.129,7.129,0,0,1-3.357,1.149" transform="translate(-93.774 -214.56)"/>
    <path id="패스_62867" data-name="패스 62867" d="M133.894,271.727a2.681,2.681,0,0,1-2.26-1.048,2.386,2.386,0,0,1,.1-2.772.54.54,0,0,1,.745-.151.532.532,0,0,1,.152.74,1.349,1.349,0,0,0-.112,1.569,1.942,1.942,0,0,0,2.095.506c.81-.2,3.746-2.138,4.324-3.473a.588.588,0,0,0,.044-.516,1.145,1.145,0,0,0-.752-.5c-.582-.145-1.636-.092-3.35.978a.54.54,0,0,1-.741-.168.532.532,0,0,1,.169-.736c2.035-1.271,3.4-1.305,4.183-1.11a2.246,2.246,0,0,1,1.424,1.006,1.571,1.571,0,0,1,.01,1.468c-.758,1.749-4.053,3.846-5.058,4.088a4.137,4.137,0,0,1-.968.119" transform="translate(-113.104 -228.592)"/>
    <path id="패스_62868" data-name="패스 62868" d="M160.214,291.593a4.245,4.245,0,0,1-2.606-.932,1.805,1.805,0,0,1-.707-1.856.537.537,0,0,1,1.042.263.787.787,0,0,0,.364.782,2.9,2.9,0,0,0,2.45.588,5.467,5.467,0,0,0,2.52-2.031,1.021,1.021,0,0,0-.067-.847,1.386,1.386,0,0,0-.49-.367l-.1-.055c-.7-.4-1.917.209-2.221.406a.54.54,0,0,1-.816-.253.532.532,0,0,1,.16-.592c.017-.015,1.946-1.331,3.416-.485l.09.051a2.224,2.224,0,0,1,.879.745,2.08,2.08,0,0,1,.16,1.748c-.382,1.086-2.05,2.21-3.112,2.661a2.489,2.489,0,0,1-.965.173" transform="translate(-135.179 -246.686)"/>
    <path id="패스_62869" data-name="패스 62869" d="M333.012,218.744a.538.538,0,0,1-.468-.271.532.532,0,0,1,.2-.727,5.25,5.25,0,0,0,2.427-3,.536.536,0,0,1,.372-.358l2.781-.757a.534.534,0,1,1,.284,1.03l-2.5.681a6.34,6.34,0,0,1-2.83,3.332.538.538,0,0,1-.264.069" transform="translate(-286.541 -184.293)"/>
    <path id="패스_62870" data-name="패스 62870" d="M350.516,108.682a.539.539,0,0,1-.336-.117.532.532,0,0,1-.2-.459c.5-6.194-1.776-12.468-3.77-16.641a.532.532,0,0,1,.243-.705c.667-.335,1.3-.657,1.941-.979s1.292-.653,1.974-1a.539.539,0,0,1,.722.236.532.532,0,0,1-.237.717c-.682.343-1.328.669-1.972.995l-1.478.746c1.91,4.1,3.966,9.994,3.7,15.931l1.013-.312a.534.534,0,1,1,.318,1.02l-1.757.541a.54.54,0,0,1-.159.024" transform="translate(-298.334 -76.55)"/>
    <path id="패스_62871" data-name="패스 62871" d="M63.688,112.586a.537.537,0,0,1-.159-.024l-1.757-.541a.534.534,0,1,1,.318-1.02l1.013.312c-.269-5.937,1.788-11.827,3.7-15.931l-1.481-.748c-.643-.325-1.288-.651-1.969-.993a.532.532,0,0,1-.237-.717.539.539,0,0,1,.722-.235c.682.342,1.327.669,1.971.994s1.276.645,1.944.98a.532.532,0,0,1,.243.705c-1.995,4.173-4.268,10.447-3.77,16.641a.532.532,0,0,1-.2.459.539.539,0,0,1-.336.117" transform="translate(-52.912 -79.918)"/>
    <path id="패스_62872" data-name="패스 62872" d="M221.42,8.472l-.043,0a.535.535,0,0,1-.493-.574A44,44,0,0,0,220.857.58a.537.537,0,0,1,1.071-.092,45.064,45.064,0,0,1,.027,7.492.536.536,0,0,1-.535.492" transform="translate(-190.343 0)"/>
    <path id="패스_62873" data-name="패스 62873" d="M250.977,26.073a.536.536,0,0,1-.508-.709,45.607,45.607,0,0,1,2.123-5.071.539.539,0,0,1,.719-.245.532.532,0,0,1,.247.714,44.508,44.508,0,0,0-2.073,4.952.538.538,0,0,1-.508.359" transform="translate(-215.84 -17.249)"/>
    <path id="패스_62874" data-name="패스 62874" d="M174.068,27.932a.538.538,0,0,1-.488-.31l-2-4.308a.532.532,0,0,1,.263-.708.539.539,0,0,1,.713.261l2,4.308a.532.532,0,0,1-.263.708.539.539,0,0,1-.225.049" transform="translate(-147.833 -19.46)"/>
    <path id="패스_62875" data-name="패스 62875" d="M374.748,68.668a54.468,54.468,0,0,1,2.7,22.974s7.709-.914,7.9-1.284a54.569,54.569,0,0,0-3.919-23.516Z" transform="translate(-322.974 -57.668)" fill="#2eafe9"/>
    <path id="패스_62876" data-name="패스 62876" d="M374.1,88.82a.54.54,0,0,1-.376-.152.532.532,0,0,1-.159-.433,54.12,54.12,0,0,0-2.678-22.75.531.531,0,0,1,.033-.422.538.538,0,0,1,.333-.265l6.686-1.826a.538.538,0,0,1,.641.315,55.245,55.245,0,0,1,3.957,23.746.532.532,0,0,1-.059.215c-.154.3-.247.477-4.425,1.065-1.935.272-3.871.5-3.89.5a.552.552,0,0,1-.064,0m-2.014-23.143a55.228,55.228,0,0,1,2.61,22c2.9-.355,5.906-.793,6.786-1.029a54.2,54.2,0,0,0-3.721-22.52Zm9.6,20.9h0" transform="translate(-319.622 -54.311)" fill="#2eafe9"/>
    <path id="패스_62877" data-name="패스 62877" d="M8.522,95.563a.554.554,0,0,1-.064,0c-.019,0-1.955-.233-3.89-.5C.39,94.466.3,94.286.143,93.989a.531.531,0,0,1-.059-.215A55.244,55.244,0,0,1,4.042,70.028a.538.538,0,0,1,.641-.315l6.686,1.827a.537.537,0,0,1,.333.265.53.53,0,0,1,.033.422,54.119,54.119,0,0,0-2.678,22.75.532.532,0,0,1-.159.433.539.539,0,0,1-.376.152M1.14,93.39c.88.236,3.888.675,6.786,1.029a55.229,55.229,0,0,1,2.61-22L4.861,70.87A54.2,54.2,0,0,0,1.14,93.39" transform="translate(0 -60.129)" fill="#2eafe9"/>
    <path id="패스_62878" data-name="패스 62878" d="M418.4,208.5a.618.618,0,0,0-.572.194.949.949,0,0,0-.233.572.7.7,0,0,0,.079.428.6.6,0,0,0,.2.192.834.834,0,0,0,.98-.1.821.821,0,0,0,.151-.967.513.513,0,0,0-.258-.241,3.372,3.372,0,0,0-.346-.079" transform="translate(-359.896 -179.876)" fill="#fff"/>
    <path id="패스_62879" data-name="패스 62879" d="M414.94,207.185a1.339,1.339,0,0,1-.7-.2,1.129,1.129,0,0,1-.375-.368,1.21,1.21,0,0,1-.155-.751,1.464,1.464,0,0,1,.376-.891,1.148,1.148,0,0,1,1.087-.35c.043.01.083.018.122.025a1.755,1.755,0,0,1,.29.074,1.033,1.033,0,0,1,.541.483,1.33,1.33,0,0,1-1.181,1.975m-.16-1.121a.167.167,0,0,0,.023.017.3.3,0,0,0,.326-.033.292.292,0,0,0,.05-.322l0-.006-.091-.018c-.049-.009-.1-.019-.156-.032a.126.126,0,0,0-.062.037.436.436,0,0,0-.091.253.332.332,0,0,0,0,.1m.426-.337h0Zm-.281-.059h0" transform="translate(-356.544 -176.519)" fill="#fff"/>
    <path id="패스_62880" data-name="패스 62880" d="M25.621,218.619a.618.618,0,0,0-.572.194.95.95,0,0,0-.233.572.7.7,0,0,0,.079.428.6.6,0,0,0,.2.192.834.834,0,0,0,.98-.1.821.821,0,0,0,.151-.967.513.513,0,0,0-.258-.241,3.363,3.363,0,0,0-.346-.079" transform="translate(-21.384 -188.602)"/>
    <path id="패스_62881" data-name="패스 62881" d="M22.162,217.3a1.34,1.34,0,0,1-.7-.2,1.129,1.129,0,0,1-.375-.368,1.21,1.21,0,0,1-.155-.751,1.465,1.465,0,0,1,.376-.891,1.149,1.149,0,0,1,1.087-.35c.043.01.083.018.122.025a1.752,1.752,0,0,1,.29.074,1.032,1.032,0,0,1,.541.483,1.33,1.33,0,0,1-1.181,1.975M22,216.179a.189.189,0,0,0,.023.017.3.3,0,0,0,.326-.033.292.292,0,0,0,.05-.322l0-.006-.091-.018c-.049-.009-.1-.019-.156-.032a.124.124,0,0,0-.062.037.435.435,0,0,0-.091.253.334.334,0,0,0,0,.105m.426-.337h0Zm-.281-.059h0" transform="translate(-18.031 -185.245)"/>
  </g>
</svg>
