<svg xmlns="http://www.w3.org/2000/svg" xmlns:xlink="http://www.w3.org/1999/xlink" width="70" height="70" viewBox="0 0 70 70">
  <defs>
    <clipPath id="clip-path">
      <rect id="사각형_26622" data-name="사각형 26622" width="54" height="56" transform="translate(1190.761 222.545)" fill="#fff" stroke="#707070" stroke-width="1"/>
    </clipPath>
    <linearGradient id="linear-gradient" x1="0.5" y1="1.373" x2="0.5" y2="0.412" gradientUnits="objectBoundingBox">
      <stop offset="0" stop-color="#006efd"/>
      <stop offset="1" stop-color="#56dcfd"/>
    </linearGradient>
    <linearGradient id="linear-gradient-2" x1="0.5" y1="0.222" x2="0.5" y2="-1.007" xlink:href="#linear-gradient"/>
  </defs>
  <g id="설립근거_icon" transform="translate(-1305.092 -1106.092)">
    <rect id="사각형_24799" data-name="사각형 24799" width="70" height="70" transform="translate(1305.092 1106.092)" fill="none"/>
    <g id="마스크_그룹_53517" data-name="마스크 그룹 53517" transform="translate(122.331 890.547)" clip-path="url(#clip-path)">
      <g id="그룹_55479" data-name="그룹 55479" transform="translate(1191.176 222.136)">
        <path id="패스_64993" data-name="패스 64993" d="M617.577,680.315H609.2a9.507,9.507,0,1,0-.71,0h-8.38a8.22,8.22,0,0,0-8.222,8.219V704.4H625.8v-15.86A8.221,8.221,0,0,0,617.577,680.315Z" transform="translate(-572.207 -661.322)" opacity="0.6" fill="url(#linear-gradient)"/>
        <g id="그룹_55478" data-name="그룹 55478" transform="translate(0 13.574)">
          <g id="그룹_55477" data-name="그룹 55477">
            <g id="그룹_55476" data-name="그룹 55476">
              <g id="그룹_55475" data-name="그룹 55475" opacity="0.7">
                <path id="패스_64994" data-name="패스 64994" d="M594.832,696h-8.38a9.507,9.507,0,1,0-.707,0h-8.381a8.219,8.219,0,0,0-8.221,8.219V720.08h33.911V704.221A8.222,8.222,0,0,0,594.832,696Z" transform="translate(-569.143 -677.009)" fill="url(#linear-gradient-2)"/>
              </g>
              <path id="패스_64995" data-name="패스 64995" d="M588.921,684.356a26.367,26.367,0,0,0-.993-7.167A9.5,9.5,0,1,0,585.746,696h-8.381a8.219,8.219,0,0,0-8.221,8.219v5.691A26.4,26.4,0,0,0,588.921,684.356Z" transform="translate(-569.143 -677.009)" fill="#fff" opacity="0.2"/>
            </g>
          </g>
        </g>
      </g>
    </g>
  </g>
</svg>
