<svg xmlns="http://www.w3.org/2000/svg" width="34" height="34" viewBox="0 0 34 34">
  <g id="bus-2-line" transform="translate(-334 -1471)">
    <rect id="사각형_25432" data-name="사각형 25432" width="34" height="34" transform="translate(334 1471)" fill="none"/>
    <path id="bus-2-line-2" data-name="bus-2-line" d="M19.25,22.684H7.75v1.158A1.154,1.154,0,0,1,6.6,25H4.3a1.154,1.154,0,0,1-1.15-1.158V13.421H2V8.789H3.15V5.316A2.308,2.308,0,0,1,5.45,3h16.1a2.308,2.308,0,0,1,2.3,2.316V8.789H25v4.632H23.85V23.842A1.154,1.154,0,0,1,22.7,25H20.4a1.154,1.154,0,0,1-1.15-1.158ZM5.45,5.316v6.947h16.1V5.316Zm16.1,9.263H5.45v5.789h16.1ZM8.325,19.211a1.737,1.737,0,1,1,1.725-1.737A1.731,1.731,0,0,1,8.325,19.211Zm10.35,0A1.737,1.737,0,1,1,20.4,17.474,1.731,1.731,0,0,1,18.675,19.211Z" transform="translate(337 1474)" fill="#333"/>
  </g>
</svg>
