<svg xmlns="http://www.w3.org/2000/svg" width="19" height="24" viewBox="0 0 19 24">
  <path id="Home-Pin--Streamline-Sharp-Material-Symbols" d="M10.068,15.117h1.781v-3.6h2.969v3.6H16.6V9.567l-3.266-2.19-3.266,2.19Zm3.266,8.43a35.023,35.023,0,0,0,5.834-6.585,10.057,10.057,0,0,0,1.885-5.2,7.853,7.853,0,0,0-2.241-5.79,7.436,7.436,0,0,0-5.477-2.25,7.436,7.436,0,0,0-5.477,2.25,7.853,7.853,0,0,0-2.241,5.79,9.909,9.909,0,0,0,1.93,5.205,38.034,38.034,0,0,0,5.789,6.585Zm0,2.37a39.727,39.727,0,0,1-7.14-7.635,11.952,11.952,0,0,1-2.36-6.525A9.33,9.33,0,0,1,6.7,4.587a9.579,9.579,0,0,1,13.27,0,9.33,9.33,0,0,1,2.865,7.17,11.952,11.952,0,0,1-2.36,6.525A39.729,39.729,0,0,1,13.333,25.917Z" transform="translate(-3.833 -1.917)"/>
</svg>
