<svg xmlns="http://www.w3.org/2000/svg" width="34" height="34" viewBox="0 0 34 34">
  <g id="subway-line" transform="translate(-333 -1363)">
    <rect id="사각형_25431" data-name="사각형 25431" width="34" height="34" transform="translate(333 1363)" fill="none"/>
    <path id="subway-line-2" data-name="subway-line" d="M20.356,23.579l2.2,1.816V26H5.444v-.605l2.2-1.816h-2.2A2.433,2.433,0,0,1,3,21.158V7.842A4.866,4.866,0,0,1,7.889,3H20.111A4.866,4.866,0,0,1,25,7.842V21.158a2.433,2.433,0,0,1-2.444,2.421ZM15.222,5.421v7.263h7.333V7.842a2.433,2.433,0,0,0-2.444-2.421Zm-2.444,0H7.889A2.433,2.433,0,0,0,5.444,7.842v4.842h7.333Zm9.778,9.684H5.444v6.053H22.556ZM8.5,19.947a1.816,1.816,0,1,1,1.833-1.816A1.825,1.825,0,0,1,8.5,19.947Zm11,0a1.816,1.816,0,1,1,1.833-1.816A1.825,1.825,0,0,1,19.5,19.947Z" transform="translate(336 1365)" fill="#333"/>
  </g>
</svg>
