<svg xmlns="http://www.w3.org/2000/svg" xmlns:xlink="http://www.w3.org/1999/xlink" width="70" height="70" viewBox="0 0 70 70">
  <defs>
    <clipPath id="clip-path">
      <rect id="사각형_26619" data-name="사각형 26619" width="56" height="56" transform="translate(-0.126 -0.125)" fill="#fff" stroke="#707070" stroke-width="1"/>
    </clipPath>
    <linearGradient id="linear-gradient" x1="0.5" y1="1.159" x2="0.5" y2="-0.155" gradientUnits="objectBoundingBox">
      <stop offset="0" stop-color="#ff012b"/>
      <stop offset="1" stop-color="#fd838b"/>
    </linearGradient>
    <linearGradient id="linear-gradient-2" x1="0.5" y1="1.159" x2="0.5" y2="-0.155" gradientUnits="objectBoundingBox">
      <stop offset="0" stop-color="#fd405f"/>
      <stop offset="1" stop-color="#fd838b"/>
    </linearGradient>
  </defs>
  <g id="주무기관_icon" transform="translate(-545 -1106)">
    <rect id="사각형_24797" data-name="사각형 24797" width="70" height="70" transform="translate(545 1106)" fill="none"/>
    <g id="그룹_55464" data-name="그룹 55464" transform="translate(431.481 597.094)">
      <g id="마스크_그룹_53515" data-name="마스크 그룹 53515" transform="translate(120.646 516.032)" clip-path="url(#clip-path)">
        <g id="그룹_55466" data-name="그룹 55466" transform="translate(12.102 3.252)">
          <g id="그룹_55465" data-name="그룹 55465" transform="translate(0 0)">
            <g id="그룹_55464-2" data-name="그룹 55464">
              <path id="패스_64989" data-name="패스 64989" d="M174.5,522.3a11.406,11.406,0,0,0-16.13,0l-.939.94a1.332,1.332,0,0,1-1.879,0l-.939-.94a11.406,11.406,0,0,0-16.13,16.132l.937.939c.058.057.146.144.252.251l.687.687.881.883c.755.753,1.667,1.667,2.647,2.645l1.347,1.346,6.383,6.381a6.914,6.914,0,0,0,9.747,0l3.192-3.193,8.065-8.064,1.877-1.878A11.406,11.406,0,0,0,174.5,522.3Z" transform="translate(-135.139 -518.96)" opacity="0.9" fill="url(#linear-gradient)"/>
            </g>
          </g>
        </g>
        <g id="그룹_55473" data-name="그룹 55473" transform="translate(0.946 16.983)">
          <g id="그룹_55469" data-name="그룹 55469" opacity="0.5">
            <g id="그룹_55468" data-name="그룹 55468">
              <g id="그룹_55467" data-name="그룹 55467">
                <path id="패스_64990" data-name="패스 64990" d="M161.5,538.3a11.406,11.406,0,0,0-16.13,0l-.939.94a1.332,1.332,0,0,1-1.879,0l-.939-.94a11.406,11.406,0,1,0-16.13,16.132l.937.939c.058.057.146.144.252.251l.687.687.881.883c.755.753,1.667,1.667,2.647,2.645l1.346,1.346,6.383,6.381a6.914,6.914,0,0,0,9.747,0l3.192-3.192,8.065-8.065,1.877-1.878A11.406,11.406,0,0,0,161.5,538.3Z" transform="translate(-122.139 -534.96)" opacity="0.9" fill="url(#linear-gradient-2)"/>
              </g>
            </g>
          </g>
          <g id="그룹_55472" data-name="그룹 55472">
            <g id="그룹_55471" data-name="그룹 55471">
              <g id="그룹_55470" data-name="그룹 55470">
                <path id="패스_64991" data-name="패스 64991" d="M161.5,538.3a11.406,11.406,0,0,0-16.13,0l-.939.94a1.332,1.332,0,0,1-1.879,0l-.939-.94a11.406,11.406,0,1,0-16.13,16.132l.937.939c.058.057.146.144.252.251l.687.687.881.883c.755.753,1.667,1.667,2.647,2.645l1.346,1.346,6.383,6.381a6.914,6.914,0,0,0,9.747,0l3.192-3.192,8.065-8.065,1.877-1.878A11.406,11.406,0,0,0,161.5,538.3Z" transform="translate(-122.139 -534.96)" fill="none" stroke="#fff" stroke-linecap="round" stroke-linejoin="round" stroke-width="3" opacity="0.9"/>
              </g>
            </g>
          </g>
        </g>
      </g>
    </g>
  </g>
</svg>
