<svg xmlns="http://www.w3.org/2000/svg" xmlns:xlink="http://www.w3.org/1999/xlink" width="64.164" height="64" viewBox="0 0 64.164 64">
  <defs>
    <clipPath id="clip-path">
      <rect id="사각형_25926" data-name="사각형 25926" width="62.329" height="47.844" fill="none"/>
    </clipPath>
    <clipPath id="clip-path-2">
      <rect id="사각형_25925" data-name="사각형 25925" width="62.329" height="47.843" fill="none"/>
    </clipPath>
    <clipPath id="clip-path-5">
      <rect id="사각형_25908" data-name="사각형 25908" width="60.761" height="46.097" fill="none"/>
    </clipPath>
    <clipPath id="clip-path-6">
      <rect id="사각형_25909" data-name="사각형 25909" width="59.193" height="44.35" fill="none"/>
    </clipPath>
    <clipPath id="clip-path-7">
      <rect id="사각형_25910" data-name="사각형 25910" width="57.626" height="42.603" fill="none"/>
    </clipPath>
    <clipPath id="clip-path-8">
      <rect id="사각형_25911" data-name="사각형 25911" width="56.058" height="40.856" fill="none"/>
    </clipPath>
    <clipPath id="clip-path-9">
      <rect id="사각형_25912" data-name="사각형 25912" width="54.49" height="39.109" fill="none"/>
    </clipPath>
    <clipPath id="clip-path-10">
      <rect id="사각형_25913" data-name="사각형 25913" width="52.922" height="37.362" fill="none"/>
    </clipPath>
    <clipPath id="clip-path-11">
      <rect id="사각형_25914" data-name="사각형 25914" width="51.355" height="35.615" fill="none"/>
    </clipPath>
    <clipPath id="clip-path-12">
      <rect id="사각형_25915" data-name="사각형 25915" width="49.787" height="33.868" fill="none"/>
    </clipPath>
    <clipPath id="clip-path-13">
      <rect id="사각형_25916" data-name="사각형 25916" width="48.219" height="32.121" fill="none"/>
    </clipPath>
    <clipPath id="clip-path-14">
      <rect id="사각형_25917" data-name="사각형 25917" width="46.652" height="30.374" fill="none"/>
    </clipPath>
    <clipPath id="clip-path-15">
      <rect id="사각형_25918" data-name="사각형 25918" width="45.084" height="28.627" fill="none"/>
    </clipPath>
    <clipPath id="clip-path-16">
      <rect id="사각형_25919" data-name="사각형 25919" width="43.516" height="26.88" fill="none"/>
    </clipPath>
    <clipPath id="clip-path-17">
      <rect id="사각형_25920" data-name="사각형 25920" width="41.948" height="25.133" fill="none"/>
    </clipPath>
    <clipPath id="clip-path-18">
      <rect id="사각형_25921" data-name="사각형 25921" width="40.381" height="23.386" fill="none"/>
    </clipPath>
    <clipPath id="clip-path-19">
      <rect id="사각형_25922" data-name="사각형 25922" width="38.813" height="21.639" fill="none"/>
    </clipPath>
    <clipPath id="clip-path-20">
      <rect id="사각형_25923" data-name="사각형 25923" width="37.245" height="19.892" fill="none"/>
    </clipPath>
    <clipPath id="clip-path-21">
      <rect id="사각형_25906" data-name="사각형 25906" width="47.96" height="41.354" fill="none"/>
    </clipPath>
    <clipPath id="clip-path-22">
      <path id="사각형_25859" data-name="사각형 25859" d="M3,0H37.474a3,3,0,0,1,3,3V21.228a3,3,0,0,1-3,3H3a3,3,0,0,1-3-3V3A3,3,0,0,1,3,0Z" fill="none"/>
    </clipPath>
    <linearGradient id="linear-gradient" x1="-0.185" y1="1.422" x2="-0.157" y2="1.422" gradientUnits="objectBoundingBox">
      <stop offset="0" stop-color="#ff8f9f"/>
      <stop offset="0.614" stop-color="#ff6190"/>
      <stop offset="1" stop-color="#ff4286"/>
    </linearGradient>
    <clipPath id="clip-path-24">
      <rect id="사각형_25876" data-name="사각형 25876" width="25.083" height="25.083" fill="none"/>
    </clipPath>
    <clipPath id="clip-path-26">
      <rect id="사각형_25861" data-name="사각형 25861" width="24.594" height="24.594" fill="none"/>
    </clipPath>
    <clipPath id="clip-path-27">
      <rect id="사각형_25862" data-name="사각형 25862" width="24.104" height="24.104" fill="none"/>
    </clipPath>
    <clipPath id="clip-path-28">
      <rect id="사각형_25863" data-name="사각형 25863" width="23.614" height="23.614" fill="none"/>
    </clipPath>
    <clipPath id="clip-path-29">
      <rect id="사각형_25864" data-name="사각형 25864" width="23.124" height="23.124" fill="none"/>
    </clipPath>
    <clipPath id="clip-path-30">
      <rect id="사각형_25865" data-name="사각형 25865" width="22.634" height="22.634" fill="none"/>
    </clipPath>
    <clipPath id="clip-path-31">
      <rect id="사각형_25866" data-name="사각형 25866" width="22.144" height="22.144" fill="none"/>
    </clipPath>
    <clipPath id="clip-path-32">
      <rect id="사각형_25867" data-name="사각형 25867" width="21.654" height="21.654" fill="none"/>
    </clipPath>
    <clipPath id="clip-path-33">
      <rect id="사각형_25868" data-name="사각형 25868" width="21.164" height="21.164" fill="none"/>
    </clipPath>
    <clipPath id="clip-path-34">
      <rect id="사각형_25869" data-name="사각형 25869" width="20.674" height="20.674" fill="none"/>
    </clipPath>
    <clipPath id="clip-path-35">
      <rect id="사각형_25870" data-name="사각형 25870" width="20.184" height="20.184" fill="none"/>
    </clipPath>
    <clipPath id="clip-path-36">
      <rect id="사각형_25871" data-name="사각형 25871" width="19.694" height="19.694" fill="none"/>
    </clipPath>
    <clipPath id="clip-path-37">
      <rect id="사각형_25872" data-name="사각형 25872" width="19.205" height="19.204" fill="none"/>
    </clipPath>
    <clipPath id="clip-path-38">
      <rect id="사각형_25873" data-name="사각형 25873" width="18.715" height="18.715" fill="none"/>
    </clipPath>
    <clipPath id="clip-path-39">
      <rect id="사각형_25874" data-name="사각형 25874" width="18.225" height="18.225" fill="none"/>
    </clipPath>
    <clipPath id="clip-path-40">
      <rect id="사각형_25875" data-name="사각형 25875" width="17.735" height="17.735" fill="none"/>
    </clipPath>
    <clipPath id="clip-path-41">
      <rect id="사각형_25893" data-name="사각형 25893" width="21.717" height="20.665" fill="none"/>
    </clipPath>
    <clipPath id="clip-path-43">
      <rect id="사각형_25878" data-name="사각형 25878" width="21.293" height="20.262" fill="none"/>
    </clipPath>
    <clipPath id="clip-path-44">
      <rect id="사각형_25879" data-name="사각형 25879" width="20.869" height="19.858" fill="none"/>
    </clipPath>
    <clipPath id="clip-path-45">
      <rect id="사각형_25880" data-name="사각형 25880" width="20.445" height="19.455" fill="none"/>
    </clipPath>
    <clipPath id="clip-path-46">
      <rect id="사각형_25881" data-name="사각형 25881" width="20.021" height="19.051" fill="none"/>
    </clipPath>
    <clipPath id="clip-path-47">
      <rect id="사각형_25882" data-name="사각형 25882" width="19.596" height="18.647" fill="none"/>
    </clipPath>
    <clipPath id="clip-path-48">
      <rect id="사각형_25883" data-name="사각형 25883" width="19.172" height="18.244" fill="none"/>
    </clipPath>
    <clipPath id="clip-path-49">
      <rect id="사각형_25884" data-name="사각형 25884" width="18.748" height="17.84" fill="none"/>
    </clipPath>
    <clipPath id="clip-path-50">
      <rect id="사각형_25885" data-name="사각형 25885" width="18.324" height="17.436" fill="none"/>
    </clipPath>
    <clipPath id="clip-path-51">
      <rect id="사각형_25886" data-name="사각형 25886" width="17.9" height="17.033" fill="none"/>
    </clipPath>
    <clipPath id="clip-path-52">
      <rect id="사각형_25887" data-name="사각형 25887" width="17.476" height="16.629" fill="none"/>
    </clipPath>
    <clipPath id="clip-path-53">
      <rect id="사각형_25888" data-name="사각형 25888" width="17.051" height="16.226" fill="none"/>
    </clipPath>
    <clipPath id="clip-path-54">
      <rect id="사각형_25889" data-name="사각형 25889" width="16.627" height="15.822" fill="none"/>
    </clipPath>
    <clipPath id="clip-path-55">
      <rect id="사각형_25890" data-name="사각형 25890" width="16.203" height="15.418" fill="none"/>
    </clipPath>
    <clipPath id="clip-path-56">
      <rect id="사각형_25891" data-name="사각형 25891" width="15.779" height="15.015" fill="none"/>
    </clipPath>
    <clipPath id="clip-path-57">
      <rect id="사각형_25892" data-name="사각형 25892" width="15.355" height="14.611" fill="none"/>
    </clipPath>
    <clipPath id="clip-path-58">
      <rect id="사각형_25894" data-name="사각형 25894" width="40.832" height="24.585" fill="none"/>
    </clipPath>
    <clipPath id="clip-path-59">
      <rect id="사각형_25898" data-name="사각형 25898" width="47.96" height="41.355" fill="none"/>
    </clipPath>
    <clipPath id="clip-path-60">
      <rect id="사각형_25896" data-name="사각형 25896" width="16.909" height="3.848" fill="none"/>
    </clipPath>
    <clipPath id="clip-path-61">
      <rect id="사각형_25897" data-name="사각형 25897" width="20.053" height="3.848" fill="none"/>
    </clipPath>
    <clipPath id="clip-path-62">
      <path id="패스_63869" data-name="패스 63869" d="M5.138,10.844A7.242,7.242,0,1,0,12.38,3.6a7.242,7.242,0,0,0-7.242,7.242" transform="translate(-5.138 -3.602)" fill="none"/>
    </clipPath>
    <linearGradient id="linear-gradient-2" x1="-0.404" y1="2.572" x2="-0.326" y2="2.572" gradientUnits="objectBoundingBox">
      <stop offset="0" stop-color="#fff5f7"/>
      <stop offset="1" stop-color="#f8cfda"/>
    </linearGradient>
    <clipPath id="clip-path-64">
      <rect id="사각형_25900" data-name="사각형 25900" width="20.993" height="18.446" fill="none"/>
    </clipPath>
    <clipPath id="clip-path-65">
      <rect id="사각형_25901" data-name="사각형 25901" width="14.714" height="14.715" fill="none"/>
    </clipPath>
    <clipPath id="clip-path-66">
      <path id="패스_63921" data-name="패스 63921" d="M13.463,17.727H11.6c-8.283,0-10.418,6.068-10.532,10.771,0,.018,0,.038,0,.056a2.08,2.08,0,0,0,2,2.142h20.79a2.08,2.08,0,0,0,2.006-2.142V28.5c-.115-4.7-2.248-10.771-10.532-10.771Z" transform="translate(-1.064 -17.727)" fill="none"/>
    </clipPath>
    <linearGradient id="linear-gradient-3" x1="-0.049" y1="1.63" x2="-0.003" y2="1.63" xlink:href="#linear-gradient-2"/>
    <clipPath id="clip-path-67">
      <path id="패스_63989" data-name="패스 63989" d="M13.463,17.727H11.6c-8.283,0-10.418,6.068-10.532,10.771a2.084,2.084,0,0,0,2,2.2h20.79a2.084,2.084,0,0,0,2-2.2c-.115-4.7-2.248-10.771-10.532-10.771Z" transform="translate(-1.064 -17.727)" fill="none"/>
    </clipPath>
    <clipPath id="clip-path-68">
      <rect id="사각형_25903" data-name="사각형 25903" width="26.363" height="22.919" fill="none"/>
    </clipPath>
    <clipPath id="clip-path-69">
      <rect id="사각형_25904" data-name="사각형 25904" width="25.678" height="13.429" fill="none"/>
    </clipPath>
  </defs>
  <g id="mypage" transform="translate(-1439.836 -628)">
    <g id="그룹_53607" data-name="그룹 53607" transform="translate(-0.164 -1.915)">
      <g id="그룹_53606" data-name="그룹 53606" transform="translate(1440 641)">
        <g id="그룹_53605" data-name="그룹 53605" clip-path="url(#clip-path)">
          <g id="그룹_53604" data-name="그룹 53604" transform="translate(0 0)">
            <g id="그룹_53603" data-name="그룹 53603" clip-path="url(#clip-path-2)">
              <g id="그룹_53602" data-name="그룹 53602" transform="translate(0 0)" style="mix-blend-mode: multiply;isolation: isolate">
                <g id="그룹_53601" data-name="그룹 53601">
                  <g id="그룹_53600" data-name="그룹 53600" clip-path="url(#clip-path)">
                    <g id="그룹_53551" data-name="그룹 53551" opacity="0.1">
                      <g id="그룹_53550" data-name="그룹 53550">
                        <g id="그룹_53549" data-name="그룹 53549" clip-path="url(#clip-path)">
                          <path id="패스_63990" data-name="패스 63990" d="M44.406,47.843H17.922A17.923,17.923,0,0,1,0,29.921v-12A17.923,17.923,0,0,1,17.922,0H44.406A17.922,17.922,0,0,1,62.328,17.922v12A17.922,17.922,0,0,1,44.406,47.843" transform="translate(0 0)" fill="#fff"/>
                        </g>
                      </g>
                    </g>
                    <g id="그룹_53554" data-name="그룹 53554" transform="translate(1.069 0.757)" opacity="0.156">
                      <g id="그룹_53553" data-name="그룹 53553">
                        <g id="그룹_53552" data-name="그룹 53552" clip-path="url(#clip-path-5)">
                          <path id="패스_63991" data-name="패스 63991" d="M44.305,46.761H18.331A17.394,17.394,0,0,1,.937,29.367V18.057A17.394,17.394,0,0,1,18.331.664H44.305A17.393,17.393,0,0,1,61.7,18.057v11.31A17.393,17.393,0,0,1,44.305,46.761" transform="translate(-0.938 -0.664)" fill="#fffdfd"/>
                        </g>
                      </g>
                    </g>
                    <g id="그룹_53557" data-name="그룹 53557" transform="translate(2.138 1.514)" opacity="0.212">
                      <g id="그룹_53556" data-name="그룹 53556">
                        <g id="그룹_53555" data-name="그룹 53555" clip-path="url(#clip-path-6)">
                          <path id="패스_63992" data-name="패스 63992" d="M44.2,45.677H18.739A16.864,16.864,0,0,1,1.875,28.813V18.191A16.864,16.864,0,0,1,18.739,1.327H44.2A16.864,16.864,0,0,1,61.069,18.191V28.813A16.864,16.864,0,0,1,44.2,45.677" transform="translate(-1.875 -1.327)" fill="#fefafc"/>
                        </g>
                      </g>
                    </g>
                    <g id="그룹_53560" data-name="그룹 53560" transform="translate(3.207 2.27)" opacity="0.269">
                      <g id="그룹_53559" data-name="그룹 53559">
                        <g id="그룹_53558" data-name="그룹 53558" clip-path="url(#clip-path-7)">
                          <path id="패스_63993" data-name="패스 63993" d="M44.1,44.594H19.147A16.333,16.333,0,0,1,2.813,28.259V18.326A16.334,16.334,0,0,1,19.147,1.991H44.1A16.336,16.336,0,0,1,60.438,18.326v9.933A16.335,16.335,0,0,1,44.1,44.594" transform="translate(-2.812 -1.991)" fill="#fef8fa"/>
                        </g>
                      </g>
                    </g>
                    <g id="그룹_53563" data-name="그룹 53563" transform="translate(4.276 3.027)" opacity="0.325">
                      <g id="그룹_53562" data-name="그룹 53562">
                        <g id="그룹_53561" data-name="그룹 53561" clip-path="url(#clip-path-8)">
                          <path id="패스_63994" data-name="패스 63994" d="M44,43.51H19.555a15.8,15.8,0,0,1-15.8-15.8V18.46a15.8,15.8,0,0,1,15.8-15.8H44a15.8,15.8,0,0,1,15.8,15.8v9.246A15.8,15.8,0,0,1,44,43.51" transform="translate(-3.75 -2.655)" fill="#fdf5f8"/>
                        </g>
                      </g>
                    </g>
                    <g id="그룹_53566" data-name="그룹 53566" transform="translate(5.344 3.784)" opacity="0.381">
                      <g id="그룹_53565" data-name="그룹 53565">
                        <g id="그룹_53564" data-name="그룹 53564" clip-path="url(#clip-path-9)">
                          <path id="패스_63995" data-name="패스 63995" d="M43.9,42.428H19.964A15.276,15.276,0,0,1,4.688,27.152V18.595A15.276,15.276,0,0,1,19.964,3.319H43.9A15.276,15.276,0,0,1,59.177,18.595v8.557A15.276,15.276,0,0,1,43.9,42.428" transform="translate(-4.687 -3.318)" fill="#fdf3f6"/>
                        </g>
                      </g>
                    </g>
                    <g id="그룹_53569" data-name="그룹 53569" transform="translate(6.413 4.54)" opacity="0.438">
                      <g id="그룹_53568" data-name="그룹 53568">
                        <g id="그룹_53567" data-name="그룹 53567" clip-path="url(#clip-path-10)">
                          <path id="패스_63996" data-name="패스 63996" d="M43.8,41.344H20.372A14.747,14.747,0,0,1,5.625,26.6V18.729A14.747,14.747,0,0,1,20.372,3.982H43.8A14.747,14.747,0,0,1,58.548,18.729V26.6A14.747,14.747,0,0,1,43.8,41.344" transform="translate(-5.625 -3.982)" fill="#fcf0f4"/>
                        </g>
                      </g>
                    </g>
                    <g id="그룹_53572" data-name="그룹 53572" transform="translate(7.482 5.297)" opacity="0.494">
                      <g id="그룹_53571" data-name="그룹 53571">
                        <g id="그룹_53570" data-name="그룹 53570" clip-path="url(#clip-path-11)">
                          <path id="패스_63997" data-name="패스 63997" d="M43.7,40.261H20.78A14.218,14.218,0,0,1,6.562,26.043v-7.18A14.218,14.218,0,0,1,20.78,4.646H43.7A14.218,14.218,0,0,1,57.917,18.864v7.18A14.218,14.218,0,0,1,43.7,40.261" transform="translate(-6.563 -4.646)" fill="#fceef3"/>
                        </g>
                      </g>
                    </g>
                    <g id="그룹_53575" data-name="그룹 53575" transform="translate(8.551 6.054)" opacity="0.55">
                      <g id="그룹_53574" data-name="그룹 53574">
                        <g id="그룹_53573" data-name="그룹 53573" clip-path="url(#clip-path-12)">
                          <path id="패스_63998" data-name="패스 63998" d="M43.6,39.177H21.188A13.688,13.688,0,0,1,7.5,25.489V19A13.688,13.688,0,0,1,21.188,5.31H43.6A13.689,13.689,0,0,1,57.287,19v6.491A13.689,13.689,0,0,1,43.6,39.177" transform="translate(-7.5 -5.31)" fill="#fbebf1"/>
                        </g>
                      </g>
                    </g>
                    <g id="그룹_53578" data-name="그룹 53578" transform="translate(9.62 6.811)" opacity="0.606">
                      <g id="그룹_53577" data-name="그룹 53577">
                        <g id="그룹_53576" data-name="그룹 53576" clip-path="url(#clip-path-13)">
                          <path id="패스_63999" data-name="패스 63999" d="M43.5,38.095H21.6A13.158,13.158,0,0,1,8.438,24.936v-5.8A13.158,13.158,0,0,1,21.6,5.974H43.5A13.158,13.158,0,0,1,56.656,19.133v5.8A13.158,13.158,0,0,1,43.5,38.095" transform="translate(-8.437 -5.973)" fill="#fbe9ef"/>
                        </g>
                      </g>
                    </g>
                    <g id="그룹_53581" data-name="그룹 53581" transform="translate(10.689 7.567)" opacity="0.663">
                      <g id="그룹_53580" data-name="그룹 53580">
                        <g id="그룹_53579" data-name="그룹 53579" clip-path="url(#clip-path-14)">
                          <path id="패스_64000" data-name="패스 64000" d="M43.4,37.011H22a12.63,12.63,0,0,1-12.63-12.63V19.267A12.63,12.63,0,0,1,22,6.637H43.4a12.629,12.629,0,0,1,12.63,12.63v5.115A12.629,12.629,0,0,1,43.4,37.011" transform="translate(-9.375 -6.637)" fill="#fae6ee"/>
                        </g>
                      </g>
                    </g>
                    <g id="그룹_53584" data-name="그룹 53584" transform="translate(11.758 8.324)" opacity="0.719">
                      <g id="그룹_53583" data-name="그룹 53583">
                        <g id="그룹_53582" data-name="그룹 53582" clip-path="url(#clip-path-15)">
                          <path id="패스_64001" data-name="패스 64001" d="M43.3,35.927H22.412a12.1,12.1,0,0,1-12.1-12.1V19.4a12.1,12.1,0,0,1,12.1-12.1H43.3A12.1,12.1,0,0,1,55.4,19.4v4.426a12.1,12.1,0,0,1-12.1,12.1" transform="translate(-10.313 -7.301)" fill="#fae4ec"/>
                        </g>
                      </g>
                    </g>
                    <g id="그룹_53587" data-name="그룹 53587" transform="translate(12.827 9.081)" opacity="0.775">
                      <g id="그룹_53586" data-name="그룹 53586">
                        <g id="그룹_53585" data-name="그룹 53585" clip-path="url(#clip-path-16)">
                          <path id="패스_64002" data-name="패스 64002" d="M43.195,34.844H22.821A11.572,11.572,0,0,1,11.25,23.273V19.535A11.571,11.571,0,0,1,22.821,7.965H43.195a11.571,11.571,0,0,1,11.571,11.57v3.737A11.572,11.572,0,0,1,43.195,34.844" transform="translate(-11.25 -7.964)" fill="#f9e1ea"/>
                        </g>
                      </g>
                    </g>
                    <g id="그룹_53590" data-name="그룹 53590" transform="translate(13.896 9.838)" opacity="0.831">
                      <g id="그룹_53589" data-name="그룹 53589">
                        <g id="그룹_53588" data-name="그룹 53588" clip-path="url(#clip-path-17)">
                          <path id="패스_64003" data-name="패스 64003" d="M43.094,33.761H23.229A11.042,11.042,0,0,1,12.188,22.719v-3.05A11.042,11.042,0,0,1,23.229,8.628H43.094A11.041,11.041,0,0,1,54.136,19.669v3.05A11.041,11.041,0,0,1,43.094,33.761" transform="translate(-12.187 -8.628)" fill="#f9dfe8"/>
                        </g>
                      </g>
                    </g>
                    <g id="그룹_53593" data-name="그룹 53593" transform="translate(14.965 10.594)" opacity="0.887">
                      <g id="그룹_53592" data-name="그룹 53592">
                        <g id="그룹_53591" data-name="그룹 53591" clip-path="url(#clip-path-18)">
                          <path id="패스_64004" data-name="패스 64004" d="M42.993,32.678H23.637A10.513,10.513,0,0,1,13.124,22.166V19.8A10.513,10.513,0,0,1,23.637,9.292H42.993A10.512,10.512,0,0,1,53.5,19.8v2.361A10.512,10.512,0,0,1,42.993,32.678" transform="translate(-13.125 -9.292)" fill="#f8dce6"/>
                        </g>
                      </g>
                    </g>
                    <g id="그룹_53596" data-name="그룹 53596" transform="translate(16.033 11.351)" opacity="0.944">
                      <g id="그룹_53595" data-name="그룹 53595">
                        <g id="그룹_53594" data-name="그룹 53594" clip-path="url(#clip-path-19)">
                          <path id="패스_64005" data-name="패스 64005" d="M42.892,31.594H24.045a9.983,9.983,0,0,1-9.983-9.983V19.938a9.983,9.983,0,0,1,9.983-9.983H42.892a9.983,9.983,0,0,1,9.983,9.983v1.673a9.983,9.983,0,0,1-9.983,9.983" transform="translate(-14.063 -9.956)" fill="#f8dae5"/>
                        </g>
                      </g>
                    </g>
                    <g id="그룹_53599" data-name="그룹 53599" transform="translate(17.102 12.108)">
                      <g id="그룹_53598" data-name="그룹 53598">
                        <g id="그룹_53597" data-name="그룹 53597" clip-path="url(#clip-path-20)">
                          <path id="패스_64006" data-name="패스 64006" d="M42.791,30.511H24.454A9.454,9.454,0,0,1,15,21.057v-.984a9.453,9.453,0,0,1,9.454-9.453H42.791a9.454,9.454,0,0,1,9.454,9.453v.984a9.454,9.454,0,0,1-9.454,9.454" transform="translate(-15 -10.619)" fill="#f7d7e3"/>
                        </g>
                      </g>
                    </g>
                  </g>
                </g>
              </g>
            </g>
          </g>
        </g>
      </g>
      <g id="그룹_53548" data-name="그룹 53548" transform="translate(1449.121 641.987)">
        <g id="그룹_53547" data-name="그룹 53547" clip-path="url(#clip-path-21)">
          <g id="그룹_53408" data-name="그룹 53408" transform="translate(7.485 6.91)">
            <g id="그룹_53407" data-name="그룹 53407" clip-path="url(#clip-path-22)">
              <rect id="사각형_25858" data-name="사각형 25858" width="40.474" height="24.228" transform="translate(0 0)" fill="url(#linear-gradient)"/>
            </g>
          </g>
          <g id="그룹_53515" data-name="그룹 53515" transform="translate(7.485 6.91)">
            <g id="마스크_그룹_53514" data-name="마스크 그룹 53514" clip-path="url(#clip-path-22)">
              <g id="그룹_53459" data-name="그룹 53459" transform="translate(-7.485 -6.91)" style="mix-blend-mode: multiply;isolation: isolate">
                <g id="그룹_53458" data-name="그룹 53458" transform="translate(0 0)">
                  <g id="그룹_53457" data-name="그룹 53457" clip-path="url(#clip-path-24)">
                    <g id="그룹_53411" data-name="그룹 53411" opacity="0.4">
                      <g id="그룹_53410" data-name="그룹 53410">
                        <g id="그룹_53409" data-name="그룹 53409" clip-path="url(#clip-path-24)">
                          <path id="패스_63766" data-name="패스 63766" d="M25.083,12.542A12.542,12.542,0,1,1,12.542,0,12.542,12.542,0,0,1,25.083,12.542" transform="translate(0 0)" fill="#fff"/>
                        </g>
                      </g>
                    </g>
                    <g id="그룹_53414" data-name="그룹 53414" transform="translate(0.218 0.209)" opacity="0.438">
                      <g id="그룹_53413" data-name="그룹 53413">
                        <g id="그룹_53412" data-name="그룹 53412" clip-path="url(#clip-path-26)">
                          <path id="패스_63767" data-name="패스 63767" d="M24.784,12.481a12.3,12.3,0,1,1-12.3-12.3,12.3,12.3,0,0,1,12.3,12.3" transform="translate(-0.191 -0.184)" fill="#fefbfc"/>
                        </g>
                      </g>
                    </g>
                    <g id="그룹_53417" data-name="그룹 53417" transform="translate(0.436 0.419)" opacity="0.475">
                      <g id="그룹_53416" data-name="그룹 53416">
                        <g id="그룹_53415" data-name="그룹 53415" clip-path="url(#clip-path-27)">
                          <path id="패스_63768" data-name="패스 63768" d="M24.486,12.418A12.052,12.052,0,1,1,12.435.368a12.051,12.051,0,0,1,12.051,12.05" transform="translate(-0.382 -0.367)" fill="#fdf7f9"/>
                        </g>
                      </g>
                    </g>
                    <g id="그룹_53420" data-name="그룹 53420" transform="translate(0.654 0.628)" opacity="0.512">
                      <g id="그룹_53419" data-name="그룹 53419">
                        <g id="그룹_53418" data-name="그룹 53418" clip-path="url(#clip-path-28)">
                          <path id="패스_63769" data-name="패스 63769" d="M24.187,12.357A11.807,11.807,0,1,1,12.38.551,11.806,11.806,0,0,1,24.187,12.357" transform="translate(-0.573 -0.551)" fill="#fcf3f6"/>
                        </g>
                      </g>
                    </g>
                    <g id="그룹_53423" data-name="그룹 53423" transform="translate(0.872 0.837)" opacity="0.55">
                      <g id="그룹_53422" data-name="그룹 53422">
                        <g id="그룹_53421" data-name="그룹 53421" clip-path="url(#clip-path-29)">
                          <path id="패스_63770" data-name="패스 63770" d="M23.889,12.3A11.562,11.562,0,1,1,12.326.734,11.562,11.562,0,0,1,23.889,12.3" transform="translate(-0.764 -0.734)" fill="#fbeff3"/>
                        </g>
                      </g>
                    </g>
                    <g id="그룹_53426" data-name="그룹 53426" transform="translate(1.09 1.047)" opacity="0.587">
                      <g id="그룹_53425" data-name="그룹 53425">
                        <g id="그룹_53424" data-name="그룹 53424" clip-path="url(#clip-path-30)">
                          <path id="패스_63771" data-name="패스 63771" d="M23.589,12.235A11.317,11.317,0,1,1,12.272.918,11.317,11.317,0,0,1,23.589,12.235" transform="translate(-0.956 -0.918)" fill="#f9ebf0"/>
                        </g>
                      </g>
                    </g>
                    <g id="그룹_53429" data-name="그룹 53429" transform="translate(1.308 1.256)" opacity="0.625">
                      <g id="그룹_53428" data-name="그룹 53428">
                        <g id="그룹_53427" data-name="그룹 53427" clip-path="url(#clip-path-31)">
                          <path id="패스_63772" data-name="패스 63772" d="M23.291,12.173A11.072,11.072,0,1,1,12.219,1.1,11.072,11.072,0,0,1,23.291,12.173" transform="translate(-1.147 -1.102)" fill="#f8e7ed"/>
                        </g>
                      </g>
                    </g>
                    <g id="그룹_53432" data-name="그룹 53432" transform="translate(1.525 1.465)" opacity="0.663">
                      <g id="그룹_53431" data-name="그룹 53431">
                        <g id="그룹_53430" data-name="그룹 53430" clip-path="url(#clip-path-32)">
                          <path id="패스_63773" data-name="패스 63773" d="M22.992,12.112A10.827,10.827,0,1,1,12.165,1.285,10.827,10.827,0,0,1,22.992,12.112" transform="translate(-1.338 -1.285)" fill="#f7e3ea"/>
                        </g>
                      </g>
                    </g>
                    <g id="그룹_53435" data-name="그룹 53435" transform="translate(1.743 1.675)" opacity="0.7">
                      <g id="그룹_53434" data-name="그룹 53434">
                        <g id="그룹_53433" data-name="그룹 53433" clip-path="url(#clip-path-33)">
                          <path id="패스_63774" data-name="패스 63774" d="M22.694,12.051A10.582,10.582,0,1,1,12.112,1.469,10.581,10.581,0,0,1,22.694,12.051" transform="translate(-1.529 -1.469)" fill="#f6e0e7"/>
                        </g>
                      </g>
                    </g>
                    <g id="그룹_53438" data-name="그룹 53438" transform="translate(1.961 1.884)" opacity="0.738">
                      <g id="그룹_53437" data-name="그룹 53437">
                        <g id="그룹_53436" data-name="그룹 53436" clip-path="url(#clip-path-34)">
                          <path id="패스_63775" data-name="패스 63775" d="M22.394,11.99A10.337,10.337,0,1,1,12.058,1.653,10.337,10.337,0,0,1,22.394,11.99" transform="translate(-1.72 -1.652)" fill="#f5dce4"/>
                        </g>
                      </g>
                    </g>
                    <g id="그룹_53441" data-name="그룹 53441" transform="translate(2.179 2.093)" opacity="0.775">
                      <g id="그룹_53440" data-name="그룹 53440">
                        <g id="그룹_53439" data-name="그룹 53439" clip-path="url(#clip-path-35)">
                          <path id="패스_63776" data-name="패스 63776" d="M22.1,11.928A10.092,10.092,0,1,1,12,1.835,10.093,10.093,0,0,1,22.1,11.928" transform="translate(-1.911 -1.836)" fill="#f4d8e1"/>
                        </g>
                      </g>
                    </g>
                    <g id="그룹_53444" data-name="그룹 53444" transform="translate(2.397 2.303)" opacity="0.813">
                      <g id="그룹_53443" data-name="그룹 53443">
                        <g id="그룹_53442" data-name="그룹 53442" clip-path="url(#clip-path-36)">
                          <path id="패스_63777" data-name="패스 63777" d="M21.8,11.867a9.847,9.847,0,1,1-9.848-9.848A9.848,9.848,0,0,1,21.8,11.867" transform="translate(-2.102 -2.02)" fill="#f3d4de"/>
                        </g>
                      </g>
                    </g>
                    <g id="그룹_53447" data-name="그룹 53447" transform="translate(2.615 2.512)" opacity="0.85">
                      <g id="그룹_53446" data-name="그룹 53446">
                        <g id="그룹_53445" data-name="그룹 53445" clip-path="url(#clip-path-37)">
                          <path id="패스_63778" data-name="패스 63778" d="M21.5,11.805a9.6,9.6,0,1,1-9.6-9.6,9.6,9.6,0,0,1,9.6,9.6" transform="translate(-2.294 -2.203)" fill="#f2d0db"/>
                        </g>
                      </g>
                    </g>
                    <g id="그룹_53450" data-name="그룹 53450" transform="translate(2.833 2.721)" opacity="0.887">
                      <g id="그룹_53449" data-name="그룹 53449">
                        <g id="그룹_53448" data-name="그룹 53448" clip-path="url(#clip-path-38)">
                          <path id="패스_63779" data-name="패스 63779" d="M21.2,11.744a9.357,9.357,0,1,1-9.357-9.357A9.357,9.357,0,0,1,21.2,11.744" transform="translate(-2.485 -2.387)" fill="#f0ccd8"/>
                        </g>
                      </g>
                    </g>
                    <g id="그룹_53453" data-name="그룹 53453" transform="translate(3.051 2.931)" opacity="0.925">
                      <g id="그룹_53452" data-name="그룹 53452">
                        <g id="그룹_53451" data-name="그룹 53451" clip-path="url(#clip-path-39)">
                          <path id="패스_63780" data-name="패스 63780" d="M20.9,11.682A9.112,9.112,0,1,1,11.788,2.57,9.112,9.112,0,0,1,20.9,11.682" transform="translate(-2.676 -2.57)" fill="#efc8d5"/>
                        </g>
                      </g>
                    </g>
                    <g id="그룹_53456" data-name="그룹 53456" transform="translate(3.269 3.14)" opacity="0.962">
                      <g id="그룹_53455" data-name="그룹 53455">
                        <g id="그룹_53454" data-name="그룹 53454" clip-path="url(#clip-path-40)">
                          <path id="패스_63781" data-name="패스 63781" d="M20.6,11.621a8.868,8.868,0,1,1-8.867-8.867A8.867,8.867,0,0,1,20.6,11.621" transform="translate(-2.867 -2.754)" fill="#eec4d2"/>
                        </g>
                      </g>
                    </g>
                    <path id="패스_63782" data-name="패스 63782" d="M20.3,11.56a8.622,8.622,0,1,1-8.622-8.622A8.622,8.622,0,0,1,20.3,11.56" transform="translate(0.429 0.412)" fill="#edc0cf"/>
                  </g>
                </g>
              </g>
              <g id="그룹_53510" data-name="그룹 53510" transform="translate(3.854 13.779)" style="mix-blend-mode: multiply;isolation: isolate">
                <g id="그룹_53509" data-name="그룹 53509">
                  <g id="그룹_53508" data-name="그룹 53508" clip-path="url(#clip-path-41)">
                    <g id="그룹_53462" data-name="그룹 53462" opacity="0.4">
                      <g id="그룹_53461" data-name="그룹 53461">
                        <g id="그룹_53460" data-name="그룹 53460" clip-path="url(#clip-path-41)">
                          <path id="패스_63783" data-name="패스 63783" d="M31.663,28.478A10.606,10.606,0,0,1,20.8,38.812,10.606,10.606,0,0,1,9.945,28.478,10.606,10.606,0,0,1,20.8,18.145,10.606,10.606,0,0,1,31.663,28.478" transform="translate(-9.945 -18.146)" fill="#fff"/>
                        </g>
                      </g>
                    </g>
                    <g id="그룹_53465" data-name="그룹 53465" transform="translate(0.133 0.163)" opacity="0.438">
                      <g id="그룹_53464" data-name="그룹 53464">
                        <g id="그룹_53463" data-name="그룹 53463" clip-path="url(#clip-path-43)">
                          <path id="패스_63784" data-name="패스 63784" d="M31.355,28.42a10.4,10.4,0,0,1-10.647,10.13A10.4,10.4,0,0,1,10.063,28.42,10.4,10.4,0,0,1,20.709,18.29,10.4,10.4,0,0,1,31.355,28.42" transform="translate(-10.062 -18.289)" fill="#fefbfc"/>
                        </g>
                      </g>
                    </g>
                    <g id="그룹_53468" data-name="그룹 53468" transform="translate(0.267 0.327)" opacity="0.475">
                      <g id="그룹_53467" data-name="그룹 53467">
                        <g id="그룹_53466" data-name="그룹 53466" clip-path="url(#clip-path-44)">
                          <path id="패스_63785" data-name="패스 63785" d="M31.048,28.361A10.19,10.19,0,0,1,20.614,38.29,10.19,10.19,0,0,1,10.18,28.361a10.19,10.19,0,0,1,10.434-9.928,10.19,10.19,0,0,1,10.435,9.928" transform="translate(-10.179 -18.433)" fill="#fdf7f9"/>
                        </g>
                      </g>
                    </g>
                    <g id="그룹_53471" data-name="그룹 53471" transform="translate(0.4 0.491)" opacity="0.512">
                      <g id="그룹_53470" data-name="그룹 53470">
                        <g id="그룹_53469" data-name="그룹 53469" clip-path="url(#clip-path-45)">
                          <path id="패스_63786" data-name="패스 63786" d="M30.741,28.3A9.983,9.983,0,0,1,20.519,38.03,9.983,9.983,0,0,1,10.3,28.3a9.983,9.983,0,0,1,10.222-9.727A9.983,9.983,0,0,1,30.741,28.3" transform="translate(-10.296 -18.576)" fill="#fcf3f6"/>
                        </g>
                      </g>
                    </g>
                    <g id="그룹_53474" data-name="그룹 53474" transform="translate(0.533 0.654)" opacity="0.55">
                      <g id="그룹_53473" data-name="그룹 53473">
                        <g id="그룹_53472" data-name="그룹 53472" clip-path="url(#clip-path-46)">
                          <path id="패스_63787" data-name="패스 63787" d="M30.433,28.245A9.777,9.777,0,0,1,20.422,37.77a9.776,9.776,0,0,1-10.009-9.525A9.776,9.776,0,0,1,20.422,18.72a9.777,9.777,0,0,1,10.011,9.525" transform="translate(-10.413 -18.72)" fill="#fbeff3"/>
                        </g>
                      </g>
                    </g>
                    <g id="그룹_53477" data-name="그룹 53477" transform="translate(0.667 0.818)" opacity="0.587">
                      <g id="그룹_53476" data-name="그룹 53476">
                        <g id="그룹_53475" data-name="그룹 53475" clip-path="url(#clip-path-47)">
                          <path id="패스_63788" data-name="패스 63788" d="M30.126,28.186a9.57,9.57,0,0,1-9.8,9.323,9.569,9.569,0,0,1-9.8-9.323,9.569,9.569,0,0,1,9.8-9.323,9.57,9.57,0,0,1,9.8,9.323" transform="translate(-10.53 -18.863)" fill="#f9ebf0"/>
                        </g>
                      </g>
                    </g>
                    <g id="그룹_53480" data-name="그룹 53480" transform="translate(0.8 0.981)" opacity="0.625">
                      <g id="그룹_53479" data-name="그룹 53479">
                        <g id="그룹_53478" data-name="그룹 53478" clip-path="url(#clip-path-48)">
                          <path id="패스_63789" data-name="패스 63789" d="M29.819,28.128a9.362,9.362,0,0,1-9.586,9.121,9.361,9.361,0,0,1-9.585-9.121,9.361,9.361,0,0,1,9.585-9.121,9.362,9.362,0,0,1,9.586,9.121" transform="translate(-10.647 -19.006)" fill="#f8e7ed"/>
                        </g>
                      </g>
                    </g>
                    <g id="그룹_53483" data-name="그룹 53483" transform="translate(0.934 1.145)" opacity="0.663">
                      <g id="그룹_53482" data-name="그룹 53482">
                        <g id="그룹_53481" data-name="그룹 53481" clip-path="url(#clip-path-49)">
                          <path id="패스_63790" data-name="패스 63790" d="M29.512,28.069a9.155,9.155,0,0,1-9.374,8.919,9.155,9.155,0,0,1-9.373-8.919,9.155,9.155,0,0,1,9.373-8.919,9.155,9.155,0,0,1,9.374,8.919" transform="translate(-10.764 -19.15)" fill="#f7e3ea"/>
                        </g>
                      </g>
                    </g>
                    <g id="그룹_53486" data-name="그룹 53486" transform="translate(1.067 1.308)" opacity="0.7">
                      <g id="그룹_53485" data-name="그룹 53485">
                        <g id="그룹_53484" data-name="그룹 53484" clip-path="url(#clip-path-50)">
                          <path id="패스_63791" data-name="패스 63791" d="M29.2,28.012a8.948,8.948,0,0,1-9.162,8.718,8.947,8.947,0,0,1-9.161-8.718,8.947,8.947,0,0,1,9.161-8.718A8.948,8.948,0,0,1,29.2,28.012" transform="translate(-10.881 -19.293)" fill="#f6e0e7"/>
                        </g>
                      </g>
                    </g>
                    <g id="그룹_53489" data-name="그룹 53489" transform="translate(1.2 1.472)" opacity="0.738">
                      <g id="그룹_53488" data-name="그룹 53488">
                        <g id="그룹_53487" data-name="그룹 53487" clip-path="url(#clip-path-51)">
                          <path id="패스_63792" data-name="패스 63792" d="M28.9,27.953a8.741,8.741,0,0,1-8.95,8.516A8.74,8.74,0,0,1,11,27.953a8.74,8.74,0,0,1,8.949-8.516,8.741,8.741,0,0,1,8.95,8.516" transform="translate(-10.998 -19.437)" fill="#f5dce4"/>
                        </g>
                      </g>
                    </g>
                    <g id="그룹_53492" data-name="그룹 53492" transform="translate(1.334 1.635)" opacity="0.775">
                      <g id="그룹_53491" data-name="그룹 53491">
                        <g id="그룹_53490" data-name="그룹 53490" clip-path="url(#clip-path-52)">
                          <path id="패스_63793" data-name="패스 63793" d="M28.59,27.9a8.533,8.533,0,0,1-8.738,8.314A8.533,8.533,0,0,1,11.115,27.9a8.533,8.533,0,0,1,8.737-8.314A8.533,8.533,0,0,1,28.59,27.9" transform="translate(-11.115 -19.58)" fill="#f4d8e1"/>
                        </g>
                      </g>
                    </g>
                    <g id="그룹_53495" data-name="그룹 53495" transform="translate(1.467 1.799)" opacity="0.813">
                      <g id="그룹_53494" data-name="그룹 53494">
                        <g id="그룹_53493" data-name="그룹 53493" clip-path="url(#clip-path-53)">
                          <path id="패스_63794" data-name="패스 63794" d="M28.283,27.836a8.327,8.327,0,0,1-8.526,8.112,8.326,8.326,0,0,1-8.525-8.112,8.326,8.326,0,0,1,8.525-8.112,8.327,8.327,0,0,1,8.526,8.112" transform="translate(-11.232 -19.724)" fill="#f3d4de"/>
                        </g>
                      </g>
                    </g>
                    <g id="그룹_53498" data-name="그룹 53498" transform="translate(1.6 1.963)" opacity="0.85">
                      <g id="그룹_53497" data-name="그룹 53497">
                        <g id="그룹_53496" data-name="그룹 53496" clip-path="url(#clip-path-54)">
                          <path id="패스_63795" data-name="패스 63795" d="M27.976,27.778a8.12,8.12,0,0,1-8.314,7.91,8.119,8.119,0,0,1-8.313-7.91,8.119,8.119,0,0,1,8.313-7.91,8.12,8.12,0,0,1,8.314,7.91" transform="translate(-11.349 -19.867)" fill="#f2d0db"/>
                        </g>
                      </g>
                    </g>
                    <g id="그룹_53501" data-name="그룹 53501" transform="translate(1.734 2.126)" opacity="0.887">
                      <g id="그룹_53500" data-name="그룹 53500">
                        <g id="그룹_53499" data-name="그룹 53499" clip-path="url(#clip-path-55)">
                          <path id="패스_63796" data-name="패스 63796" d="M27.669,27.72a7.912,7.912,0,0,1-8.1,7.709,7.912,7.912,0,0,1-8.1-7.709,7.912,7.912,0,0,1,8.1-7.709,7.912,7.912,0,0,1,8.1,7.709" transform="translate(-11.466 -20.011)" fill="#f0ccd8"/>
                        </g>
                      </g>
                    </g>
                    <g id="그룹_53504" data-name="그룹 53504" transform="translate(1.867 2.29)" opacity="0.925">
                      <g id="그룹_53503" data-name="그룹 53503">
                        <g id="그룹_53502" data-name="그룹 53502" clip-path="url(#clip-path-56)">
                          <path id="패스_63797" data-name="패스 63797" d="M27.362,27.661a7.7,7.7,0,0,1-7.89,7.507,7.7,7.7,0,0,1-7.889-7.507,7.7,7.7,0,0,1,7.889-7.507,7.7,7.7,0,0,1,7.89,7.507" transform="translate(-11.583 -20.154)" fill="#efc8d5"/>
                        </g>
                      </g>
                    </g>
                    <g id="그룹_53507" data-name="그룹 53507" transform="translate(2 2.453)" opacity="0.962">
                      <g id="그룹_53506" data-name="그룹 53506">
                        <g id="그룹_53505" data-name="그룹 53505" clip-path="url(#clip-path-57)">
                          <path id="패스_63798" data-name="패스 63798" d="M27.055,27.6a7.5,7.5,0,0,1-7.678,7.3A7.5,7.5,0,0,1,11.7,27.6a7.5,7.5,0,0,1,7.677-7.3,7.5,7.5,0,0,1,7.678,7.3" transform="translate(-11.7 -20.297)" fill="#eec4d2"/>
                        </g>
                      </g>
                    </g>
                    <path id="패스_63799" data-name="패스 63799" d="M26.747,27.544a7.291,7.291,0,0,1-7.466,7.1,7.29,7.29,0,0,1-7.465-7.1,7.29,7.29,0,0,1,7.465-7.1,7.291,7.291,0,0,1,7.466,7.1" transform="translate(-9.683 -17.824)" fill="#edc0cf"/>
                  </g>
                </g>
              </g>
              <g id="그룹_53513" data-name="그룹 53513" transform="translate(-0.357 -0.001)" style="mix-blend-mode: screen;isolation: isolate">
                <g id="그룹_53511" data-name="그룹 53511" clip-path="url(#clip-path-58)">
                  <path id="패스_63800" data-name="패스 63800" d="M43.619,30.288H9.984a3.42,3.42,0,0,1-3.42-3.42V9.48a3.42,3.42,0,0,1,3.42-3.42H43.619a3.42,3.42,0,0,1,3.42,3.42V26.868a3.42,3.42,0,0,1-3.42,3.42" transform="translate(-6.208 -6.06)" fill="#fd698f"/>
                  <path id="패스_63801" data-name="패스 63801" d="M43.618,30.3H9.969a3.413,3.413,0,0,1-3.414-3.412V9.481A3.413,3.413,0,0,1,9.969,6.069H43.618a3.412,3.412,0,0,1,3.412,3.412v17.4A3.412,3.412,0,0,1,43.618,30.3" transform="translate(-6.209 -6.059)" fill="#fd698f"/>
                  <path id="패스_63802" data-name="패스 63802" d="M43.616,30.306H9.952A3.405,3.405,0,0,1,6.546,26.9V9.484A3.405,3.405,0,0,1,9.952,6.078H43.616a3.405,3.405,0,0,1,3.406,3.406V26.9a3.405,3.405,0,0,1-3.406,3.406" transform="translate(-6.211 -6.058)" fill="#fd698f"/>
                  <path id="패스_63803" data-name="패스 63803" d="M43.615,30.316H9.936a3.4,3.4,0,0,1-3.4-3.4V9.486a3.4,3.4,0,0,1,3.4-3.4H43.615a3.4,3.4,0,0,1,3.4,3.4V26.919a3.4,3.4,0,0,1-3.4,3.4" transform="translate(-6.212 -6.056)" fill="#fd698f"/>
                  <path id="패스_63804" data-name="패스 63804" d="M43.613,30.325H9.919a3.39,3.39,0,0,1-3.391-3.391V9.488A3.39,3.39,0,0,1,9.919,6.1H43.613A3.391,3.391,0,0,1,47,9.488V26.935a3.391,3.391,0,0,1-3.391,3.391" transform="translate(-6.213 -6.055)" fill="#fd698f"/>
                  <path id="패스_63805" data-name="패스 63805" d="M43.611,30.334H9.9a3.384,3.384,0,0,1-3.384-3.383V9.489A3.384,3.384,0,0,1,9.9,6.106H43.611a3.383,3.383,0,0,1,3.383,3.383V26.952a3.383,3.383,0,0,1-3.383,3.383" transform="translate(-6.215 -6.054)" fill="#fd698f"/>
                  <path id="패스_63806" data-name="패스 63806" d="M43.61,30.343H9.886A3.376,3.376,0,0,1,6.51,26.967V9.491A3.376,3.376,0,0,1,9.886,6.115H43.61a3.376,3.376,0,0,1,3.376,3.376V26.967a3.376,3.376,0,0,1-3.376,3.376" transform="translate(-6.216 -6.053)" fill="#fd698f"/>
                  <path id="패스_63807" data-name="패스 63807" d="M43.608,30.352H9.869A3.369,3.369,0,0,1,6.5,26.984V9.492A3.369,3.369,0,0,1,9.869,6.124H43.608a3.368,3.368,0,0,1,3.368,3.368V26.984a3.368,3.368,0,0,1-3.368,3.368" transform="translate(-6.217 -6.051)" fill="#fd698f"/>
                  <path id="패스_63808" data-name="패스 63808" d="M43.606,30.361H9.853A3.361,3.361,0,0,1,6.492,27V9.494A3.361,3.361,0,0,1,9.853,6.133H43.606a3.361,3.361,0,0,1,3.361,3.361V27a3.361,3.361,0,0,1-3.361,3.361" transform="translate(-6.218 -6.05)" fill="#fd698f"/>
                  <path id="패스_63809" data-name="패스 63809" d="M43.6,30.37H9.836a3.354,3.354,0,0,1-3.354-3.353V9.5A3.354,3.354,0,0,1,9.836,6.142H43.6A3.354,3.354,0,0,1,46.958,9.5V27.017A3.354,3.354,0,0,1,43.6,30.37" transform="translate(-6.22 -6.049)" fill="#fd698f"/>
                  <path id="패스_63810" data-name="패스 63810" d="M43.6,30.379H9.819a3.346,3.346,0,0,1-3.346-3.346V9.5A3.346,3.346,0,0,1,9.819,6.151H43.6A3.346,3.346,0,0,1,46.949,9.5V27.033A3.346,3.346,0,0,1,43.6,30.379" transform="translate(-6.221 -6.048)" fill="#fd698f"/>
                  <path id="패스_63811" data-name="패스 63811" d="M43.6,30.389H9.8a3.339,3.339,0,0,1-3.34-3.338V9.5A3.339,3.339,0,0,1,9.8,6.161H43.6A3.339,3.339,0,0,1,46.94,9.5V27.051A3.339,3.339,0,0,1,43.6,30.389" transform="translate(-6.222 -6.046)" fill="#fd698f"/>
                  <path id="패스_63812" data-name="패스 63812" d="M43.6,30.4H9.787a3.331,3.331,0,0,1-3.332-3.332V9.5A3.331,3.331,0,0,1,9.787,6.17H43.6A3.331,3.331,0,0,1,46.931,9.5V27.067A3.331,3.331,0,0,1,43.6,30.4" transform="translate(-6.223 -6.045)" fill="#fd698f"/>
                  <path id="패스_63813" data-name="패스 63813" d="M43.6,30.407H9.771a3.324,3.324,0,0,1-3.325-3.324V9.5A3.324,3.324,0,0,1,9.771,6.179H43.6A3.323,3.323,0,0,1,46.922,9.5V27.084A3.323,3.323,0,0,1,43.6,30.407" transform="translate(-6.225 -6.044)" fill="#fd698f"/>
                  <path id="패스_63814" data-name="패스 63814" d="M43.6,30.416H9.754A3.316,3.316,0,0,1,6.437,27.1V9.5A3.316,3.316,0,0,1,9.754,6.188H43.6A3.316,3.316,0,0,1,46.913,9.5V27.1A3.316,3.316,0,0,1,43.6,30.416" transform="translate(-6.226 -6.042)" fill="#fd698f"/>
                  <path id="패스_63815" data-name="패스 63815" d="M43.594,30.425H9.737a3.309,3.309,0,0,1-3.31-3.309V9.506A3.309,3.309,0,0,1,9.737,6.2H43.594A3.308,3.308,0,0,1,46.9,9.506V27.117a3.308,3.308,0,0,1-3.309,3.309" transform="translate(-6.227 -6.041)" fill="#fd698f"/>
                  <path id="패스_63816" data-name="패스 63816" d="M43.593,30.434H9.721a3.3,3.3,0,0,1-3.3-3.3V9.508a3.3,3.3,0,0,1,3.3-3.3H43.593a3.3,3.3,0,0,1,3.3,3.3V27.132a3.3,3.3,0,0,1-3.3,3.3" transform="translate(-6.228 -6.04)" fill="#fd698f"/>
                  <path id="패스_63817" data-name="패스 63817" d="M43.582,30.445H9.71a3.3,3.3,0,0,1-3.3-3.3V9.519a3.3,3.3,0,0,1,3.3-3.3H43.582a3.3,3.3,0,0,1,3.3,3.3V27.143a3.3,3.3,0,0,1-3.3,3.3" transform="translate(-6.23 -6.038)" fill="#ed6286"/>
                  <path id="패스_63818" data-name="패스 63818" d="M43.572,30.455H9.7a3.3,3.3,0,0,1-3.3-3.3V9.529a3.3,3.3,0,0,1,3.3-3.3H43.572a3.3,3.3,0,0,1,3.3,3.3V27.153a3.3,3.3,0,0,1-3.3,3.3" transform="translate(-6.231 -6.037)" fill="#dd5c7d"/>
                  <path id="패스_63819" data-name="패스 63819" d="M43.562,30.465H9.69a3.3,3.3,0,0,1-3.3-3.3V9.539a3.3,3.3,0,0,1,3.3-3.3H43.562a3.3,3.3,0,0,1,3.3,3.3V27.163a3.3,3.3,0,0,1-3.3,3.3" transform="translate(-6.233 -6.036)" fill="#ce5574"/>
                  <path id="패스_63820" data-name="패스 63820" d="M43.551,30.476H9.679a3.3,3.3,0,0,1-3.3-3.3V9.55a3.3,3.3,0,0,1,3.3-3.3H43.551a3.3,3.3,0,0,1,3.3,3.3V27.174a3.3,3.3,0,0,1-3.3,3.3" transform="translate(-6.234 -6.034)" fill="#be4f6b"/>
                  <path id="패스_63821" data-name="패스 63821" d="M43.541,30.486H9.669a3.3,3.3,0,0,1-3.3-3.3V9.56a3.3,3.3,0,0,1,3.3-3.3H43.541a3.3,3.3,0,0,1,3.3,3.3V27.184a3.3,3.3,0,0,1-3.3,3.3" transform="translate(-6.236 -6.033)" fill="#ae4862"/>
                  <path id="패스_63822" data-name="패스 63822" d="M43.53,30.5H9.658a3.3,3.3,0,0,1-3.3-3.3V9.571a3.3,3.3,0,0,1,3.3-3.3H43.53a3.3,3.3,0,0,1,3.3,3.3V27.2a3.3,3.3,0,0,1-3.3,3.3" transform="translate(-6.237 -6.031)" fill="#9e4259"/>
                  <path id="패스_63823" data-name="패스 63823" d="M43.52,30.507H9.648a3.3,3.3,0,0,1-3.3-3.3V9.581a3.3,3.3,0,0,1,3.3-3.3H43.52a3.3,3.3,0,0,1,3.3,3.3V27.205a3.3,3.3,0,0,1-3.3,3.3" transform="translate(-6.239 -6.03)" fill="#8e3b50"/>
                  <path id="패스_63824" data-name="패스 63824" d="M43.509,30.517H9.637a3.3,3.3,0,0,1-3.3-3.3V9.591a3.3,3.3,0,0,1,3.3-3.3H43.509a3.3,3.3,0,0,1,3.3,3.3V27.215a3.3,3.3,0,0,1-3.3,3.3" transform="translate(-6.24 -6.028)" fill="#7f3548"/>
                  <path id="패스_63825" data-name="패스 63825" d="M43.5,30.528H9.627a3.3,3.3,0,0,1-3.3-3.3V9.6a3.3,3.3,0,0,1,3.3-3.3H43.5a3.3,3.3,0,0,1,3.3,3.3V27.226a3.3,3.3,0,0,1-3.3,3.3" transform="translate(-6.242 -6.027)" fill="#6f2e3f"/>
                  <path id="패스_63826" data-name="패스 63826" d="M43.489,30.538H9.617a3.3,3.3,0,0,1-3.3-3.3V9.612a3.3,3.3,0,0,1,3.3-3.3H43.489a3.3,3.3,0,0,1,3.3,3.3V27.236a3.3,3.3,0,0,1-3.3,3.3" transform="translate(-6.243 -6.025)" fill="#5f2736"/>
                  <path id="패스_63827" data-name="패스 63827" d="M43.478,30.549H9.606a3.3,3.3,0,0,1-3.3-3.3V9.623a3.3,3.3,0,0,1,3.3-3.3H43.478a3.3,3.3,0,0,1,3.3,3.3V27.247a3.3,3.3,0,0,1-3.3,3.3" transform="translate(-6.245 -6.024)" fill="#4f212d"/>
                  <path id="패스_63828" data-name="패스 63828" d="M43.468,30.559H9.6a3.3,3.3,0,0,1-3.3-3.3V9.633a3.3,3.3,0,0,1,3.3-3.3H43.468a3.3,3.3,0,0,1,3.3,3.3V27.257a3.3,3.3,0,0,1-3.3,3.3" transform="translate(-6.246 -6.022)" fill="#3f1a24"/>
                  <path id="패스_63829" data-name="패스 63829" d="M43.457,30.57H9.585a3.3,3.3,0,0,1-3.3-3.3V9.644a3.3,3.3,0,0,1,3.3-3.3H43.457a3.3,3.3,0,0,1,3.3,3.3V27.268a3.3,3.3,0,0,1-3.3,3.3" transform="translate(-6.248 -6.021)" fill="#2f141b"/>
                  <path id="패스_63830" data-name="패스 63830" d="M43.447,30.58H9.575a3.3,3.3,0,0,1-3.3-3.3V9.654a3.3,3.3,0,0,1,3.3-3.3H43.447a3.3,3.3,0,0,1,3.3,3.3V27.278a3.3,3.3,0,0,1-3.3,3.3" transform="translate(-6.249 -6.019)" fill="#200d12"/>
                  <path id="패스_63831" data-name="패스 63831" d="M43.437,30.59H9.565a3.3,3.3,0,0,1-3.3-3.3V9.664a3.3,3.3,0,0,1,3.3-3.3H43.437a3.3,3.3,0,0,1,3.3,3.3V27.288a3.3,3.3,0,0,1-3.3,3.3" transform="translate(-6.25 -6.018)" fill="#100709"/>
                  <path id="패스_63832" data-name="패스 63832" d="M43.426,30.6H9.554a3.3,3.3,0,0,1-3.3-3.3V9.675a3.3,3.3,0,0,1,3.3-3.3H43.426a3.3,3.3,0,0,1,3.3,3.3V27.3a3.3,3.3,0,0,1-3.3,3.3" transform="translate(-6.252 -6.016)"/>
                </g>
              </g>
            </g>
          </g>
          <g id="그룹_53523" data-name="그룹 53523" transform="translate(0 0)">
            <g id="그룹_53522" data-name="그룹 53522" clip-path="url(#clip-path-59)">
              <g id="그룹_53518" data-name="그룹 53518" transform="translate(26.392 20.699)" style="mix-blend-mode: multiply;isolation: isolate">
                <g id="그룹_53517" data-name="그룹 53517">
                  <g id="그룹_53516" data-name="그룹 53516" clip-path="url(#clip-path-60)">
                    <path id="패스_63833" data-name="패스 63833" d="M24.679,22a1.974,1.974,0,0,1,0-3.848H38.618a2.006,2.006,0,0,1,0,3.848Z" transform="translate(-23.148 -18.154)" fill="#fff"/>
                    <path id="패스_63834" data-name="패스 63834" d="M24.774,21.9a1.889,1.889,0,0,1,0-3.688h13.68a1.917,1.917,0,0,1,0,3.688Z" transform="translate(-23.127 -18.147)" fill="#fefbfc"/>
                    <path id="패스_63835" data-name="패스 63835" d="M24.869,21.789a1.8,1.8,0,0,1,0-3.53H38.291a1.83,1.83,0,0,1,0,3.53Z" transform="translate(-23.107 -18.139)" fill="#fcf8f9"/>
                    <path id="패스_63836" data-name="패스 63836" d="M24.964,21.683a1.72,1.72,0,0,1,0-3.37H38.128a1.742,1.742,0,0,1,0,3.37Z" transform="translate(-23.086 -18.132)" fill="#fbf4f6"/>
                    <path id="패스_63837" data-name="패스 63837" d="M25.06,21.577a1.636,1.636,0,0,1,0-3.212H37.965a1.655,1.655,0,0,1,0,3.212Z" transform="translate(-23.065 -18.125)" fill="#f9f1f3"/>
                    <path id="패스_63838" data-name="패스 63838" d="M25.155,21.47a1.551,1.551,0,0,1,0-3.052H37.8a1.568,1.568,0,0,1,0,3.052Z" transform="translate(-23.045 -18.117)" fill="#f8edf1"/>
                    <path id="패스_63839" data-name="패스 63839" d="M25.25,21.364a1.468,1.468,0,0,1,0-2.894H37.639a1.482,1.482,0,0,1,0,2.894Z" transform="translate(-23.024 -18.11)" fill="#f6e9ee"/>
                    <path id="패스_63840" data-name="패스 63840" d="M25.344,21.257a1.384,1.384,0,0,1,0-2.734H37.476a1.4,1.4,0,0,1,0,2.734Z" transform="translate(-23.003 -18.102)" fill="#f5e6eb"/>
                    <path id="패스_63841" data-name="패스 63841" d="M25.44,21.152a1.3,1.3,0,0,1,0-2.576H37.313a1.31,1.31,0,0,1,0,2.576Z" transform="translate(-22.983 -18.095)" fill="#f3e2e8"/>
                    <path id="패스_63842" data-name="패스 63842" d="M25.536,21.045a1.218,1.218,0,0,1,0-2.416H37.15a1.225,1.225,0,0,1,0,2.416Z" transform="translate(-22.962 -18.088)" fill="#f2dee5"/>
                    <path id="패스_63843" data-name="패스 63843" d="M25.63,20.939a1.136,1.136,0,0,1,0-2.258H36.987a1.141,1.141,0,0,1,0,2.258Z" transform="translate(-22.941 -18.08)" fill="#f1dbe2"/>
                    <path id="패스_63844" data-name="패스 63844" d="M25.726,20.832a1.053,1.053,0,0,1,0-2.1h11.1a1.057,1.057,0,0,1,0,2.1Z" transform="translate(-22.921 -18.073)" fill="#efd7df"/>
                    <path id="패스_63845" data-name="패스 63845" d="M25.82,20.725a.972.972,0,0,1,0-1.939H36.661a.974.974,0,0,1,0,1.939Z" transform="translate(-22.9 -18.066)" fill="#eed4dd"/>
                    <path id="패스_63846" data-name="패스 63846" d="M25.916,20.62a.891.891,0,0,1,0-1.78H36.5a.892.892,0,0,1,0,1.78Z" transform="translate(-22.88 -18.058)" fill="#ecd0da"/>
                    <path id="패스_63847" data-name="패스 63847" d="M26.011,20.513a.811.811,0,0,1,0-1.621H36.335a.811.811,0,0,1,0,1.621Z" transform="translate(-22.859 -18.051)" fill="#ebccd7"/>
                    <path id="패스_63848" data-name="패스 63848" d="M26.106,20.407a.731.731,0,1,1,0-1.462H36.173a.731.731,0,1,1,0,1.462Z" transform="translate(-22.838 -18.043)" fill="#e9c9d4"/>
                    <path id="패스_63849" data-name="패스 63849" d="M26.2,20.3a.653.653,0,1,1,0-1.3h9.808a.653.653,0,1,1,0,1.3Z" transform="translate(-22.818 -18.036)" fill="#e8c5d1"/>
                  </g>
                </g>
              </g>
              <g id="그룹_53521" data-name="그룹 53521" transform="translate(26.297 15.283)" style="mix-blend-mode: multiply;isolation: isolate">
                <g id="그룹_53520" data-name="그룹 53520">
                  <g id="그룹_53519" data-name="그룹 53519" clip-path="url(#clip-path-61)">
                    <path id="패스_63850" data-name="패스 63850" d="M24.913,17.252a2.127,2.127,0,0,1-1.849-1.923A2.129,2.129,0,0,1,24.913,13.4H41.38a2.03,2.03,0,0,1,1.738,1.925,2.029,2.029,0,0,1-1.738,1.923Z" transform="translate(-23.064 -13.404)" fill="#fff"/>
                    <path id="패스_63851" data-name="패스 63851" d="M25.029,17.145A2.039,2.039,0,0,1,23.242,15.3a2.039,2.039,0,0,1,1.787-1.845H41.182A1.947,1.947,0,0,1,42.865,15.3a1.947,1.947,0,0,1-1.683,1.844Z" transform="translate(-23.04 -13.397)" fill="#fefbfc"/>
                    <path id="패스_63852" data-name="패스 63852" d="M25.143,17.039a1.951,1.951,0,0,1-1.723-1.765,1.952,1.952,0,0,1,1.723-1.765H40.985a1.866,1.866,0,0,1,1.626,1.765,1.865,1.865,0,0,1-1.626,1.765Z" transform="translate(-23.015 -13.389)" fill="#fcf8f9"/>
                    <path id="패스_63853" data-name="패스 63853" d="M25.258,16.933a1.862,1.862,0,0,1-1.66-1.685,1.863,1.863,0,0,1,1.66-1.685H40.789a1.783,1.783,0,0,1,1.57,1.685,1.782,1.782,0,0,1-1.57,1.685Z" transform="translate(-22.99 -13.382)" fill="#fbf4f6"/>
                    <path id="패스_63854" data-name="패스 63854" d="M25.373,16.827a1.777,1.777,0,0,1-1.6-1.605,1.778,1.778,0,0,1,1.6-1.606H40.591a1.7,1.7,0,0,1,1.514,1.606,1.7,1.7,0,0,1-1.514,1.605Z" transform="translate(-22.965 -13.375)" fill="#f9f1f3"/>
                    <path id="패스_63855" data-name="패스 63855" d="M25.488,16.72a1.688,1.688,0,0,1-1.535-1.526,1.688,1.688,0,0,1,1.535-1.527H40.4a1.619,1.619,0,0,1,1.458,1.527A1.619,1.619,0,0,1,40.4,16.72Z" transform="translate(-22.94 -13.367)" fill="#f8edf1"/>
                    <path id="패스_63856" data-name="패스 63856" d="M25.6,16.614a1.6,1.6,0,0,1-1.472-1.447A1.6,1.6,0,0,1,25.6,13.72H40.2a1.538,1.538,0,0,1,1.4,1.447,1.538,1.538,0,0,1-1.4,1.447Z" transform="translate(-22.915 -13.36)" fill="#f6e9ee"/>
                    <path id="패스_63857" data-name="패스 63857" d="M25.717,16.507a1.515,1.515,0,0,1-1.409-1.367,1.516,1.516,0,0,1,1.409-1.367H40a1.458,1.458,0,0,1,1.347,1.367A1.457,1.457,0,0,1,40,16.507Z" transform="translate(-22.89 -13.352)" fill="#f5e6eb"/>
                    <path id="패스_63858" data-name="패스 63858" d="M25.832,16.4a1.428,1.428,0,0,1-1.345-1.287,1.429,1.429,0,0,1,1.345-1.288H39.805a1.378,1.378,0,0,1,1.29,1.288,1.377,1.377,0,0,1-1.29,1.287Z" transform="translate(-22.865 -13.345)" fill="#f3e2e8"/>
                    <path id="패스_63859" data-name="패스 63859" d="M25.948,16.295a1.343,1.343,0,0,1-1.283-1.207,1.344,1.344,0,0,1,1.283-1.209h13.66a1.3,1.3,0,0,1,1.235,1.209,1.3,1.3,0,0,1-1.235,1.207Z" transform="translate(-22.84 -13.338)" fill="#f2dee5"/>
                    <path id="패스_63860" data-name="패스 63860" d="M26.062,16.189a1.259,1.259,0,0,1-1.22-1.129,1.259,1.259,0,0,1,1.22-1.129H39.411a1.219,1.219,0,0,1,1.178,1.129,1.219,1.219,0,0,1-1.178,1.129Z" transform="translate(-22.815 -13.33)" fill="#f1dbe2"/>
                    <path id="패스_63861" data-name="패스 63861" d="M26.177,16.082a1.174,1.174,0,0,1-1.157-1.049,1.175,1.175,0,0,1,1.157-1.049H39.214a1.142,1.142,0,0,1,1.123,1.049,1.141,1.141,0,0,1-1.123,1.049Z" transform="translate(-22.79 -13.323)" fill="#efd7df"/>
                    <path id="패스_63862" data-name="패스 63862" d="M26.292,15.975a1.091,1.091,0,0,1-1.095-.969,1.092,1.092,0,0,1,1.095-.97H39.017a1.064,1.064,0,0,1,1.066.97,1.063,1.063,0,0,1-1.066.969Z" transform="translate(-22.765 -13.316)" fill="#eed4dd"/>
                    <path id="패스_63863" data-name="패스 63863" d="M26.407,15.87a1.009,1.009,0,0,1-1.032-.889,1.009,1.009,0,0,1,1.032-.89H38.821a.987.987,0,0,1,1.01.89.987.987,0,0,1-1.01.889Z" transform="translate(-22.741 -13.308)" fill="#ecd0da"/>
                    <path id="패스_63864" data-name="패스 63864" d="M26.522,15.763a.926.926,0,0,1-.968-.811.926.926,0,0,1,.968-.811h12.1a.912.912,0,0,1,.954.811.912.912,0,0,1-.954.811Z" transform="translate(-22.715 -13.301)" fill="#ebccd7"/>
                    <path id="패스_63865" data-name="패스 63865" d="M26.636,15.657a.845.845,0,0,1-.905-.731.846.846,0,0,1,.905-.731h11.79a.839.839,0,0,1,.9.731.838.838,0,0,1-.9.731Z" transform="translate(-22.691 -13.293)" fill="#e9c9d4"/>
                    <path id="패스_63866" data-name="패스 63866" d="M26.752,15.55a.766.766,0,0,1-.843-.651.767.767,0,0,1,.843-.652H38.23a.767.767,0,0,1,.843.652.766.766,0,0,1-.843.651Z" transform="translate(-22.666 -13.286)" fill="#e8c5d1"/>
                  </g>
                </g>
              </g>
              <path id="패스_63867" data-name="패스 63867" d="M25.653,15.353a1.082,1.082,0,0,1,0-2.163H39.842a1.082,1.082,0,0,1,0,2.163Z" transform="translate(3.446 1.849)" fill="#fff"/>
              <path id="패스_63868" data-name="패스 63868" d="M25.653,20.1a1.082,1.082,0,0,1,0-2.164H36.822a1.082,1.082,0,0,1,0,2.164Z" transform="translate(3.446 2.514)" fill="#fff"/>
            </g>
          </g>
          <g id="그룹_53525" data-name="그룹 53525" transform="translate(5.858 4.107)">
            <g id="그룹_53524" data-name="그룹 53524" clip-path="url(#clip-path-62)">
              <rect id="사각형_25899" data-name="사각형 25899" width="14.485" height="14.485" transform="translate(0 0)" fill="url(#linear-gradient-2)"/>
            </g>
          </g>
          <g id="그룹_53533" data-name="그룹 53533" transform="translate(5.858 4.107)">
            <g id="그룹_53532" data-name="그룹 53532" clip-path="url(#clip-path-62)">
              <g id="그룹_53528" data-name="그룹 53528" transform="translate(-0.969 0.779)" style="mix-blend-mode: multiply;isolation: isolate">
                <g id="그룹_53527" data-name="그룹 53527">
                  <g id="그룹_53526" data-name="그룹 53526" clip-path="url(#clip-path-64)">
                    <path id="패스_63870" data-name="패스 63870" d="M19.85,22.731H9.72A5.431,5.431,0,0,1,4.289,17.3V9.718A5.431,5.431,0,0,1,9.72,4.286H19.85a5.432,5.432,0,0,1,5.432,5.432V17.3a5.432,5.432,0,0,1-5.432,5.432" transform="translate(-4.288 -4.285)" fill="#fff"/>
                    <path id="패스_63871" data-name="패스 63871" d="M19.8,22.6H9.9A5.305,5.305,0,0,1,4.6,17.29V9.881A5.3,5.3,0,0,1,9.9,4.576h9.9a5.306,5.306,0,0,1,5.306,5.305V17.29A5.306,5.306,0,0,1,19.8,22.6" transform="translate(-4.245 -4.245)" fill="#fffdfd"/>
                    <path id="패스_63872" data-name="패스 63872" d="M19.758,22.46H10.084A5.18,5.18,0,0,1,4.9,17.28V10.045a5.18,5.18,0,0,1,5.18-5.18h9.674a5.18,5.18,0,0,1,5.18,5.18V17.28a5.18,5.18,0,0,1-5.18,5.18" transform="translate(-4.202 -4.204)" fill="#fffafc"/>
                    <path id="패스_63873" data-name="패스 63873" d="M19.713,22.325H10.266A5.054,5.054,0,0,1,5.212,17.27V10.208a5.054,5.054,0,0,1,5.054-5.054h9.446a5.055,5.055,0,0,1,5.054,5.054V17.27a5.055,5.055,0,0,1-5.054,5.054" transform="translate(-4.159 -4.164)" fill="#fff8fa"/>
                    <path id="패스_63874" data-name="패스 63874" d="M19.667,22.19H10.448A4.928,4.928,0,0,1,5.52,17.261V10.373a4.929,4.929,0,0,1,4.928-4.929h9.219A4.93,4.93,0,0,1,24.6,10.373v6.888a4.929,4.929,0,0,1-4.929,4.929" transform="translate(-4.116 -4.123)" fill="#fff5f8"/>
                    <path id="패스_63875" data-name="패스 63875" d="M19.621,22.054H10.629a4.8,4.8,0,0,1-4.8-4.8V10.537a4.8,4.8,0,0,1,4.8-4.8h8.991a4.8,4.8,0,0,1,4.8,4.8v6.713a4.8,4.8,0,0,1-4.8,4.8" transform="translate(-4.073 -4.082)" fill="#fef3f6"/>
                    <path id="패스_63876" data-name="패스 63876" d="M19.575,21.919H10.812a4.677,4.677,0,0,1-4.677-4.677V10.7a4.677,4.677,0,0,1,4.677-4.677h8.763A4.677,4.677,0,0,1,24.252,10.7v6.541a4.677,4.677,0,0,1-4.677,4.677" transform="translate(-4.03 -4.042)" fill="#fef0f4"/>
                    <path id="패스_63877" data-name="패스 63877" d="M19.53,21.784H10.995a4.551,4.551,0,0,1-4.552-4.552V10.866a4.551,4.551,0,0,1,4.552-4.552H19.53a4.551,4.551,0,0,1,4.552,4.552v6.367a4.551,4.551,0,0,1-4.552,4.552" transform="translate(-3.986 -4.001)" fill="#feeef3"/>
                    <path id="패스_63878" data-name="패스 63878" d="M19.484,21.648H11.176a4.426,4.426,0,0,1-4.425-4.426V11.03A4.426,4.426,0,0,1,11.176,6.6h8.308A4.426,4.426,0,0,1,23.91,11.03v6.192a4.426,4.426,0,0,1-4.426,4.426" transform="translate(-3.943 -3.961)" fill="#feebf1"/>
                    <path id="패스_63879" data-name="패스 63879" d="M19.438,21.513h-8.08a4.3,4.3,0,0,1-4.3-4.3V11.194a4.3,4.3,0,0,1,4.3-4.3h8.08a4.3,4.3,0,0,1,4.3,4.3v6.019a4.3,4.3,0,0,1-4.3,4.3" transform="translate(-3.9 -3.92)" fill="#fee9ef"/>
                    <path id="패스_63880" data-name="패스 63880" d="M19.392,21.378H11.54A4.174,4.174,0,0,1,7.366,17.2V11.358A4.174,4.174,0,0,1,11.54,7.184h7.852a4.174,4.174,0,0,1,4.174,4.174V17.2a4.174,4.174,0,0,1-4.174,4.174" transform="translate(-3.857 -3.879)" fill="#fee6ee"/>
                    <path id="패스_63881" data-name="패스 63881" d="M19.347,21.243H11.723a4.049,4.049,0,0,1-4.049-4.049V11.523a4.049,4.049,0,0,1,4.049-4.05h7.624a4.049,4.049,0,0,1,4.049,4.05v5.671a4.049,4.049,0,0,1-4.049,4.049" transform="translate(-3.814 -3.839)" fill="#fee4ec"/>
                    <path id="패스_63882" data-name="패스 63882" d="M19.3,21.107H11.9a3.923,3.923,0,0,1-3.923-3.923v-5.5A3.923,3.923,0,0,1,11.9,7.763h7.4a3.924,3.924,0,0,1,3.923,3.923v5.5A3.924,3.924,0,0,1,19.3,21.107" transform="translate(-3.771 -3.798)" fill="#fee1ea"/>
                    <path id="패스_63883" data-name="패스 63883" d="M19.255,20.972H12.086a3.8,3.8,0,0,1-3.8-3.8V11.851a3.8,3.8,0,0,1,3.8-3.8h7.169a3.8,3.8,0,0,1,3.8,3.8v5.323a3.8,3.8,0,0,1-3.8,3.8" transform="translate(-3.728 -3.757)" fill="#fddfe8"/>
                    <path id="패스_63884" data-name="패스 63884" d="M19.21,20.837H12.268A3.671,3.671,0,0,1,8.6,17.166V12.014a3.671,3.671,0,0,1,3.671-3.671H19.21a3.671,3.671,0,0,1,3.671,3.671v5.151a3.671,3.671,0,0,1-3.671,3.671" transform="translate(-3.684 -3.717)" fill="#fddce6"/>
                    <path id="패스_63885" data-name="패스 63885" d="M19.164,20.7H12.45A3.546,3.546,0,0,1,8.9,17.155V12.178A3.545,3.545,0,0,1,12.45,8.632h6.714a3.545,3.545,0,0,1,3.545,3.546v4.977A3.546,3.546,0,0,1,19.164,20.7" transform="translate(-3.641 -3.676)" fill="#fddae5"/>
                    <path id="패스_63886" data-name="패스 63886" d="M19.118,20.565H12.632a3.42,3.42,0,0,1-3.42-3.42v-4.8a3.42,3.42,0,0,1,3.42-3.42h6.485a3.42,3.42,0,0,1,3.42,3.42v4.8a3.42,3.42,0,0,1-3.42,3.42" transform="translate(-3.598 -3.636)" fill="#fdd7e3"/>
                  </g>
                </g>
              </g>
              <g id="그룹_53531" data-name="그룹 53531" transform="translate(-0.114 0)" style="mix-blend-mode: screen;isolation: isolate">
                <g id="그룹_53530" data-name="그룹 53530">
                  <g id="그룹_53529" data-name="그룹 53529" clip-path="url(#clip-path-65)">
                    <path id="패스_63887" data-name="패스 63887" d="M19.752,10.959A7.357,7.357,0,1,1,12.394,3.6a7.357,7.357,0,0,1,7.357,7.357" transform="translate(-5.038 -3.602)" fill="#f0c4ce"/>
                    <path id="패스_63888" data-name="패스 63888" d="M19.743,10.959a7.349,7.349,0,1,1-7.348-7.346,7.348,7.348,0,0,1,7.348,7.346" transform="translate(-5.037 -3.6)" fill="#f0c4ce"/>
                    <path id="패스_63889" data-name="패스 63889" d="M19.733,10.957a7.34,7.34,0,1,1-7.34-7.333,7.337,7.337,0,0,1,7.34,7.333" transform="translate(-5.036 -3.599)" fill="#f0c4ce"/>
                    <path id="패스_63890" data-name="패스 63890" d="M19.724,10.957a7.332,7.332,0,1,1-7.332-7.322,7.327,7.327,0,0,1,7.332,7.322" transform="translate(-5.035 -3.597)" fill="#f0c4ce"/>
                    <path id="패스_63891" data-name="패스 63891" d="M19.714,10.957a7.323,7.323,0,1,1-7.323-7.311,7.317,7.317,0,0,1,7.323,7.311" transform="translate(-5.033 -3.596)" fill="#f0c4ce"/>
                    <path id="패스_63892" data-name="패스 63892" d="M19.7,10.956a7.315,7.315,0,1,1-7.315-7.3,7.307,7.307,0,0,1,7.315,7.3" transform="translate(-5.032 -3.594)" fill="#f0c4ce"/>
                    <path id="패스_63893" data-name="패스 63893" d="M19.7,10.956a7.306,7.306,0,1,1-7.306-7.288A7.3,7.3,0,0,1,19.7,10.956" transform="translate(-5.031 -3.593)" fill="#f0c4ce"/>
                    <path id="패스_63894" data-name="패스 63894" d="M19.685,10.955a7.3,7.3,0,1,1-7.3-7.276,7.287,7.287,0,0,1,7.3,7.276" transform="translate(-5.03 -3.591)" fill="#f0c4ce"/>
                    <path id="패스_63895" data-name="패스 63895" d="M19.676,10.954a7.29,7.29,0,1,1-7.289-7.265,7.277,7.277,0,0,1,7.289,7.265" transform="translate(-5.029 -3.59)" fill="#f0c4ce"/>
                    <path id="패스_63896" data-name="패스 63896" d="M19.666,10.954A7.281,7.281,0,1,1,12.385,3.7a7.268,7.268,0,0,1,7.281,7.254" transform="translate(-5.028 -3.588)" fill="#f0c4ce"/>
                    <path id="패스_63897" data-name="패스 63897" d="M19.657,10.953a7.273,7.273,0,1,1-7.272-7.241,7.257,7.257,0,0,1,7.272,7.241" transform="translate(-5.027 -3.587)" fill="#f0c4ce"/>
                    <path id="패스_63898" data-name="패스 63898" d="M19.647,10.953a7.263,7.263,0,1,1-7.264-7.23,7.247,7.247,0,0,1,7.264,7.23" transform="translate(-5.026 -3.585)" fill="#f0c4ce"/>
                    <path id="패스_63899" data-name="패스 63899" d="M19.638,10.952a7.255,7.255,0,1,1-7.256-7.218,7.237,7.237,0,0,1,7.256,7.218" transform="translate(-5.025 -3.583)" fill="#f0c4ce"/>
                    <path id="패스_63900" data-name="패스 63900" d="M19.629,10.951a7.247,7.247,0,1,1-7.247-7.207,7.227,7.227,0,0,1,7.247,7.207" transform="translate(-5.024 -3.582)" fill="#f0c4ce"/>
                    <path id="패스_63901" data-name="패스 63901" d="M19.619,10.951a7.238,7.238,0,1,1-7.239-7.2,7.217,7.217,0,0,1,7.239,7.2" transform="translate(-5.023 -3.581)" fill="#f0c4ce"/>
                    <path id="패스_63902" data-name="패스 63902" d="M19.609,10.95a7.23,7.23,0,1,1-7.23-7.184,7.207,7.207,0,0,1,7.23,7.184" transform="translate(-5.022 -3.579)" fill="#f0c4ce"/>
                    <path id="패스_63903" data-name="패스 63903" d="M19.6,10.95a7.222,7.222,0,1,1-7.222-7.173A7.2,7.2,0,0,1,19.6,10.95" transform="translate(-5.021 -3.577)" fill="#f0c4ce"/>
                    <path id="패스_63904" data-name="패스 63904" d="M19.567,10.946A7.193,7.193,0,1,1,12.374,3.8a7.169,7.169,0,0,1,7.193,7.147" transform="translate(-5.017 -3.574)" fill="#e1b8c1"/>
                    <path id="패스_63905" data-name="패스 63905" d="M19.535,10.942a7.164,7.164,0,1,1-7.164-7.121,7.143,7.143,0,0,1,7.164,7.121" transform="translate(-5.014 -3.571)" fill="#d2acb4"/>
                    <path id="패스_63906" data-name="패스 63906" d="M19.5,10.938a7.135,7.135,0,1,1-7.135-7.1,7.115,7.115,0,0,1,7.135,7.1" transform="translate(-5.01 -3.568)" fill="#c39fa7"/>
                    <path id="패스_63907" data-name="패스 63907" d="M19.47,10.935a7.107,7.107,0,1,1-7.107-7.07,7.089,7.089,0,0,1,7.107,7.07" transform="translate(-5.007 -3.565)" fill="#b4939b"/>
                    <path id="패스_63908" data-name="패스 63908" d="M19.438,10.931A7.078,7.078,0,1,1,12.36,3.887a7.061,7.061,0,0,1,7.078,7.044" transform="translate(-5.003 -3.562)" fill="#a5878e"/>
                    <path id="패스_63909" data-name="패스 63909" d="M19.406,10.928a7.049,7.049,0,1,1-7.05-7.019,7.034,7.034,0,0,1,7.05,7.019" transform="translate(-5 -3.559)" fill="#967b81"/>
                    <path id="패스_63910" data-name="패스 63910" d="M19.374,10.924a7.021,7.021,0,1,1-7.021-6.993,7.007,7.007,0,0,1,7.021,6.993" transform="translate(-4.996 -3.556)" fill="#876e74"/>
                    <path id="패스_63911" data-name="패스 63911" d="M19.342,10.921a6.992,6.992,0,1,1-6.991-6.968,6.98,6.98,0,0,1,6.991,6.968" transform="translate(-4.993 -3.553)" fill="#786267"/>
                    <path id="패스_63912" data-name="패스 63912" d="M19.31,10.916a6.963,6.963,0,1,1-6.963-6.941,6.952,6.952,0,0,1,6.963,6.941" transform="translate(-4.989 -3.55)" fill="#69565a"/>
                    <path id="패스_63913" data-name="패스 63913" d="M19.277,10.912A6.934,6.934,0,1,1,12.342,4a6.925,6.925,0,0,1,6.934,6.916" transform="translate(-4.986 -3.547)" fill="#5a4a4d"/>
                    <path id="패스_63914" data-name="패스 63914" d="M19.245,10.909a6.906,6.906,0,1,1-6.906-6.89,6.9,6.9,0,0,1,6.906,6.89" transform="translate(-4.982 -3.544)" fill="#4b3d40"/>
                    <path id="패스_63915" data-name="패스 63915" d="M19.213,10.9A6.877,6.877,0,1,1,12.335,4.04,6.871,6.871,0,0,1,19.213,10.9" transform="translate(-4.979 -3.541)" fill="#3c3134"/>
                    <path id="패스_63916" data-name="패스 63916" d="M19.181,10.9a6.848,6.848,0,1,1-6.848-6.839A6.843,6.843,0,0,1,19.181,10.9" transform="translate(-4.975 -3.537)" fill="#2d2527"/>
                    <path id="패스_63917" data-name="패스 63917" d="M19.149,10.9a6.819,6.819,0,1,1-6.819-6.814A6.817,6.817,0,0,1,19.149,10.9" transform="translate(-4.971 -3.534)" fill="#1e191a"/>
                    <path id="패스_63918" data-name="패스 63918" d="M19.117,10.894a6.791,6.791,0,1,1-6.791-6.787,6.789,6.789,0,0,1,6.791,6.787" transform="translate(-4.968 -3.531)" fill="#0f0c0d"/>
                    <path id="패스_63919" data-name="패스 63919" d="M19.084,10.89a6.762,6.762,0,1,1-6.762-6.762,6.762,6.762,0,0,1,6.762,6.762" transform="translate(-4.965 -3.528)"/>
                  </g>
                </g>
              </g>
            </g>
          </g>
          <g id="그룹_53535" data-name="그룹 53535" transform="translate(1.213 20.212)">
            <g id="그룹_53534" data-name="그룹 53534" clip-path="url(#clip-path-66)">
              <rect id="사각형_25902" data-name="사각형 25902" width="24.8" height="12.969" transform="translate(0 0)" fill="url(#linear-gradient-3)"/>
            </g>
          </g>
          <g id="그룹_53546" data-name="그룹 53546" transform="translate(1.214 20.212)">
            <g id="그룹_53545" data-name="그룹 53545" clip-path="url(#clip-path-67)">
              <g id="그룹_53538" data-name="그룹 53538" transform="translate(2.935 -9.749)" style="mix-blend-mode: multiply;isolation: isolate">
                <g id="그룹_53537" data-name="그룹 53537">
                  <g id="그룹_53536" data-name="그룹 53536" clip-path="url(#clip-path-68)">
                    <path id="패스_63922" data-name="패스 63922" d="M22.805,32.074H9.071a5.432,5.432,0,0,1-5.432-5.432V14.764A5.432,5.432,0,0,1,9.071,9.332H22.805a5.432,5.432,0,0,1,5.432,5.432V26.642a5.432,5.432,0,0,1-5.432,5.432" transform="translate(-3.639 -9.155)" fill="#fff"/>
                    <path id="패스_63923" data-name="패스 63923" d="M23.005,31.8H9.2a5.306,5.306,0,0,1-5.306-5.306V14.627A5.306,5.306,0,0,1,9.2,9.322h13.8a5.306,5.306,0,0,1,5.306,5.305V26.489A5.306,5.306,0,0,1,23.005,31.8" transform="translate(-3.603 -9.156)" fill="#fffdfd"/>
                    <path id="패스_63924" data-name="패스 63924" d="M23.205,31.519H9.332a5.181,5.181,0,0,1-5.181-5.18V14.492a5.181,5.181,0,0,1,5.181-5.18H23.205a5.18,5.18,0,0,1,5.18,5.18V26.339a5.18,5.18,0,0,1-5.18,5.18" transform="translate(-3.567 -9.158)" fill="#fffafc"/>
                    <path id="패스_63925" data-name="패스 63925" d="M23.405,31.242H9.462a5.054,5.054,0,0,1-5.054-5.054V14.357A5.053,5.053,0,0,1,9.462,9.3H23.405a5.054,5.054,0,0,1,5.054,5.054v11.83a5.055,5.055,0,0,1-5.054,5.054" transform="translate(-3.531 -9.159)" fill="#fff8fa"/>
                    <path id="패스_63926" data-name="패스 63926" d="M23.605,30.965H9.592a4.928,4.928,0,0,1-4.928-4.929V14.222A4.928,4.928,0,0,1,9.592,9.293H23.605a4.929,4.929,0,0,1,4.929,4.929V26.036a4.929,4.929,0,0,1-4.929,4.929" transform="translate(-3.495 -9.16)" fill="#fff5f8"/>
                    <path id="패스_63927" data-name="패스 63927" d="M23.806,30.688H9.722a4.8,4.8,0,0,1-4.8-4.8v-11.8a4.8,4.8,0,0,1,4.8-4.8H23.806a4.8,4.8,0,0,1,4.8,4.8v11.8a4.8,4.8,0,0,1-4.8,4.8" transform="translate(-3.459 -9.161)" fill="#fef3f6"/>
                    <path id="패스_63928" data-name="패스 63928" d="M24.006,30.411H9.853a4.677,4.677,0,0,1-4.677-4.677V13.951A4.677,4.677,0,0,1,9.853,9.274H24.006a4.677,4.677,0,0,1,4.677,4.677V25.734a4.677,4.677,0,0,1-4.677,4.677" transform="translate(-3.424 -9.163)" fill="#fef0f4"/>
                    <path id="패스_63929" data-name="패스 63929" d="M24.206,30.134H9.984a4.551,4.551,0,0,1-4.552-4.552V13.816A4.552,4.552,0,0,1,9.984,9.263H24.206a4.552,4.552,0,0,1,4.552,4.553V25.582a4.551,4.551,0,0,1-4.552,4.552" transform="translate(-3.388 -9.164)" fill="#feeef3"/>
                    <path id="패스_63930" data-name="패스 63930" d="M24.406,29.857H10.114a4.426,4.426,0,0,1-4.426-4.426V13.68a4.426,4.426,0,0,1,4.426-4.426H24.406a4.426,4.426,0,0,1,4.426,4.426v11.75a4.426,4.426,0,0,1-4.426,4.426" transform="translate(-3.352 -9.166)" fill="#feebf1"/>
                    <path id="패스_63931" data-name="패스 63931" d="M24.606,29.58H10.245a4.3,4.3,0,0,1-4.3-4.3V13.545a4.3,4.3,0,0,1,4.3-4.3H24.606a4.3,4.3,0,0,1,4.3,4.3V25.279a4.3,4.3,0,0,1-4.3,4.3" transform="translate(-3.316 -9.167)" fill="#fee9ef"/>
                    <path id="패스_63932" data-name="패스 63932" d="M24.806,29.3H10.374A4.174,4.174,0,0,1,6.2,25.129V13.409a4.174,4.174,0,0,1,4.174-4.174H24.806a4.174,4.174,0,0,1,4.174,4.174v11.72A4.174,4.174,0,0,1,24.806,29.3" transform="translate(-3.28 -9.168)" fill="#fee6ee"/>
                    <path id="패스_63933" data-name="패스 63933" d="M25.006,29.026H10.5a4.049,4.049,0,0,1-4.049-4.049v-11.7A4.049,4.049,0,0,1,10.5,9.225h14.5a4.049,4.049,0,0,1,4.049,4.049v11.7a4.049,4.049,0,0,1-4.049,4.049" transform="translate(-3.244 -9.17)" fill="#fee4ec"/>
                    <path id="패스_63934" data-name="패스 63934" d="M25.207,28.749H10.635a3.924,3.924,0,0,1-3.923-3.923V13.139a3.923,3.923,0,0,1,3.923-3.923H25.207a3.923,3.923,0,0,1,3.923,3.923V24.826a3.924,3.924,0,0,1-3.923,3.923" transform="translate(-3.208 -9.171)" fill="#fee1ea"/>
                    <path id="패스_63935" data-name="패스 63935" d="M25.407,28.471H10.766a3.8,3.8,0,0,1-3.8-3.8V13a3.8,3.8,0,0,1,3.8-3.8H25.407A3.8,3.8,0,0,1,29.2,13V24.674a3.8,3.8,0,0,1-3.8,3.8" transform="translate(-3.172 -9.173)" fill="#fddfe8"/>
                    <path id="패스_63936" data-name="패스 63936" d="M25.607,28.194H10.9a3.672,3.672,0,0,1-3.671-3.671V12.867A3.671,3.671,0,0,1,10.9,9.2h14.71a3.67,3.67,0,0,1,3.671,3.671V24.523a3.671,3.671,0,0,1-3.671,3.671" transform="translate(-3.136 -9.174)" fill="#fddce6"/>
                    <path id="패스_63937" data-name="패스 63937" d="M25.808,27.918H11.028a3.547,3.547,0,0,1-3.547-3.546V12.732a3.547,3.547,0,0,1,3.547-3.546h14.78a3.546,3.546,0,0,1,3.545,3.546v11.64a3.546,3.546,0,0,1-3.545,3.546" transform="translate(-3.101 -9.175)" fill="#fddae5"/>
                    <path id="패스_63938" data-name="패스 63938" d="M26.008,27.641H11.157a3.42,3.42,0,0,1-3.42-3.42V12.6a3.421,3.421,0,0,1,3.42-3.42H26.008a3.421,3.421,0,0,1,3.42,3.42V24.22a3.42,3.42,0,0,1-3.42,3.42" transform="translate(-3.065 -9.177)" fill="#fdd7e3"/>
                  </g>
                </g>
              </g>
              <g id="그룹_53541" data-name="그룹 53541" transform="translate(-0.44 0.001)" style="mix-blend-mode: screen;isolation: isolate">
                <g id="그룹_53540" data-name="그룹 53540">
                  <g id="그룹_53539" data-name="그룹 53539" clip-path="url(#clip-path-69)">
                    <path id="패스_63939" data-name="패스 63939" d="M13.517,17.727h3.118c8.244,0,9.524,5.789,9.718,10.559a2.6,2.6,0,0,1-2.387,2.87H3.069a2.6,2.6,0,0,1-2.387-2.87c.194-4.77,1.473-10.559,9.718-10.559Z" transform="translate(-0.679 -17.728)" fill="#c87488"/>
                    <path id="패스_63940" data-name="패스 63940" d="M13.51,17.845h3.1c8.207,0,9.48,5.729,9.674,10.452a2.571,2.571,0,0,1-2.376,2.84H3.108A2.568,2.568,0,0,1,.732,28.3C.926,23.574,2.2,17.845,10.407,17.845Z" transform="translate(-0.672 -17.711)" fill="#bb6d80"/>
                    <path id="패스_63941" data-name="패스 63941" d="M13.5,17.962h3.09c8.169,0,9.437,5.67,9.63,10.345a2.54,2.54,0,0,1-2.366,2.81H3.149a2.533,2.533,0,0,1-2.366-2.81c.193-4.675,1.461-10.345,9.63-10.345Z" transform="translate(-0.664 -17.695)" fill="#af6677"/>
                    <path id="패스_63942" data-name="패스 63942" d="M13.5,18.079h3.075c8.133,0,9.395,5.612,9.586,10.237A2.51,2.51,0,0,1,23.8,31.1H3.189A2.5,2.5,0,0,1,.834,28.316c.192-4.626,1.454-10.237,9.586-10.237Z" transform="translate(-0.657 -17.678)" fill="#a35e6f"/>
                    <path id="패스_63943" data-name="패스 63943" d="M13.489,18.2H16.55c8.1,0,9.352,5.553,9.542,10.13a2.479,2.479,0,0,1-2.344,2.752H3.23A2.467,2.467,0,0,1,.885,28.326c.19-4.578,1.447-10.13,9.542-10.13Z" transform="translate(-0.65 -17.662)" fill="#965766"/>
                    <path id="패스_63944" data-name="패스 63944" d="M13.482,18.314h3.048c8.058,0,9.307,5.494,9.5,10.022a2.449,2.449,0,0,1-2.334,2.724H3.27A2.433,2.433,0,0,1,.936,28.336c.19-4.528,1.44-10.022,9.5-10.022Z" transform="translate(-0.643 -17.645)" fill="#8a505e"/>
                    <path id="패스_63945" data-name="패스 63945" d="M13.474,18.431h3.033c8.02,0,9.265,5.435,9.454,9.915a2.419,2.419,0,0,1-2.323,2.694H3.31A2.4,2.4,0,0,1,.987,28.346c.189-4.48,1.434-9.915,9.454-9.915Z" transform="translate(-0.636 -17.629)" fill="#7d4955"/>
                    <path id="패스_63946" data-name="패스 63946" d="M13.467,18.548h3.019c7.982,0,9.222,5.376,9.41,9.808a2.39,2.39,0,0,1-2.312,2.666H3.351a2.369,2.369,0,0,1-2.312-2.666c.188-4.432,1.427-9.808,9.41-9.808Z" transform="translate(-0.629 -17.612)" fill="#71414d"/>
                    <path id="패스_63947" data-name="패스 63947" d="M13.46,18.665h3c7.946,0,9.178,5.318,9.366,9.7A2.36,2.36,0,0,1,23.53,31H3.39a2.336,2.336,0,0,1-2.3-2.636c.188-4.383,1.421-9.7,9.366-9.7Z" transform="translate(-0.622 -17.596)" fill="#643a44"/>
                    <path id="패스_63948" data-name="패스 63948" d="M13.453,18.782h2.991c7.908,0,9.135,5.258,9.322,9.593a2.33,2.33,0,0,1-2.291,2.606H3.431A2.3,2.3,0,0,1,1.14,28.375c.187-4.335,1.414-9.593,9.322-9.593Z" transform="translate(-0.614 -17.58)" fill="#58333c"/>
                    <path id="패스_63949" data-name="패스 63949" d="M13.446,18.9h2.977c7.871,0,9.092,5.2,9.277,9.486a2.3,2.3,0,0,1-2.279,2.577H3.471a2.272,2.272,0,0,1-2.279-2.577C1.377,24.1,2.6,18.9,10.469,18.9Z" transform="translate(-0.607 -17.563)" fill="#4b2c33"/>
                    <path id="패스_63950" data-name="패스 63950" d="M13.439,19.017H16.4c7.833,0,9.049,5.141,9.234,9.378a2.272,2.272,0,0,1-2.269,2.549H3.511a2.242,2.242,0,0,1-2.269-2.549c.185-4.237,1.4-9.378,9.234-9.378Z" transform="translate(-0.6 -17.547)" fill="#3f242b"/>
                    <path id="패스_63951" data-name="패스 63951" d="M13.432,19.134H16.38c7.8,0,9,5.082,9.19,9.271a2.243,2.243,0,0,1-2.258,2.52H3.551A2.21,2.21,0,0,1,1.293,28.4c.185-4.189,1.394-9.271,9.19-9.271Z" transform="translate(-0.593 -17.53)" fill="#321d22"/>
                    <path id="패스_63952" data-name="패스 63952" d="M13.424,19.251h2.934c7.759,0,8.963,5.024,9.146,9.163a2.214,2.214,0,0,1-2.247,2.49H3.592a2.18,2.18,0,0,1-2.247-2.49c.184-4.14,1.388-9.163,9.146-9.163Z" transform="translate(-0.586 -17.514)" fill="#26161a"/>
                    <path id="패스_63953" data-name="패스 63953" d="M13.417,19.369h2.92c7.721,0,8.919,4.964,9.1,9.056a2.186,2.186,0,0,1-2.237,2.46H3.632A2.149,2.149,0,0,1,1.4,28.425c.182-4.092,1.381-9.056,9.1-9.056Z" transform="translate(-0.579 -17.497)" fill="#190f11"/>
                    <path id="패스_63954" data-name="패스 63954" d="M13.41,19.486h2.906c7.684,0,8.875,4.9,9.056,8.949a2.157,2.157,0,0,1-2.224,2.432H3.672a2.118,2.118,0,0,1-2.224-2.432c.181-4.044,1.373-8.949,9.056-8.949Z" transform="translate(-0.571 -17.481)" fill="#0d0709"/>
                    <path id="패스_63955" data-name="패스 63955" d="M13.4,19.6h2.891c7.646,0,8.833,4.847,9.013,8.842a2.129,2.129,0,0,1-2.214,2.4H3.713a2.088,2.088,0,0,1-2.214-2.4c.18-4,1.367-8.842,9.013-8.842Z" transform="translate(-0.564 -17.465)"/>
                  </g>
                </g>
              </g>
              <g id="그룹_53544" data-name="그룹 53544" transform="translate(-0.44 0.001)" style="mix-blend-mode: screen;isolation: isolate">
                <g id="그룹_53543" data-name="그룹 53543">
                  <g id="그룹_53542" data-name="그룹 53542" clip-path="url(#clip-path-69)">
                    <path id="패스_63956" data-name="패스 63956" d="M13.517,17.727H15.5c8.244,0,10.664,5.789,10.858,10.559a2.6,2.6,0,0,1-2.387,2.87H3.069a2.6,2.6,0,0,1-2.387-2.87c.194-4.77,2.613-10.559,10.858-10.559Z" transform="translate(-0.679 -17.728)" fill="#ec9daf"/>
                    <path id="패스_63957" data-name="패스 63957" d="M13.516,17.738H15.49c8.235,0,10.654,5.776,10.847,10.536a2.58,2.58,0,0,1-2.36,2.863H3.051A2.579,2.579,0,0,1,.693,28.274c.194-4.76,2.612-10.536,10.847-10.536Z" transform="translate(-0.677 -17.726)" fill="#ec9daf"/>
                    <path id="패스_63958" data-name="패스 63958" d="M13.514,17.748h1.971c8.226,0,10.643,5.764,10.838,10.513a2.561,2.561,0,0,1-2.334,2.857H3.034A2.557,2.557,0,0,1,.7,28.261C.9,23.511,3.316,17.748,11.543,17.748Z" transform="translate(-0.676 -17.725)" fill="#ec9daf"/>
                    <path id="패스_63959" data-name="패스 63959" d="M13.512,17.758H15.48c8.218,0,10.633,5.751,10.828,10.491A2.539,2.539,0,0,1,24,31.1H3.015a2.533,2.533,0,0,1-2.3-2.852c.195-4.74,2.61-10.491,10.828-10.491Z" transform="translate(-0.674 -17.723)" fill="#ec9daf"/>
                    <path id="패스_63960" data-name="패스 63960" d="M13.511,17.768h1.964c8.209,0,10.624,5.738,10.818,10.468a2.516,2.516,0,0,1-2.28,2.845H3A2.508,2.508,0,0,1,.728,28.236c.194-4.729,2.609-10.468,10.818-10.468Z" transform="translate(-0.672 -17.722)" fill="#ec9daf"/>
                    <path id="패스_63961" data-name="패스 63961" d="M13.509,17.779H15.47c8.2,0,10.614,5.726,10.808,10.445a2.494,2.494,0,0,1-2.253,2.839H2.98A2.485,2.485,0,0,1,.74,28.224C.934,23.5,3.347,17.779,11.548,17.779Z" transform="translate(-0.67 -17.72)" fill="#ec9daf"/>
                    <path id="패스_63962" data-name="패스 63962" d="M13.507,17.789h1.958c8.192,0,10.6,5.713,10.8,10.422a2.474,2.474,0,0,1-2.227,2.833H2.962c-1.352,0-2.272-1.288-2.21-2.833C.946,23.5,3.358,17.789,11.55,17.789Z" transform="translate(-0.669 -17.719)" fill="#ec9daf"/>
                    <path id="패스_63963" data-name="패스 63963" d="M13.506,17.8H15.46c8.184,0,10.594,5.7,10.787,10.4.063,1.54-.848,2.825-2.2,2.825H2.944C1.593,31.025.7,29.74.764,28.2c.194-4.7,2.6-10.4,10.787-10.4Z" transform="translate(-0.667 -17.717)" fill="#ec9daf"/>
                    <path id="패스_63964" data-name="패스 63964" d="M13.5,17.81h1.952c8.174,0,10.583,5.688,10.776,10.378.064,1.537-.822,2.82-2.172,2.82H2.927c-1.35,0-2.213-1.283-2.15-2.82C.969,23.5,3.378,17.81,11.552,17.81Z" transform="translate(-0.665 -17.716)" fill="#ec9daf"/>
                    <path id="패스_63965" data-name="패스 63965" d="M13.5,17.82h1.949c8.166,0,10.573,5.676,10.765,10.355.064,1.534-.8,2.813-2.146,2.813H2.909c-1.349,0-2.185-1.279-2.121-2.813C.981,23.5,3.388,17.82,11.554,17.82Z" transform="translate(-0.664 -17.715)" fill="#ec9daf"/>
                    <path id="패스_63966" data-name="패스 63966" d="M13.5,17.83h1.945c8.157,0,10.562,5.663,10.755,10.332.064,1.53-.771,2.807-2.118,2.807H2.891C1.544,30.969.737,29.692.8,28.162.993,23.493,3.4,17.83,11.556,17.83Z" transform="translate(-0.662 -17.713)" fill="#ec9daf"/>
                    <path id="패스_63967" data-name="패스 63967" d="M13.5,17.84h1.942c8.148,0,10.553,5.651,10.745,10.309.064,1.527-.746,2.8-2.091,2.8H2.874c-1.347,0-2.125-1.275-2.061-2.8C1,23.491,3.41,17.84,11.557,17.84Z" transform="translate(-0.66 -17.712)" fill="#ec9daf"/>
                    <path id="패스_63968" data-name="패스 63968" d="M13.5,17.851h1.938c8.14,0,10.543,5.638,10.735,10.287.064,1.523-.719,2.795-2.064,2.795H2.856c-1.344,0-2.1-1.271-2.032-2.795.192-4.648,2.6-10.287,10.735-10.287Z" transform="translate(-0.659 -17.71)" fill="#ec9daf"/>
                    <path id="패스_63969" data-name="패스 63969" d="M13.5,17.861h1.935c8.13,0,10.533,5.626,10.724,10.264.064,1.52-.694,2.789-2.037,2.789H2.839c-1.343,0-2.066-1.269-2-2.789.192-4.638,2.594-10.264,10.724-10.264Z" transform="translate(-0.657 -17.709)" fill="#ec9daf"/>
                    <path id="패스_63970" data-name="패스 63970" d="M13.494,17.871h1.931c8.122,0,10.523,5.614,10.714,10.241.064,1.516-.669,2.782-2.01,2.782H2.821c-1.342,0-2.036-1.266-1.972-2.782C1.04,23.485,3.44,17.871,11.563,17.871Z" transform="translate(-0.655 -17.707)" fill="#ec9daf"/>
                    <path id="패스_63971" data-name="패스 63971" d="M13.492,17.881H15.42c8.113,0,10.513,5.6,10.7,10.218.063,1.513-.644,2.776-1.984,2.776H2.8C1.463,30.875.8,29.612.859,28.1c.192-4.617,2.592-10.218,10.7-10.218Z" transform="translate(-0.654 -17.706)" fill="#ec9daf"/>
                    <path id="패스_63972" data-name="패스 63972" d="M13.491,17.892h1.925c8.105,0,10.5,5.589,10.695,10.2.063,1.511-.619,2.771-1.958,2.771H2.785c-1.339,0-1.976-1.26-1.913-2.771.192-4.606,2.589-10.2,10.695-10.2Z" transform="translate(-0.652 -17.704)" fill="#ec9daf"/>
                    <path id="패스_63973" data-name="패스 63973" d="M13.485,17.9H15.4c8.078,0,10.471,5.563,10.662,10.147.063,1.5-.624,2.758-1.972,2.758H2.841c-1.353,0-1.994-1.254-1.931-2.758C1.1,23.467,3.493,17.9,11.571,17.9Z" transform="translate(-0.647 -17.703)" fill="#dd93a4"/>
                    <path id="패스_63974" data-name="패스 63974" d="M13.48,17.916h1.9c8.051,0,10.44,5.537,10.63,10.1.063,1.5-.631,2.744-1.99,2.744H2.9c-1.37,0-2.015-1.248-1.952-2.744.189-4.564,2.579-10.1,10.63-10.1Z" transform="translate(-0.642 -17.701)" fill="#cf8999"/>
                    <path id="패스_63975" data-name="패스 63975" d="M13.475,17.929h1.894c8.023,0,10.409,5.51,10.6,10.053.062,1.49-.636,2.732-2.007,2.732H2.955c-1.386,0-2.033-1.242-1.971-2.732.189-4.542,2.574-10.053,10.6-10.053Z" transform="translate(-0.637 -17.699)" fill="#c0808e"/>
                    <path id="패스_63976" data-name="패스 63976" d="M13.47,17.941h1.884c8,0,10.377,5.485,10.566,10.006.062,1.482-.643,2.719-2.023,2.719H3.011c-1.4,0-2.052-1.237-1.991-2.719.189-4.521,2.57-10.006,10.566-10.006Z" transform="translate(-0.631 -17.698)" fill="#b17683"/>
                    <path id="패스_63977" data-name="패스 63977" d="M13.465,17.954h1.873c7.969,0,10.346,5.459,10.534,9.958.062,1.475-.649,2.707-2.04,2.707H3.068c-1.417,0-2.072-1.231-2.01-2.707.188-4.5,2.565-9.958,10.534-9.958Z" transform="translate(-0.626 -17.696)" fill="#a26c78"/>
                    <path id="패스_63978" data-name="패스 63978" d="M13.459,17.966h1.863c7.941,0,10.314,5.433,10.5,9.911.062,1.469-.654,2.693-2.056,2.693H3.124c-1.433,0-2.09-1.225-2.028-2.693.187-4.479,2.56-9.911,10.5-9.911Z" transform="translate(-0.621 -17.694)" fill="#94626d"/>
                    <path id="패스_63979" data-name="패스 63979" d="M13.454,17.979h1.853c7.914,0,10.282,5.407,10.469,9.864.062,1.462-.66,2.681-2.073,2.681H3.18c-1.448,0-2.109-1.219-2.048-2.681.187-4.457,2.555-9.864,10.469-9.864Z" transform="translate(-0.616 -17.692)" fill="#855862"/>
                    <path id="패스_63980" data-name="패스 63980" d="M13.449,17.991h1.842c7.886,0,10.251,5.382,10.437,9.817.06,1.454-.667,2.668-2.089,2.668H3.237c-1.464,0-2.128-1.214-2.067-2.668.186-4.435,2.551-9.817,10.437-9.817Z" transform="translate(-0.61 -17.691)" fill="#764f58"/>
                    <path id="패스_63981" data-name="패스 63981" d="M13.444,18h1.832c7.859,0,10.219,5.355,10.405,9.769.06,1.448-.674,2.655-2.106,2.655H3.293c-1.48,0-2.147-1.207-2.086-2.655C1.392,23.358,3.752,18,11.612,18Z" transform="translate(-0.605 -17.689)" fill="#67454d"/>
                    <path id="패스_63982" data-name="패스 63982" d="M13.438,18.016H15.26c7.832,0,10.187,5.329,10.372,9.722.062,1.44-.678,2.642-2.122,2.642H3.349c-1.495,0-2.166-1.2-2.1-2.642.185-4.393,2.54-9.722,10.372-9.722Z" transform="translate(-0.6 -17.687)" fill="#593b42"/>
                    <path id="패스_63983" data-name="패스 63983" d="M13.433,18.028h1.812c7.8,0,10.157,5.3,10.34,9.674.06,1.434-.685,2.629-2.138,2.629H3.406c-1.511,0-2.185-1.195-2.124-2.629.184-4.371,2.536-9.674,10.34-9.674Z" transform="translate(-0.595 -17.685)" fill="#4a3137"/>
                    <path id="패스_63984" data-name="패스 63984" d="M13.428,18.041h1.8c7.777,0,10.125,5.278,10.308,9.627.06,1.426-.691,2.617-2.155,2.617H3.462c-1.527,0-2.2-1.19-2.143-2.617.184-4.35,2.531-9.627,10.308-9.627Z" transform="translate(-0.59 -17.684)" fill="#3b272c"/>
                    <path id="패스_63985" data-name="패스 63985" d="M13.423,18.053h1.791c7.75,0,10.093,5.252,10.276,9.58a2.227,2.227,0,0,1-2.172,2.6H3.519c-1.543,0-2.223-1.185-2.164-2.6.184-4.328,2.527-9.58,10.276-9.58Z" transform="translate(-0.584 -17.682)" fill="#2c1d21"/>
                    <path id="패스_63986" data-name="패스 63986" d="M13.418,18.066H15.2c7.722,0,10.062,5.225,10.243,9.533a2.223,2.223,0,0,1-2.187,2.59H3.576c-1.559,0-2.243-1.178-2.182-2.59.181-4.308,2.521-9.533,10.243-9.533Z" transform="translate(-0.579 -17.68)" fill="#1e1416"/>
                    <path id="패스_63987" data-name="패스 63987" d="M13.412,18.078h1.771c7.695,0,10.03,5.2,10.211,9.486a2.223,2.223,0,0,1-2.2,2.577H3.632c-1.575,0-2.261-1.172-2.2-2.577.181-4.287,2.516-9.486,10.211-9.486Z" transform="translate(-0.574 -17.678)" fill="#0f0a0b"/>
                    <path id="패스_63988" data-name="패스 63988" d="M13.407,18.09h1.76c7.668,0,10,5.174,10.179,9.438a2.221,2.221,0,0,1-2.221,2.564H3.688a2.18,2.18,0,0,1-2.221-2.564c.181-4.264,2.512-9.438,10.179-9.438Z" transform="translate(-0.569 -17.677)"/>
                  </g>
                </g>
              </g>
            </g>
          </g>
        </g>
      </g>
    </g>
    <rect id="사각형_26607" data-name="사각형 26607" width="64" height="64" transform="translate(1440 628)" fill="none"/>
  </g>
</svg>
