<svg id="trees" xmlns="http://www.w3.org/2000/svg" width="24" height="24" viewBox="0 0 24 24">
  <path id="패스_63370" data-name="패스 63370" d="M0,0H24V24H0Z" fill="none"/>
  <path id="패스_63371" data-name="패스 63371" d="M16,5l3,3L17,9l4,4-3,1,4,4H13" fill="none" stroke="#0042a6" stroke-linecap="round" stroke-linejoin="round" stroke-width="1.7"/>
  <path id="패스_63372" data-name="패스 63372" d="M15,21V18" fill="none" stroke="#0042a6" stroke-linecap="round" stroke-linejoin="round" stroke-width="1.7"/>
  <path id="패스_63373" data-name="패스 63373" d="M8,13,6,11" fill="none" stroke="#0042a6" stroke-linecap="round" stroke-linejoin="round" stroke-width="1.7"/>
  <path id="패스_63374" data-name="패스 63374" d="M8,12l2-2" fill="none" stroke="#0042a6" stroke-linecap="round" stroke-linejoin="round" stroke-width="1.7"/>
  <path id="패스_63375" data-name="패스 63375" d="M8,21V8" fill="none" stroke="#0042a6" stroke-linecap="round" stroke-linejoin="round" stroke-width="1.7"/>
  <path id="패스_63376" data-name="패스 63376" d="M5.824,16a3,3,0,0,1-2.743-3.69,3,3,0,0,1,.3-4.833A3,3,0,0,1,8,3.77a3,3,0,0,1,4.614,3.707,3,3,0,0,1,.305,4.833A3,3,0,0,1,10,16.005H6Z" fill="none" stroke="#0042a6" stroke-linecap="round" stroke-linejoin="round" stroke-width="1.7"/>
</svg>
