<svg id="buildings" xmlns="http://www.w3.org/2000/svg" width="24" height="24" viewBox="0 0 24 24">
  <path id="패스_63347" data-name="패스 63347" d="M0,0H24V24H0Z" fill="none"/>
  <path id="패스_63348" data-name="패스 63348" d="M4,21.545V6.064A2.22,2.22,0,0,1,6.064,4h5.16a2.22,2.22,0,0,1,2.064,2.064V21.545" transform="translate(-0.077 -0.642)" fill="none" stroke="#0042a6" stroke-linecap="round" stroke-linejoin="round" stroke-width="1.7"/>
  <path id="패스_63349" data-name="패스 63349" d="M16,8h2.064a2.22,2.22,0,0,1,2.064,2.064V21.417" transform="translate(-0.103 -0.513)" fill="none" stroke="#0042a6" stroke-linecap="round" stroke-linejoin="round" stroke-width="1.7"/>
  <path id="패스_63350" data-name="패스 63350" d="M3,21H20.807" transform="translate(0.096 -0.096)" fill="none" stroke="#0042a6" stroke-linecap="round" stroke-linejoin="round" stroke-width="1.7"/>
  <path id="패스_63351" data-name="패스 63351" d="M10,12h0" transform="translate(0)" fill="none" stroke="#0042a6" stroke-linecap="round" stroke-linejoin="round" stroke-width="1.7"/>
  <path id="패스_63352" data-name="패스 63352" d="M10,16h0" transform="translate(0 0)" fill="none" stroke="#0042a6" stroke-linecap="round" stroke-linejoin="round" stroke-width="1.7"/>
  <path id="패스_63353" data-name="패스 63353" d="M10,8h0" transform="translate(0 0)" fill="none" stroke="#0042a6" stroke-linecap="round" stroke-linejoin="round" stroke-width="1.7"/>
  <path id="패스_63354" data-name="패스 63354" d="M7,12H7" transform="translate(0)" fill="none" stroke="#0042a6" stroke-linecap="round" stroke-linejoin="round" stroke-width="1.7"/>
  <path id="패스_63355" data-name="패스 63355" d="M7,16H7" transform="translate(0 0)" fill="none" stroke="#0042a6" stroke-linecap="round" stroke-linejoin="round" stroke-width="1.7"/>
  <path id="패스_63356" data-name="패스 63356" d="M7,8H7" transform="translate(0 0)" fill="none" stroke="#0042a6" stroke-linecap="round" stroke-linejoin="round" stroke-width="1.7"/>
  <path id="패스_63357" data-name="패스 63357" d="M17,12h0" transform="translate(0)" fill="none" stroke="#0042a6" stroke-linecap="round" stroke-linejoin="round" stroke-width="1.7"/>
  <path id="패스_63358" data-name="패스 63358" d="M17,16h0" transform="translate(0 0)" fill="none" stroke="#0042a6" stroke-linecap="round" stroke-linejoin="round" stroke-width="1.7"/>
</svg>
