<svg id="clipboard-data" xmlns="http://www.w3.org/2000/svg" width="48" height="48" viewBox="0 0 48 48">
  <path id="패스_64982" data-name="패스 64982" d="M0,0H48V48H0Z" fill="none"/>
  <path id="패스_64983" data-name="패스 64983" d="M12.894,5H8.947A4.012,4.012,0,0,0,5,9.074V33.521A4.012,4.012,0,0,0,8.947,37.6H28.681a4.012,4.012,0,0,0,3.947-4.074V9.074A4.012,4.012,0,0,0,28.681,5H24.734" transform="translate(5.186 4.292)" fill="none" stroke="#000" stroke-linecap="round" stroke-linejoin="round" stroke-width="3"/>
  <path id="패스_64984" data-name="패스 64984" d="M9,3,9,7.074A4.074,4.074,0,0,1,13.074,3h4.074a4.074,4.074,0,0,1,4.074,4.074h0a4.074,4.074,0,0,1-4.074,4.074H13.074A4.074,4.074,0,0,1,9,7.074Z" transform="translate(8.888 3.112)" fill="none" stroke="#000" stroke-linecap="round" stroke-linejoin="round" stroke-width="3"/>
  <path id="패스_64985" data-name="패스 64985" d="M9,21.149V13" transform="translate(9 12.903)" fill="none" stroke="#000" stroke-linecap="round" stroke-linejoin="round" stroke-width="3"/>
  <path id="패스_64986" data-name="패스 64986" d="M12,18.037V16" transform="translate(12 15.974)" fill="none" stroke="#000" stroke-linecap="round" stroke-linejoin="round" stroke-width="3"/>
  <path id="패스_64987" data-name="패스 64987" d="M15,19.074V15" transform="translate(15 14.949)" fill="none" stroke="#000" stroke-linecap="round" stroke-linejoin="round" stroke-width="3"/>
  <path id="패스_64988" data-name="패스 64988" d="M12,18.037V16" transform="translate(12 15.974)" fill="none" stroke="#000" stroke-linecap="round" stroke-linejoin="round" stroke-width="3"/>
</svg>
