<svg width="35" height="35" viewBox="0 0 35 35" fill="none" xmlns="http://www.w3.org/2000/svg">
<path d="M14.5488 13.1351C14.5488 13.7187 14.7219 14.2893 15.0462 14.7746C15.3704 15.2599 15.8313 15.6381 16.3705 15.8615C16.9098 16.0848 17.5031 16.1432 18.0755 16.0294C18.648 15.9155 19.1738 15.6345 19.5865 15.2218C19.9992 14.809 20.2803 14.2832 20.3941 13.7108C20.508 13.1384 20.4496 12.545 20.2262 12.0058C20.0028 11.4666 19.6246 11.0057 19.1393 10.6814C18.654 10.3572 18.0835 10.1841 17.4998 10.1841C16.7172 10.1841 15.9666 10.495 15.4132 11.0484C14.8597 11.6018 14.5488 12.3524 14.5488 13.1351Z" stroke="black" stroke-width="2" stroke-linecap="round" stroke-linejoin="round"/>
<path d="M5.81982 11.7201V8.77107C5.81982 7.98841 6.13073 7.23782 6.68415 6.6844C7.23757 6.13098 7.98817 5.82007 8.77082 5.82007H11.7198" stroke="black" stroke-width="2" stroke-linecap="round" stroke-linejoin="round"/>
<path d="M5.81982 23.2791V26.2301C5.82035 27.0124 6.1315 27.7624 6.68486 28.3154C7.23822 28.8684 7.98852 29.1791 8.77082 29.1791H11.7198" stroke="black" stroke-width="2" stroke-linecap="round" stroke-linejoin="round"/>
<path d="M23.2788 5.82007H26.2298C27.0121 5.8206 27.7622 6.13174 28.3152 6.6851C28.8682 7.23847 29.1788 7.98876 29.1788 8.77107V11.7201" stroke="black" stroke-width="2" stroke-linecap="round" stroke-linejoin="round"/>
<path d="M23.2788 29.1791H26.2298C27.0118 29.1785 27.7616 28.8677 28.3145 28.3147C28.8674 27.7618 29.1783 27.012 29.1788 26.2301V23.2791" stroke="black" stroke-width="2" stroke-linecap="round" stroke-linejoin="round"/>
<path d="M11.5981 23.346C11.5981 22.5634 11.9091 21.8128 12.4625 21.2593C13.0159 20.7059 13.7665 20.395 14.5491 20.395H20.4491C21.2315 20.3955 21.9815 20.7067 22.5345 21.2601C23.0875 21.8134 23.3981 22.5637 23.3981 23.346" stroke="black" stroke-width="2" stroke-linecap="round" stroke-linejoin="round"/>
</svg>
