<svg xmlns="http://www.w3.org/2000/svg" width="109" height="77" viewBox="0 0 109 77">
  <g id="youtube_icon" data-name="youtube icon" transform="translate(-14.308 -390.653)">
    <g id="그룹_18" data-name="그룹 18">
      <path id="패스_90" data-name="패스 90" d="M121.031,402.677a13.714,13.714,0,0,0-9.637-9.725c-8.5-2.3-42.586-2.3-42.586-2.3s-34.085,0-42.586,2.3a13.714,13.714,0,0,0-9.637,9.725c-2.278,8.578-2.278,26.476-2.278,26.476s0,17.9,2.278,26.476a13.716,13.716,0,0,0,9.637,9.726c8.5,2.3,42.586,2.3,42.586,2.3s34.085,0,42.586-2.3a13.716,13.716,0,0,0,9.637-9.726c2.277-8.578,2.277-26.476,2.277-26.476S123.308,411.255,121.031,402.677Z" fill="#cd161b"/>
      <path id="패스_91" data-name="패스 91" d="M57.661,445.4l28.489-16.25L57.661,412.9Z" fill="#fff"/>
    </g>
  </g>
</svg>
