<svg xmlns="http://www.w3.org/2000/svg" xmlns:xlink="http://www.w3.org/1999/xlink" width="21" height="21" viewBox="0 0 21 21">
  <defs>
    <clipPath id="clip-path">
      <rect id="사각형_25140" data-name="사각형 25140" width="21" height="21" fill="#fff" stroke="#222" stroke-width="1"/>
    </clipPath>
  </defs>
  <g id="마스크_그룹_40971" data-name="마스크 그룹 40971" clip-path="url(#clip-path)">
    <g id="그룹_51900" data-name="그룹 51900" transform="translate(1.5 1.341)">
      <path id="패스_62703" data-name="패스 62703" d="M4.35,15.447H1.95A1.222,1.222,0,0,1,.75,14.2V7.992a1.222,1.222,0,0,1,1.2-1.243h15.6a1.222,1.222,0,0,1,1.2,1.243V14.2a1.222,1.222,0,0,1-1.2,1.243h-2.4" transform="translate(-0.75 -1.779)" fill="none" stroke="#666" stroke-linecap="round" stroke-linejoin="round" stroke-width="1.5"/>
      <path id="패스_62704" data-name="패스 62704" d="M3.75,9.749H4.993" transform="translate(-1.265 -2.196)" fill="none" stroke="#666" stroke-linecap="round" stroke-linejoin="round" stroke-width="1.5"/>
      <path id="패스_62705" data-name="패스 62705" d="M5.25,12.749H15.795v8.7H5.25Z" transform="translate(-1.522 -3.282)" fill="none" stroke="#666" stroke-linecap="round" stroke-linejoin="round" stroke-width="1.5"/>
      <path id="패스_62706" data-name="패스 62706" d="M15.795,5.719H5.25V1.992A1.209,1.209,0,0,1,6.422.749h8.2a1.209,1.209,0,0,1,1.172,1.243Z" transform="translate(-1.522 -0.749)" fill="none" stroke="#666" stroke-linecap="round" stroke-linejoin="round" stroke-width="1.5"/>
      <path id="패스_62707" data-name="패스 62707" d="M8.25,15.749h6.213" transform="translate(-2.356 -3.48)" fill="none" stroke="#666" stroke-linecap="round" stroke-linejoin="round" stroke-width="1.5"/>
      <path id="패스_62708" data-name="패스 62708" d="M8.25,18.749H12.6" transform="translate(-2.315 -4.247)" fill="none" stroke="#666" stroke-linecap="round" stroke-linejoin="round" stroke-width="1.5"/>
    </g>
  </g>
</svg>
