<svg xmlns="http://www.w3.org/2000/svg" width="34" height="34" viewBox="0 0 34 34">
  <g id="입찰_icon" data-name="입찰 icon" transform="translate(-2052 -681)">
    <rect id="Rectangle_6_copy_2" data-name="Rectangle 6 copy 2" width="34" height="34" transform="translate(2052 681)" fill="none"/>
    <g id="Vector_Smart_Object3" data-name="Vector Smart Object3" transform="translate(1721.775 169.525)">
      <path id="패스_38" data-name="패스 38" d="M360.077,515.447a1.963,1.963,0,0,0-2.777,0l-5.252,6.692,1.5,1.5,6.527-5.418A1.962,1.962,0,0,0,360.077,515.447Z" fill="none" stroke="#fff" stroke-linecap="round" stroke-linejoin="round" stroke-width="1"/>
      <path id="빼기_2" data-name="빼기 2" d="M20677.266,23383.082a2.734,2.734,0,0,1-2.729-2.717h5.457A2.734,2.734,0,0,1,20677.266,23383.082Z" transform="translate(2251.511 -30617.686) rotate(45)" fill="rgba(0,0,0,0)" stroke="#fff" stroke-linecap="round" stroke-linejoin="round" stroke-width="1"/>
      <path id="패스_39" data-name="패스 39" d="M352.746,531.633a6.261,6.261,0,0,0-8.855-8.855l-6.133,4.247,10.654,10.654Z" fill="none" stroke="#fff" stroke-linecap="round" stroke-linejoin="round" stroke-width="1"/>
      <path id="사각형_25" data-name="사각형 25" d="M3.455,0H14.969a3.455,3.455,0,0,1,3.455,3.455v.7a0,0,0,0,1,0,0H0a0,0,0,0,1,0,0v-.7A3.455,3.455,0,0,1,3.455,0Z" transform="translate(336.599 525.897) rotate(45)" fill="none" stroke="#fff" stroke-linecap="round" stroke-linejoin="round" stroke-width="1"/>
    </g>
  </g>
</svg>
