<svg xmlns="http://www.w3.org/2000/svg" xmlns:xlink="http://www.w3.org/1999/xlink" width="21" height="21" viewBox="0 0 21 21">
  <defs>
    <clipPath id="clip-path">
      <rect id="사각형_25141" data-name="사각형 25141" width="21" height="21" fill="#fff" stroke="#fff" stroke-width="1"/>
    </clipPath>
  </defs>
  <g id="마스크_그룹_40972" data-name="마스크 그룹 40972" clip-path="url(#clip-path)">
    <path id="share" d="M15.723,1.165A1.747,1.747,0,1,0,17.47,2.912a1.747,1.747,0,0,0-1.747-1.747M12.811,2.912a2.912,2.912,0,1,1,.7,1.9L5.689,8.441a2.912,2.912,0,0,1,0,1.752l7.824,3.634a2.912,2.912,0,1,1-.568,1.02L5.121,11.213a2.912,2.912,0,1,1,0-3.792l7.824-3.634a2.912,2.912,0,0,1-.134-.876M2.912,7.57A1.747,1.747,0,1,0,4.659,9.317,1.747,1.747,0,0,0,2.912,7.57m12.811,6.406a1.747,1.747,0,1,0,1.747,1.747,1.747,1.747,0,0,0-1.747-1.747" transform="translate(1.183 1.182)" fill="#666" stroke="#666" stroke-width="0.5"/>
  </g>
</svg>
