<svg xmlns="http://www.w3.org/2000/svg" xmlns:xlink="http://www.w3.org/1999/xlink" width="21" height="21" viewBox="0 0 21 21">
  <defs>
    <clipPath id="clip-path">
      <rect id="사각형_24824" data-name="사각형 24824" width="13.312" height="17.44" transform="translate(0 0)" fill="none"/>
    </clipPath>
  </defs>
  <g id="sns_icon_02" data-name="sns_icon 02" transform="translate(3.844 1.781)">
    <rect id="사각형_24825" data-name="사각형 24825" width="21" height="21" transform="translate(-3.844 -1.781)" fill="none" opacity="0.1"/>
    <g id="그룹_51760" data-name="그룹 51760" transform="translate(0 0)" clip-path="url(#clip-path)">
      <path id="패스_62248" data-name="패스 62248" d="M7.556,4.869A5.424,5.424,0,0,0,4.085,6.476V0H0V17.015H4.127V15.682a3.916,3.916,0,0,0,3.43,1.758,6.018,6.018,0,0,0,5.756-6.349S13.1,4.869,7.556,4.869m-.9,8.98a2.625,2.625,0,1,1,2.624-2.625,2.626,2.626,0,0,1-2.624,2.625" transform="translate(0 0)" fill="#fff"/>
    </g>
  </g>
</svg>
