<svg xmlns="http://www.w3.org/2000/svg" xmlns:xlink="http://www.w3.org/1999/xlink" width="21" height="21" viewBox="0 0 21 21">
  <defs>
    <clipPath id="clip-path">
      <rect id="사각형_24832" data-name="사각형 24832" width="16.486" height="16.486" fill="#fff"/>
    </clipPath>
  </defs>
  <g id="sns_icon_03" data-name="sns_icon 03" transform="translate(-1628 -3981)">
    <rect id="사각형_24833" data-name="사각형 24833" width="21" height="21" transform="translate(1628 3981)" fill="none" opacity="0.1"/>
    <g id="그룹_51762" data-name="그룹 51762" transform="translate(1630.258 3983.258)">
      <g id="그룹_51761" data-name="그룹 51761" clip-path="url(#clip-path)">
        <path id="패스_62249" data-name="패스 62249" d="M8.243,1.485c2.2,0,2.462.008,3.331.048a4.562,4.562,0,0,1,1.531.284,2.552,2.552,0,0,1,.948.617,2.551,2.551,0,0,1,.617.948,4.565,4.565,0,0,1,.284,1.531c.04.869.048,1.13.048,3.331s-.008,2.462-.048,3.331a4.563,4.563,0,0,1-.284,1.531A2.729,2.729,0,0,1,13.1,14.669a4.559,4.559,0,0,1-1.531.284c-.869.04-1.13.048-3.331.048s-2.462-.008-3.331-.048a4.558,4.558,0,0,1-1.531-.284,2.553,2.553,0,0,1-.948-.616,2.553,2.553,0,0,1-.617-.948,4.562,4.562,0,0,1-.284-1.531c-.04-.869-.048-1.13-.048-3.331s.008-2.462.048-3.331a4.564,4.564,0,0,1,.284-1.531,2.55,2.55,0,0,1,.617-.948,2.552,2.552,0,0,1,.948-.617,4.562,4.562,0,0,1,1.531-.284c.869-.04,1.13-.048,3.331-.048M8.243,0C6,0,5.723.01,4.844.05a6.051,6.051,0,0,0-2,.383,4.042,4.042,0,0,0-1.46.951,4.044,4.044,0,0,0-.951,1.46,6.05,6.05,0,0,0-.383,2C.009,5.723,0,6,0,8.243s.009,2.519.05,3.4a6.05,6.05,0,0,0,.383,2,4.044,4.044,0,0,0,.951,1.46,4.048,4.048,0,0,0,1.46.951,6.056,6.056,0,0,0,2,.383c.879.04,1.16.05,3.4.05s2.519-.009,3.4-.05a6.053,6.053,0,0,0,2-.383,4.214,4.214,0,0,0,2.411-2.411,6.048,6.048,0,0,0,.383-2c.04-.879.05-1.16.05-3.4s-.009-2.519-.05-3.4a6.048,6.048,0,0,0-.383-2,4.043,4.043,0,0,0-.951-1.46,4.041,4.041,0,0,0-1.46-.951,6.049,6.049,0,0,0-2-.383C10.762.01,10.481,0,8.243,0" transform="translate(0 0)" fill="#fff"/>
        <path id="패스_62250" data-name="패스 62250" d="M62.841,58.609a4.233,4.233,0,1,0,4.233,4.233,4.233,4.233,0,0,0-4.233-4.233m0,6.98a2.748,2.748,0,1,1,2.748-2.748,2.747,2.747,0,0,1-2.748,2.748" transform="translate(-54.598 -54.599)" fill="#fff"/>
        <path id="패스_62251" data-name="패스 62251" d="M172.3,42.7a.989.989,0,1,1-.989-.989.989.989,0,0,1,.989.989" transform="translate(-158.67 -38.852)" fill="#fff"/>
      </g>
    </g>
  </g>
</svg>
