<svg id="logo_CI" xmlns="http://www.w3.org/2000/svg" xmlns:xlink="http://www.w3.org/1999/xlink" width="38" height="43" viewBox="0 0 38 43">
  <defs>
    <clipPath id="clip-path">
      <rect id="사각형_20765" data-name="사각형 20765" width="38" height="43" fill="none"/>
    </clipPath>
  </defs>
  <g id="그룹_40928" data-name="그룹 40928" clip-path="url(#clip-path)">
    <path id="패스_36448" data-name="패스 36448" d="M35.08.5a.652.652,0,0,0-.641-.5H19.147a4.895,4.895,0,0,0-2.459.665L2.459,8.952A4.986,4.986,0,0,0,0,13.249V29.823a4.97,4.97,0,0,0,2.459,4.3l3.88,2.26a1.072,1.072,0,0,0,1.083,0l8.519-5a.346.346,0,0,0,0-.6L9.6,27.1V16.03l.187-.158L17.975,11.1l16.8-9.849A.659.659,0,0,0,35.08.5" fill="#00479b"/>
    <path id="패스_36449" data-name="패스 36449" d="M50.659,54.952V38.378a4.97,4.97,0,0,0-2.46-4.3l-3.88-2.26a1.072,1.072,0,0,0-1.083,0l-8.519,5a.346.346,0,0,0,0,.6l6.337,3.691V52.172l-.187.158L32.684,57.1l-16.8,9.849a.659.659,0,0,0-.308.755.652.652,0,0,0,.641.5H31.513a4.895,4.895,0,0,0,2.459-.665L48.2,59.249a4.985,4.985,0,0,0,2.459-4.3" transform="translate(-12.366 -25.121)" fill="#00a2a2"/>
    <path id="패스_36450" data-name="패스 36450" d="M58.805,70.1v7.223a.266.266,0,0,0,.4.233l6.676-3.9v-7.9L58.98,69.8a.354.354,0,0,0-.175.306" transform="translate(-46.743 -52.154)" fill="#00a2a2"/>
    <path id="패스_36451" data-name="패스 36451" d="M100.378,70.1v7.223a.266.266,0,0,1-.4.233l-6.676-3.9v-7.9l6.9,4.037a.354.354,0,0,1,.175.306" transform="translate(-74.165 -52.154)" fill="#00479b"/>
  </g>
</svg>
