<svg xmlns="http://www.w3.org/2000/svg" width="253" height="21" viewBox="0 0 253 21">
  <g id="logo" transform="translate(-7 -1)">
    <g id="그룹_8974" data-name="그룹 8974" transform="translate(7 3)">
      <path id="패스_15026" data-name="패스 15026" d="M30.533,9.357a57.493,57.493,0,0,1,4.616,4.912c-5.56.1-17.007.149-18.317-.447-1.638-.744-4.914-4.614-4.468-4.763S30.087,9.208,30.533,9.357Z" transform="translate(-7 -3)" fill="#fff"/>
      <path id="패스_15027" data-name="패스 15027" d="M36.192,15.906a51.472,51.472,0,0,1,4.319,5.061c-5.56,0-16.947.179-18.019-.3-1.34-.6-5.212-4.763-5.063-5.061S35.745,15.757,36.192,15.906Z" transform="translate(-7 -3)" fill="#fff"/>
      <path id="패스_15028" data-name="패스 15028" d="M33.81,4.891C35.477,5.963,39.965,15.46,42,20.074,38.625,16.2,31.725,8.4,31.129,8.166c-.745-.3-18.019,0-19.21-.447S6.855,3.4,7,3.1s6.4.149,15.041,0S31.725,3.551,33.81,4.891Z" transform="translate(-7 -3)" fill="#fff"/>
    </g>
    <g id="그룹_8975" data-name="그룹 8975" transform="translate(83.884 1)">
      <path id="패스_15029" data-name="패스 15029" d="M89.14,9.085v4.831A3.353,3.353,0,0,0,92.608,17.5a6.246,6.246,0,0,0,2.645-.483,4.989,4.989,0,0,1,1.3-.534,1.928,1.928,0,0,1,2.146.966,2.205,2.205,0,0,1-.649,2.9A8.82,8.82,0,0,1,92.608,22C88.292,22,84,19.763,84,14.144V8.856C84,3.237,88.292,1,92.608,1a8.6,8.6,0,0,1,4.916,1.246,2.331,2.331,0,0,1,.923,3.025,2.143,2.143,0,0,1-2.271,1.093A6.015,6.015,0,0,1,94.8,5.831a5.639,5.639,0,0,0-2.2-.331A3.353,3.353,0,0,0,89.14,9.085Z" transform="translate(-84 -1)" fill="#fff"/>
    </g>
    <g id="그룹_8976" data-name="그룹 8976" transform="translate(45 1)">
      <path id="패스_15030" data-name="패스 15030" d="M49.018,1h3.838C57.312,1,62,3.4,62,10.652v1.7C62,19.6,57.312,22,52.856,22H49.018C45.927,22,45,20.878,45,17.878V5.122C45,2.122,45.927,1,49.018,1Zm7.727,11.765v-2.53c0-3.052-1.623-4.722-4.044-4.722H51c-.592,0-.747.13-.747.757V16.73c0,.626.155.757.747.757h1.7C55.123,17.487,56.745,15.817,56.745,12.765Z" transform="translate(-45 -1)" fill="#fff"/>
    </g>
    <g id="그룹_8977" data-name="그룹 8977" transform="translate(66.061 1.195)">
      <path id="패스_15031" data-name="패스 15031" d="M71.525,7.766A7.839,7.839,0,0,1,66.15,9.683l1.881,5.2a11.373,11.373,0,0,0,6.181-1.643c2.58-1.533,5.2-6.114,6.181-8.213L78.512,1.2a6.73,6.73,0,0,0-3.494,2.464,23.7,23.7,0,0,1-3.494,4.107Z" transform="translate(-66.15 -1.195)" fill="#fff"/>
    </g>
    <g id="그룹_8978" data-name="그룹 8978" transform="translate(63.917 2.001)">
      <path id="패스_15032" data-name="패스 15032" d="M70,5a3,3,0,1,1-3-3A3,3,0,0,1,70,5Z" transform="translate(-64 -2.001)" fill="#fff"/>
    </g>
    <g id="그룹_8979" data-name="그룹 8979" transform="translate(63.917 9.001)">
      <path id="패스_15033" data-name="패스 15033" d="M64,12a3,3,0,0,1,6,0v7a3,3,0,0,1-6,0Z" transform="translate(-64 -9.001)" fill="#fff"/>
    </g>
    <g id="그룹_8980" data-name="그룹 8980" transform="translate(75.9 1)">
      <path id="패스_15034" data-name="패스 15034" d="M82,19a3,3,0,0,1-6,0V4a3,3,0,0,1,6,0Z" transform="translate(-76 -1)" fill="#fff"/>
    </g>
    <g id="그룹_8981" data-name="그룹 8981" transform="translate(101.72 1.52)">
      <path id="패스_15035" data-name="패스 15035" d="M115.78,11.38V3.72a1.908,1.908,0,0,1,2.02-1.98,1.93,1.93,0,0,1,2.02,1.98v7.66ZM102.08,6.9V6.36c0-3.18,2.28-4.4,5.7-4.4s5.7,1.22,5.7,4.4V6.9c0,3.18-2.28,4.4-5.7,4.4S102.08,10.08,102.08,6.9Zm3.94-.68v.82c0,1,.7,1.44,1.76,1.44s1.76-.44,1.76-1.44V6.22c0-.98-.7-1.44-1.76-1.44S106.02,5.24,106.02,6.22Zm13.18,14.3H105.7a2.668,2.668,0,0,1-2.84-2.72v-.24c0-1.44,1.02-2.36,2.84-2.36h10.06v-.52c0-.24-.06-.32-.32-.32H104.18a1.068,1.068,0,0,1-1.1-1.18,1.083,1.083,0,0,1,1.1-1.16h13.2c1.78,0,2.44.52,2.44,2.1v3.2h-12.3a.386.386,0,0,0-.44.38v.06a.386.386,0,0,0,.44.38H119.2a1.12,1.12,0,0,1,1.14,1.22A1.082,1.082,0,0,1,119.2,20.52Z" transform="translate(-102.08 -1.52)" fill="#fff"/>
      <path id="패스_15036" data-name="패스 15036" d="M125.6,7.98V5.92h-2.56a1.594,1.594,0,0,1-1.68-1.7,1.607,1.607,0,0,1,1.68-1.72h9.04a1.575,1.575,0,0,1,1.64,1.72,1.562,1.562,0,0,1-1.64,1.7h-2.6V8.08a20.769,20.769,0,0,1-.16,2.58c2.88,1,4.64,3.26,4.42,8.74H130c.24-2.66-.3-4.3-1.5-5.18a8.484,8.484,0,0,1-4.58,5.14,2.038,2.038,0,0,1-2.48-.7,1.624,1.624,0,0,1,.6-2.18C124.54,14.92,125.6,12.42,125.6,7.98Zm9.68,12.54V3.68a1.866,1.866,0,0,1,1.98-1.94,1.888,1.888,0,0,1,1.98,1.94V8.74h.66a1.544,1.544,0,0,1,1.58,1.74,1.546,1.546,0,0,1-1.58,1.74h-.66v8.3Z" transform="translate(-102.08 -1.52)" fill="#fff"/>
      <path id="패스_15037" data-name="패스 15037" d="M146.2,13.4v2.14c0,.7.22.86.92.86h5.9a1.641,1.641,0,1,1,0,3.28h-7.38c-2.5,0-3.46-.9-3.46-3.4V12.64c0-2.5.96-3.36,3.46-3.36h3.58V6.38c0-.26-.08-.56-.54-.56h-4.6a1.581,1.581,0,0,1-1.7-1.66,1.594,1.594,0,0,1,1.7-1.68h5.66c2.76,0,3.5.78,3.5,3.06v7h-6.12C146.42,12.54,146.2,12.7,146.2,13.4Zm13.62,7.12h-4V3.72a2,2,0,0,1,4,0Z" transform="translate(-102.08 -1.52)" fill="#fff"/>
      <path id="패스_15038" data-name="패스 15038" d="M167.18,12.88c-2.7,0-5-1.34-5-4.18V7.44a2.6,2.6,0,0,1,.42-1.38,1.348,1.348,0,0,1-1.24-1.38,1.437,1.437,0,0,1,1.48-1.48h2.34a2.03,2.03,0,0,1,4,0h2.34a1.408,1.408,0,0,1,1.46,1.48,1.324,1.324,0,0,1-1.24,1.4,2.482,2.482,0,0,1,.42,1.36V8.7C172.16,11.54,169.88,12.88,167.18,12.88Zm8.22,3.94H164.58a1.587,1.587,0,1,1,0-3.16h12.38c2.5,0,2.96.68,2.96,3.08v3.78h-4.04V17.3A.433.433,0,0,0,175.4,16.82Zm.46-3.86V11.28h-1.18a1.375,1.375,0,0,1-1.48-1.5,1.368,1.368,0,0,1,1.48-1.48h1.18V7.08h-1.18a1.375,1.375,0,0,1-1.48-1.5,1.368,1.368,0,0,1,1.48-1.48h1.18V3.68a1.866,1.866,0,0,1,1.98-1.94,1.888,1.888,0,0,1,1.98,1.94v9.28Zm-8.68-2.92a1.394,1.394,0,0,0,1.4-1.46V7.44a1.4,1.4,0,1,0-2.8,0V8.58A1.394,1.394,0,0,0,167.18,10.04Z" transform="translate(-102.08 -1.52)" fill="#fff"/>
      <path id="패스_15039" data-name="패스 15039" d="M182.58,9.48c2-.72,3.22-2.26,3.22-5.22V3.9a1.863,1.863,0,0,1,2.08-1.86,1.843,1.843,0,0,1,1.96,1.86v.36a10.986,10.986,0,0,1-.12,1.66c2.9.38,4.78,2.28,4.64,6.56h-3.9c.14-2.02-.44-3.2-1.78-3.48a7.1,7.1,0,0,1-4.98,3.66,1.746,1.746,0,0,1-2.04-1.12A1.584,1.584,0,0,1,182.58,9.48Zm16.08,11.04H186.04c-2.24,0-2.84-.78-2.84-2.92V15.56a1.877,1.877,0,0,1,2.06-1.98,1.842,1.842,0,0,1,2,1.98v1.36c0,.44.1.5.54.5h10.86a1.555,1.555,0,1,1,0,3.1Zm-2.88-4.64V3.72a1.908,1.908,0,0,1,2.02-1.98,1.93,1.93,0,0,1,2.02,1.98V15.88Z" transform="translate(-102.08 -1.52)" fill="#fff"/>
      <path id="패스_15040" data-name="패스 15040" d="M219.08,20.52h-14.4a2.259,2.259,0,0,1-2.48-2.36v-.12c0-1.36.82-2.16,2.48-2.16h10.74v-.36c0-.24-.08-.3-.36-.3h-11.6a1.023,1.023,0,0,1-1.06-1.04,1,1,0,0,1,1.06-1.06h13.92c1.66,0,2.16.58,2.16,1.76V17.7h-12.7a.33.33,0,0,0-.36.34c0,.2.1.32.36.32h12.24a1.082,1.082,0,0,1,0,2.16ZM203.54,6.74h1.58c.02-1.22.84-1.8,2.06-1.8a1.776,1.776,0,0,1,2.02,1.8h3.6c.02-1.22.84-1.8,2.06-1.8a1.776,1.776,0,0,1,2.02,1.8h1.62a1.189,1.189,0,0,1,1.36,1.24,1.191,1.191,0,0,1-1.36,1.28H203.54a1.223,1.223,0,0,1-1.4-1.28A1.223,1.223,0,0,1,203.54,6.74Zm-.5,3.18h15.9a1.238,1.238,0,0,1,1.42,1.28c0,.72-.4,1.28-1.42,1.28h-15.9c-1,0-1.4-.56-1.4-1.28A1.231,1.231,0,0,1,203.04,9.92Zm.76-7.9h14.36a1.237,1.237,0,0,1,1.4,1.26,1.237,1.237,0,0,1-1.4,1.3H203.8a1.205,1.205,0,0,1-1.36-1.3A1.2,1.2,0,0,1,203.8,2.02Z" transform="translate(-102.08 -1.52)" fill="#fff"/>
      <path id="패스_15041" data-name="패스 15041" d="M236.64,13.58V8.88h-.94v4h-3.48V3.44a1.635,1.635,0,0,1,1.74-1.7,1.657,1.657,0,0,1,1.74,1.7V5.8h.94V3.44a1.635,1.635,0,0,1,1.74-1.7,1.673,1.673,0,0,1,1.76,1.7V13.58Zm-6.22-.86h-5.34a3.042,3.042,0,0,1-3.1-3.22V9.1a2.783,2.783,0,0,1,3.1-2.92h2.34V5.5c0-.3-.08-.38-.44-.38h-3.56a1.322,1.322,0,0,1-1.34-1.4,1.335,1.335,0,0,1,1.34-1.44h4.78c2.04,0,2.86,1.02,2.86,2.52V8.82H226.4a.48.48,0,0,0-.54.48v.12c0,.26.18.46.54.46h4.02a1.33,1.33,0,0,1,1.32,1.44A1.284,1.284,0,0,1,230.42,12.72Zm3.2,2.34v.06c3.1-.12,6.58,1.36,7.14,5.4h-4.1c-.48-1.72-2.34-2.72-4.5-2.46a11.143,11.143,0,0,1-7.92,2.64,1.732,1.732,0,0,1-1.64-1.84,1.537,1.537,0,0,1,1.72-1.48c1.8.08,4.42-.64,5.22-2.46.56-1.26,1.24-1.68,2.28-1.62A1.659,1.659,0,0,1,233.62,15.06Z" transform="translate(-102.08 -1.52)" fill="#fff"/>
      <path id="패스_15042" data-name="패스 15042" d="M243.58,7.1h1.56V6.98c0-1.26.84-1.84,2.06-1.84,1.2,0,2.02.6,2.02,1.84V7.1h3.56V6.98c0-1.26.84-1.84,2.06-1.84,1.2,0,2.02.6,2.02,1.84V7.1h1.56a1.285,1.285,0,0,1,1.44,1.34,1.277,1.277,0,0,1-1.44,1.34h-5.4v.86h5.9a1.3,1.3,0,0,1,1.44,1.38,1.3,1.3,0,0,1-1.44,1.38H243.08a1.3,1.3,0,0,1-1.44-1.38,1.3,1.3,0,0,1,1.44-1.38h5.9V9.78h-5.4a1.277,1.277,0,0,1-1.44-1.34A1.285,1.285,0,0,1,243.58,7.1Zm15.94,13.42H245.06c-2.26,0-2.58-.56-2.58-2.74v-.9c0-2.18.32-2.74,2.58-2.74h11.88c2.26,0,2.58.56,2.58,2.74ZM243.88,2.02h14.24a1.29,1.29,0,0,1,1.44,1.36,1.282,1.282,0,0,1-1.44,1.36H243.88a1.282,1.282,0,0,1-1.44-1.36A1.29,1.29,0,0,1,243.88,2.02Zm2.66,15.08v.42c0,.32.08.42.38.42h8.54V17.1c0-.28-.1-.38-.42-.38h-8.12C246.62,16.72,246.54,16.82,246.54,17.1Z" transform="translate(-102.08 -1.52)" fill="#fff"/>
    </g>
  </g>
</svg>
