<svg width="420" height="200" viewBox="0 0 420 200" fill="none" xmlns="http://www.w3.org/2000/svg">
    <g clip-path="url(#clip_400)">
        <path d="M124.952 87.834C124.952 82.602 125.381 73.994 125.695 68.762H125.067C122.556 73.509 119.731 77.862 116.906 82.807L93.521 116.828H150.815V127.057H80V118.586L122.825 55H137.168V154.547H124.952V87.834Z" fill="black"/>
        <path d="M195.382 152.218C182.503 152.248 170.132 147.192 160.961 138.15C156.525 133.788 152.982 128.602 150.531 122.884C148.006 116.974 146.704 110.614 146.704 104.187C146.704 97.7602 148.006 91.4 150.531 85.49C152.982 79.7715 156.525 74.586 160.961 70.224C170.14 61.189 182.502 56.1251 195.381 56.1251C208.261 56.1251 220.624 61.189 229.802 70.224C234.239 74.586 237.782 79.7715 240.233 85.49C242.758 91.4 244.06 97.7602 244.06 104.187C244.06 110.614 242.758 116.974 240.233 122.884C237.782 128.602 234.239 133.788 229.802 138.15C220.631 147.192 208.261 152.248 195.382 152.218ZM195.382 62.548C172.113 62.548 153.182 81.227 153.182 104.187C153.182 127.147 172.112 145.826 195.382 145.826C218.652 145.826 237.582 127.147 237.582 104.187C237.582 81.227 218.651 62.548 195.382 62.548Z" fill="black" stroke="black" stroke-width="3"/>
        <path d="M186.453 88.0116L175.814 98.65L178.177 101.013L188.816 90.3748L186.453 88.0116Z" fill="#C12626"/>
        <path d="M178.177 88.0109L175.814 90.374L186.453 101.012L188.816 98.6493L178.177 88.0109Z" fill="#C12626"/>
        <path d="M214.536 88.0116L203.898 98.65L206.261 101.013L216.9 90.3748L214.536 88.0116Z" fill="#C12626"/>
        <path d="M206.261 88.0109L203.898 90.374L214.536 101.012L216.9 98.6493L206.261 88.0109Z" fill="#C12626"/>
        <path d="M177.789 101.581L174.604 98.402L178.738 94.261L174.597 90.127L177.776 86.942L181.917 91.076L186.051 86.935L189.236 90.114L185.102 94.2551L189.243 98.389L186.064 101.574L181.923 97.44L177.789 101.581ZM181.922 95.8021L186.063 99.936L187.606 98.3911L183.465 94.257L187.599 90.116L186.053 88.5731L181.919 92.7141L177.778 88.58L176.235 90.126L180.377 94.2601L176.243 98.4011L177.789 99.944L181.922 95.8021Z" fill="#C12626"/>
        <path d="M214.097 101.547L209.955 97.413L205.821 101.554L202.636 98.375L206.77 94.234L202.629 90.1L205.808 86.915L209.949 91.0491L214.083 86.9081L217.268 90.087L213.134 94.228L217.275 98.3621L214.097 101.547ZM209.954 95.775L214.095 99.9091L215.638 98.363L211.497 94.229L215.631 90.088L214.086 88.545L209.952 92.686L205.811 88.552L204.268 90.098L208.41 94.2321L204.276 98.373L205.822 99.916L209.954 95.775Z" fill="#C12626"/>
        <path d="M182.5 123.002C182.5 123.002 184.268 119.002 196.007 119.002C207.746 119.002 210.5 123.002 210.5 123.002" stroke="#C12626" stroke-width="4" stroke-linecap="round"/>
        <path d="M293.382 152.999C280.503 153.029 268.132 147.973 258.961 138.931C254.525 134.569 250.982 129.383 248.531 123.665C246.006 117.755 244.704 111.395 244.704 104.968C244.704 98.5412 246.006 92.181 248.531 86.271C250.982 80.5525 254.525 75.367 258.961 71.005C268.14 61.97 280.502 56.9061 293.381 56.9061C306.261 56.9061 318.624 61.97 327.802 71.005C332.239 75.367 335.782 80.5525 338.233 86.271C340.758 92.181 342.06 98.5412 342.06 104.968C342.06 111.395 340.758 117.755 338.233 123.665C335.782 129.383 332.239 134.569 327.802 138.931C318.631 147.973 306.261 153.029 293.382 152.999ZM293.382 63.329C270.113 63.329 251.182 82.008 251.182 104.968C251.182 127.928 270.112 146.607 293.382 146.607C316.652 146.607 335.582 127.928 335.582 104.968C335.582 82.008 316.651 63.329 293.382 63.329Z" fill="black" stroke="black" stroke-width="3"/>

        <path d="M44.38 7.99194V12.3929" stroke="#F24048" stroke-width="3" stroke-linecap="round" stroke-linejoin="round"/>
        <path d="M37.386 8.86896L38.525 13.12" stroke="#F24048" stroke-width="3" stroke-linecap="round" stroke-linejoin="round"/>
        <path d="M30.8569 11.525L33.0579 15.337" stroke="#F24048" stroke-width="3" stroke-linecap="round" stroke-linejoin="round"/>
        <path d="M25.2379 15.7809L28.3499 18.8929" stroke="#F24048" stroke-width="3" stroke-linecap="round" stroke-linejoin="round"/>
        <path d="M20.912 21.3459L24.724 23.5469" stroke="#F24048" stroke-width="3" stroke-linecap="round" stroke-linejoin="round"/>
        <path d="M18.174 27.8409L22.425 28.9799" stroke="#F24048" stroke-width="3" stroke-linecap="round" stroke-linejoin="round"/>
        <path d="M17.21 34.824H21.611" stroke="#F24048" stroke-width="3" stroke-linecap="round" stroke-linejoin="round"/>
        <path d="M18.0859 41.818L22.3369 40.679" stroke="#F24048" stroke-width="3" stroke-linecap="round" stroke-linejoin="round"/>
        <path d="M20.912 48.263L24.724 46.062" stroke="#F24048" stroke-width="3" stroke-linecap="round" stroke-linejoin="round"/>
        <path d="M25.168 53.882L28.28 50.77" stroke="#F24048" stroke-width="3" stroke-linecap="round" stroke-linejoin="round"/>
        <path d="M30.52 58.3769L32.721 54.5649" stroke="#F24048" stroke-width="3" stroke-linecap="round" stroke-linejoin="round"/>
        <path d="M37.228 60.9459L38.367 56.6949" stroke="#F24048" stroke-width="3" stroke-linecap="round" stroke-linejoin="round"/>
        <path d="M44.2109 61.91V57.509" stroke="#F24048" stroke-width="3" stroke-linecap="round" stroke-linejoin="round"/>
        <path d="M51.2049 61.033L50.0659 56.782" stroke="#F24048" stroke-width="3" stroke-linecap="round" stroke-linejoin="round"/>
        <path d="M57.734 58.3769L55.533 54.5649" stroke="#F24048" stroke-width="3" stroke-linecap="round" stroke-linejoin="round"/>
        <path d="M63.352 54.121L60.24 51.009" stroke="#F24048" stroke-width="3" stroke-linecap="round" stroke-linejoin="round"/>
        <path d="M67.6789 48.557L63.8669 46.356" stroke="#F24048" stroke-width="3" stroke-linecap="round" stroke-linejoin="round"/>
        <path d="M70.247 42.145L65.996 41.006" stroke="#F24048" stroke-width="3" stroke-linecap="round" stroke-linejoin="round"/>
        <path d="M71.2109 35.162H66.8099" stroke="#F24048" stroke-width="3" stroke-linecap="round" stroke-linejoin="round"/>
        <path d="M70.335 28.168L66.084 29.307" stroke="#F24048" stroke-width="3" stroke-linecap="round" stroke-linejoin="round"/>
        <path d="M67.6789 21.639L63.8669 23.84" stroke="#F24048" stroke-width="3" stroke-linecap="round" stroke-linejoin="round"/>
        <path d="M63.4219 16.02L60.3099 19.132" stroke="#F24048" stroke-width="3" stroke-linecap="round" stroke-linejoin="round"/>
        <path d="M58.0699 11.525L55.8689 15.337" stroke="#F24048" stroke-width="3" stroke-linecap="round" stroke-linejoin="round"/>
        <path d="M51.3619 8.95593L50.2229 13.2069" stroke="#F24048" stroke-width="3" stroke-linecap="round" stroke-linejoin="round"/>
        <path d="M371.094 147.797V150.242" stroke="#F24048" stroke-width="2" stroke-linecap="round" stroke-linejoin="round"/>
        <path d="M367.209 148.284L367.842 150.646" stroke="#F24048" stroke-width="2" stroke-linecap="round" stroke-linejoin="round"/>
        <path d="M363.582 149.76L364.805 151.878" stroke="#F24048" stroke-width="2" stroke-linecap="round" stroke-linejoin="round"/>
        <path d="M360.46 152.124L362.189 153.853" stroke="#F24048" stroke-width="2" stroke-linecap="round" stroke-linejoin="round"/>
        <path d="M358.057 154.97L360.175 156.193" stroke="#F24048" stroke-width="2" stroke-linecap="round" stroke-linejoin="round"/>
        <path d="M356.536 158.466L358.898 159.099" stroke="#F24048" stroke-width="2" stroke-linecap="round" stroke-linejoin="round"/>
        <path d="M356 162.229H358.445" stroke="#F24048" stroke-width="2" stroke-linecap="round" stroke-linejoin="round"/>
        <path d="M356.487 165.999L358.849 165.366" stroke="#F24048" stroke-width="2" stroke-linecap="round" stroke-linejoin="round"/>
        <path d="M358.057 169.468L360.175 168.245" stroke="#F24048" stroke-width="2" stroke-linecap="round" stroke-linejoin="round"/>
        <path d="M360.421 172.338L362.15 170.609" stroke="#F24048" stroke-width="2" stroke-linecap="round" stroke-linejoin="round"/>
        <path d="M363.395 174.835L364.618 172.717" stroke="#F24048" stroke-width="2" stroke-linecap="round" stroke-linejoin="round"/>
        <path d="M367.121 176.262L367.754 173.9" stroke="#F24048" stroke-width="2" stroke-linecap="round" stroke-linejoin="round"/>
        <path d="M371 176.797V174.352" stroke="#F24048" stroke-width="2" stroke-linecap="round" stroke-linejoin="round"/>
        <path d="M374.886 176.311L374.253 173.949" stroke="#F24048" stroke-width="2" stroke-linecap="round" stroke-linejoin="round"/>
        <path d="M378.513 174.835L377.29 172.717" stroke="#F24048" stroke-width="2" stroke-linecap="round" stroke-linejoin="round"/>
        <path d="M381.635 172.471L379.906 170.742" stroke="#F24048" stroke-width="2" stroke-linecap="round" stroke-linejoin="round"/>
        <path d="M384.038 169.626L381.92 168.403" stroke="#F24048" stroke-width="2" stroke-linecap="round" stroke-linejoin="round"/>
        <path d="M385.465 166.174L383.103 165.541" stroke="#F24048" stroke-width="2" stroke-linecap="round" stroke-linejoin="round"/>
        <path d="M386 162.411H383.555" stroke="#F24048" stroke-width="2" stroke-linecap="round" stroke-linejoin="round"/>
        <path d="M385.514 158.641L383.152 159.274" stroke="#F24048" stroke-width="2" stroke-linecap="round" stroke-linejoin="round"/>
        <path d="M384.038 155.127L381.92 156.35" stroke="#F24048" stroke-width="2" stroke-linecap="round" stroke-linejoin="round"/>
        <path d="M381.674 152.257L379.945 153.986" stroke="#F24048" stroke-width="2" stroke-linecap="round" stroke-linejoin="round"/>
        <path d="M378.7 149.76L377.477 151.878" stroke="#F24048" stroke-width="2" stroke-linecap="round" stroke-linejoin="round"/>
        <path d="M374.974 148.333L374.341 150.695" stroke="#F24048" stroke-width="2" stroke-linecap="round" stroke-linejoin="round"/>
    </g>
    <defs>
        <clipPath id="clip_400">
            <rect width="420" height="200" fill="white"/>
        </clipPath>
    </defs>
</svg>
