<?xml version="1.0" encoding="utf-8"?>
<!-- Generator: Adobe Illustrator 23.0.5, SVG Export Plug-In . SVG Version: 6.00 Build 0)  -->
<svg version="1.1" xmlns="http://www.w3.org/2000/svg" x="0px" y="0px"
	 viewBox="0 0 140 41" style="enable-background:new 0 0 140 41;" xml:space="preserve">
<style type="text/css">
	.st0{fill:#ffffff;}
	.st1{fill:#ffffff;}
</style>
<g id="Layer_1">
</g>
<g id="레이어_1">
	<g>
		<path class="st0" d="M104.6,3.5c0,1.7-1.3,3-3,3c-1.7,0-3-1.4-3-3c0-1.7,1.4-3,3-3C103.3,0.5,104.6,1.8,104.6,3.5z"/>
		<path class="st1" d="M23.9,10.9h3.4L22,28.1h-3l-5.3-12.4L8.3,28.1h-3L0,10.9h3.4l3.7,12.1l5.1-12.1H15l5.1,12.1L23.9,10.9z"/>
		<path class="st1" d="M40.4,25.5c1.2,0,2.5-0.2,3.9-0.6c1.4-0.4,2.5-0.9,3.4-1.6v3.4c-1,0.5-2.2,0.9-3.6,1.3
			c-1.4,0.3-2.9,0.5-4.4,0.5c-3,0-5.4-0.8-7.3-2.4c-1.8-1.6-2.7-3.8-2.7-6.7c0-2.8,0.9-5.1,2.7-6.7c1.8-1.6,4.2-2.4,7.2-2.4
			c1.4,0,2.6,0.2,3.7,0.6c1.1,0.4,1.9,0.9,2.6,1.5c0.7,0.6,1.2,1.3,1.5,2.1c0.3,0.8,0.5,1.5,0.5,2.4c0,1.4-0.4,2.5-1.2,3.4H33.1
			C33.3,23.8,35.7,25.5,40.4,25.5z M44.2,17.5c0.1-0.3,0.2-0.6,0.2-0.9c0-0.8-0.4-1.6-1.3-2.2c-0.9-0.6-2.1-0.9-3.6-0.9
			c-1.5,0-2.9,0.3-4,1c-1.1,0.7-1.8,1.7-2.2,3H44.2z"/>
		<path class="st1" d="M68.9,26.1c-1.6,1.7-3.9,2.5-6.8,2.5c-1,0-2.1-0.2-3.1-0.5c-1-0.3-1.9-0.7-2.7-1.3l-3.5,1.5v-26L56.4,1v11.2
			c0.7-0.5,1.6-0.9,2.7-1.2c1.1-0.4,2.1-0.5,3.1-0.5c2.9,0,5.1,0.8,6.8,2.5c1.6,1.7,2.4,3.9,2.4,6.6C71.3,22.2,70.5,24.4,68.9,26.1z
			 M66.4,15.2c-1-1.1-2.5-1.6-4.4-1.6c-1.2,0-2.3,0.2-3.3,0.7c-1,0.4-1.8,1-2.2,1.6v7.3c0.6,0.7,1.3,1.2,2.3,1.6
			c1,0.4,2.1,0.6,3.3,0.6c2,0,3.5-0.5,4.5-1.6c1-1.1,1.4-2.5,1.4-4.3C67.8,17.7,67.4,16.3,66.4,15.2z"/>
		<path class="st1" d="M92.2,26.1c-1.6,1.7-3.9,2.5-6.8,2.5c-1,0-2.1-0.2-3.1-0.5c-1-0.3-1.9-0.7-2.7-1.3l-3.5,1.5v-26L79.6,1v11.2
			c0.7-0.5,1.6-0.9,2.7-1.2c1.1-0.4,2.1-0.5,3.1-0.5c2.9,0,5.1,0.8,6.8,2.5c1.6,1.7,2.4,3.9,2.4,6.6C94.6,22.2,93.8,24.4,92.2,26.1z
			 M89.6,15.2c-1-1.1-2.5-1.6-4.4-1.6c-1.2,0-2.3,0.2-3.3,0.7c-1,0.4-1.8,1-2.2,1.6v7.3c0.6,0.7,1.3,1.2,2.3,1.6
			c1,0.4,2,0.6,3.3,0.6c2,0,3.5-0.5,4.5-1.6c1-1.1,1.4-2.5,1.4-4.3C91.1,17.7,90.6,16.3,89.6,15.2z"/>
		<path class="st1" d="M103.5,10v18.1H100V11.2L103.5,10z"/>
		<path class="st1" d="M122.7,13.5l-10,11.5h10.5v3.2H108v-2.6L118,14h-9.6v-3.2h14.3V13.5z"/>
		<path class="st1" d="M139.5,13.5l-10,11.5H140v3.2h-15.2v-2.6l10-11.5h-9.6v-3.2h14.3V13.5z"/>
		<path class="st1" d="M9.7,36.6l-1,0.5c-0.2-0.2-0.4-0.3-0.5-0.4c-0.2-0.1-0.4-0.1-0.6-0.1c-0.4,0-0.8,0.1-1.1,0.4
			c-0.3,0.3-0.4,0.6-0.4,1c0,0.4,0.1,0.7,0.4,1c0.3,0.3,0.6,0.4,1,0.4c0.5,0,0.9-0.2,1.2-0.5l0.9,0.6c-0.5,0.7-1.2,1-2.1,1
			c-0.8,0-1.5-0.2-2-0.7c-0.5-0.5-0.7-1.1-0.7-1.7c0-0.5,0.1-0.9,0.3-1.3c0.2-0.4,0.5-0.7,1-0.9c0.4-0.2,0.9-0.3,1.4-0.3
			c0.5,0,0.9,0.1,1.3,0.3C9.1,36,9.4,36.3,9.7,36.6z"/>
		<path class="st1" d="M24.7,35.7h1v0.6c0.1-0.2,0.3-0.4,0.4-0.5c0.2-0.1,0.4-0.2,0.6-0.2c0.2,0,0.3,0,0.5,0.1l-0.4,1
			c-0.1-0.1-0.3-0.1-0.3-0.1c-0.2,0-0.3,0.1-0.5,0.3c-0.1,0.2-0.2,0.7-0.2,1.3l0,0.2v1.9h-1.2V35.7z"/>
		<path class="st1" d="M46.8,38.4h-3.8c0.1,0.3,0.2,0.6,0.4,0.8c0.2,0.2,0.5,0.3,0.9,0.3c0.4,0,0.8-0.2,1.1-0.5l1,0.5
			c-0.2,0.4-0.5,0.6-0.9,0.8c-0.3,0.2-0.8,0.3-1.2,0.3c-0.7,0-1.3-0.2-1.8-0.7c-0.5-0.5-0.7-1.1-0.7-1.8c0-0.7,0.2-1.3,0.7-1.8
			c0.5-0.5,1-0.7,1.7-0.7c0.7,0,1.3,0.2,1.8,0.7c0.5,0.5,0.7,1.1,0.7,1.9L46.8,38.4z M45.6,37.4c-0.1-0.3-0.2-0.5-0.5-0.6
			c-0.2-0.2-0.5-0.2-0.8-0.2c-0.3,0-0.6,0.1-0.9,0.3c-0.2,0.1-0.3,0.3-0.4,0.6H45.6z"/>
		<path class="st1" d="M65.4,35.7h1.2v4.7h-1.2v-0.5c-0.2,0.2-0.5,0.4-0.7,0.5c-0.2,0.1-0.5,0.1-0.8,0.1c-0.6,0-1.1-0.2-1.6-0.7
			c-0.4-0.5-0.7-1.1-0.7-1.8c0-0.7,0.2-1.3,0.6-1.8c0.4-0.5,1-0.7,1.6-0.7c0.3,0,0.5,0.1,0.8,0.2c0.2,0.1,0.5,0.3,0.7,0.5V35.7z
			 M64.2,36.6c-0.4,0-0.7,0.1-0.9,0.4c-0.2,0.3-0.4,0.6-0.4,1c0,0.4,0.1,0.7,0.4,1c0.2,0.3,0.6,0.4,0.9,0.4c0.4,0,0.7-0.1,0.9-0.4
			c0.2-0.3,0.4-0.6,0.4-1c0-0.4-0.1-0.7-0.4-1C64.9,36.8,64.5,36.6,64.2,36.6z"/>
		<path class="st1" d="M82.2,33.9h1.2v1.7h0.7v1h-0.7v3.7h-1.2v-3.7h-0.6v-1h0.6V33.9z"/>
		<path class="st1" d="M99.4,33.7c0.2,0,0.4,0.1,0.5,0.2c0.1,0.2,0.2,0.3,0.2,0.5c0,0.2-0.1,0.4-0.2,0.5c-0.1,0.1-0.3,0.2-0.5,0.2
			c-0.2,0-0.4-0.1-0.5-0.2c-0.1-0.2-0.2-0.3-0.2-0.6c0-0.2,0.1-0.4,0.2-0.5C99,33.8,99.2,33.7,99.4,33.7z M98.8,35.7h1.2v4.7h-1.2
			V35.7z"/>
		<path class="st1" d="M114.8,35.7h1.2l1.2,2.8l1.2-2.8h1.2l-2,4.7h-0.8L114.8,35.7z"/>
		<path class="st1" d="M139.2,38.4h-3.8c0.1,0.3,0.2,0.6,0.4,0.8c0.2,0.2,0.5,0.3,0.9,0.3c0.4,0,0.8-0.2,1.1-0.5l1,0.5
			c-0.3,0.4-0.5,0.6-0.9,0.8c-0.3,0.2-0.8,0.3-1.2,0.3c-0.7,0-1.3-0.2-1.8-0.7c-0.5-0.5-0.7-1.1-0.7-1.8c0-0.7,0.2-1.3,0.7-1.8
			c0.5-0.5,1-0.7,1.7-0.7c0.7,0,1.3,0.2,1.8,0.7c0.5,0.5,0.7,1.1,0.7,1.9L139.2,38.4z M138,37.4c-0.1-0.3-0.2-0.5-0.5-0.6
			c-0.2-0.2-0.5-0.2-0.8-0.2c-0.3,0-0.6,0.1-0.9,0.3c-0.2,0.1-0.3,0.3-0.4,0.6H138z"/>
	</g>
</g>
</svg>
