<svg width="580" height="172" viewBox="0 0 580 172" fill="none" xmlns="http://www.w3.org/2000/svg">
<mask id="mask0_471_59" style="mask-type:luminance" maskUnits="userSpaceOnUse" x="0" y="0" width="580" height="172">
<path d="M579.85 0H0V172H579.85V0Z" fill="white"/>
</mask>
<g mask="url(#mask0_471_59)">
<g opacity="0.03">
<path d="M78.591 89.5869L152.481 3.03087C152.668 2.81241 152.788 2.54504 152.828 2.26036C152.867 1.97569 152.825 1.68562 152.705 1.42446C152.585 1.16329 152.392 0.94195 152.15 0.78661C151.909 0.631269 151.627 0.548427 151.34 0.547871H108.6C108.382 0.548217 108.166 0.596273 107.968 0.688683C107.77 0.781092 107.595 0.915621 107.454 1.08287L37.791 83.9309V1.81787C37.791 1.42004 37.6329 1.03851 37.3516 0.757206C37.0703 0.475901 36.6888 0.317871 36.291 0.317871H1.50098C1.10315 0.317871 0.72162 0.475901 0.440315 0.757206C0.159011 1.03851 0.000976562 1.42004 0.000976562 1.81787V171.494C0.000976562 171.892 0.159011 172.273 0.440315 172.555C0.72162 172.836 1.10315 172.994 1.50098 172.994H36.291C36.6888 172.994 37.0703 172.836 37.3516 172.555C37.6329 172.273 37.791 171.892 37.791 171.494V97.9599L111.515 172.554C111.654 172.695 111.82 172.806 112.003 172.883C112.185 172.959 112.381 172.999 112.579 172.999H158.549C158.847 172.998 159.137 172.909 159.385 172.743C159.632 172.577 159.824 172.342 159.938 172.067C160.051 171.791 160.08 171.489 160.022 171.197C159.963 170.905 159.82 170.637 159.609 170.427L78.591 89.5869Z" fill="#161B4B"/>
<path d="M208.224 0.545898H170.89C170.764 0.545898 170.662 0.647978 170.662 0.773898V172.771C170.662 172.897 170.764 172.999 170.89 172.999H208.224C208.35 172.999 208.452 172.897 208.452 172.771V0.773898C208.452 0.647978 208.35 0.545898 208.224 0.545898Z" fill="#161B4B"/>
<path d="M392.772 0.545898H357.98C357.582 0.545898 357.201 0.703936 356.919 0.985241C356.638 1.26655 356.48 1.64807 356.48 2.04589V101.238L239.434 0.906898C239.163 0.674402 238.817 0.546388 238.46 0.545898H234.732C234.334 0.545898 233.953 0.703936 233.671 0.985241C233.39 1.26655 233.232 1.64807 233.232 2.04589V171.494C233.232 171.892 233.39 172.273 233.671 172.555C233.953 172.836 234.334 172.994 234.732 172.994H269.522C269.92 172.994 270.301 172.836 270.583 172.555C270.864 172.273 271.022 171.892 271.022 171.494V73.8939L388.086 172.642C388.356 172.87 388.698 172.996 389.052 172.997H392.771C393.168 172.996 393.549 172.837 393.83 172.556C394.111 172.275 394.27 171.894 394.271 171.497V2.0499C394.271 1.85267 394.233 1.65726 394.158 1.47487C394.083 1.29249 393.973 1.1267 393.833 0.987003C393.694 0.847305 393.529 0.736438 393.347 0.660748C393.164 0.585057 392.969 0.546029 392.772 0.545898Z" fill="#161B4B"/>
<path d="M572.902 50.023C568.332 39.1845 561.263 29.5809 552.272 21.997C535.36 7.60896 513.497 0.313965 487.292 0.313965H415.584C415.186 0.313965 414.805 0.471999 414.523 0.753304C414.242 1.03461 414.084 1.41614 414.084 1.81396V171.494C414.084 171.892 414.242 172.273 414.523 172.555C414.805 172.836 415.186 172.994 415.584 172.994H487.292C499.523 173.111 511.696 171.287 523.355 167.588C533.955 164.195 543.782 158.742 552.27 151.543C561.262 143.96 568.332 134.356 572.902 123.517C577.512 112.637 579.847 100.233 579.847 86.651C579.847 73.231 577.508 60.906 572.902 50.023ZM542.056 86.887C542.056 98.356 540.351 107.729 536.985 114.748C534.078 121.189 529.672 126.84 524.135 131.231C518.999 135.153 513.049 137.872 506.722 139.188C500.368 140.536 493.892 141.224 487.397 141.242H451.874V32.531H487.397C493.809 32.5563 500.201 33.2447 506.471 34.585C512.822 35.9098 518.812 38.5883 524.034 42.438C529.278 46.294 533.634 51.838 536.982 58.909C540.351 66.008 542.056 75.421 542.056 86.887Z" fill="#161B4B"/>
</g>
</g>
</svg>
