<svg width="502" height="172" viewBox="0 0 502 172" fill="none" xmlns="http://www.w3.org/2000/svg">
<mask id="mask0_474_95" style="mask-type:luminance" maskUnits="userSpaceOnUse" x="0" y="0" width="502" height="172">
<path d="M502 0H0V172H502V0Z" fill="white"/>
</mask>
<g mask="url(#mask0_474_95)">
<mask id="mask1_474_95" style="mask-type:luminance" maskUnits="userSpaceOnUse" x="0" y="-93" width="502" height="266">
<path d="M502 -93H0V173H502V-93Z" fill="white"/>
</mask>
<g mask="url(#mask1_474_95)">
<g opacity="0.03">
<path d="M78.591 90.0129L152.481 3.4569C152.668 3.23844 152.788 2.97106 152.828 2.68639C152.867 2.40172 152.825 2.11165 152.705 1.85048C152.585 1.58932 152.392 1.36798 152.15 1.21264C151.909 1.05729 151.627 0.974452 151.34 0.973896H108.6C108.382 0.974243 108.166 1.0223 107.968 1.11471C107.77 1.20712 107.595 1.34165 107.454 1.50889L37.791 84.3569V2.24389C37.791 1.84607 37.6329 1.46454 37.3516 1.18323C37.0703 0.901927 36.6888 0.743896 36.291 0.743896H1.50098C1.10315 0.743896 0.72162 0.901927 0.440315 1.18323C0.159011 1.46454 0.000976562 1.84607 0.000976562 2.24389V171.92C0.000976562 172.318 0.159011 172.699 0.440315 172.981C0.72162 173.262 1.10315 173.42 1.50098 173.42H36.291C36.6888 173.42 37.0703 173.262 37.3516 172.981C37.6329 172.699 37.791 172.318 37.791 171.92V98.3859L111.515 172.98C111.654 173.121 111.82 173.232 112.003 173.309C112.185 173.385 112.381 173.425 112.579 173.425H158.549C158.847 173.424 159.137 173.335 159.385 173.169C159.632 173.003 159.824 172.768 159.938 172.493C160.051 172.218 160.08 171.915 160.022 171.623C159.963 171.331 159.82 171.063 159.609 170.853L78.591 90.0129Z" fill="#161B4B"/>
<path d="M208.224 0.971924H170.89C170.764 0.971924 170.662 1.074 170.662 1.19992V173.197C170.662 173.323 170.764 173.425 170.89 173.425H208.224C208.35 173.425 208.452 173.323 208.452 173.197V1.19992C208.452 1.074 208.35 0.971924 208.224 0.971924Z" fill="#161B4B"/>
<path d="M392.772 0.971924H357.98C357.582 0.971924 357.201 1.12996 356.919 1.41127C356.638 1.69257 356.48 2.0741 356.48 2.47192V101.664L239.434 1.33292C239.163 1.10043 238.817 0.972413 238.46 0.971924H234.732C234.334 0.971924 233.953 1.12996 233.671 1.41127C233.39 1.69257 233.232 2.0741 233.232 2.47192V171.92C233.232 172.318 233.39 172.699 233.671 172.981C233.953 173.262 234.334 173.42 234.732 173.42H269.522C269.92 173.42 270.301 173.262 270.583 172.981C270.864 172.699 271.022 172.318 271.022 171.92V74.3199L388.086 173.068C388.356 173.296 388.698 173.422 389.052 173.423H392.771C393.168 173.422 393.549 173.263 393.83 172.982C394.111 172.701 394.27 172.32 394.271 171.923V2.47593C394.271 2.27869 394.233 2.08328 394.158 1.9009C394.083 1.71851 393.973 1.55273 393.833 1.41303C393.694 1.27333 393.529 1.16246 393.347 1.08677C393.164 1.01108 392.969 0.972055 392.772 0.971924Z" fill="#161B4B"/>
<path d="M572.902 50.449C568.332 39.6105 561.263 30.007 552.272 22.423C535.36 8.03499 513.497 0.73999 487.292 0.73999H415.584C415.186 0.73999 414.805 0.898024 414.523 1.17933C414.242 1.46063 414.084 1.84217 414.084 2.23999V171.92C414.084 172.318 414.242 172.699 414.523 172.981C414.805 173.262 415.186 173.42 415.584 173.42H487.292C499.523 173.537 511.696 171.713 523.355 168.014C533.955 164.621 543.782 159.168 552.27 151.969C561.262 144.386 568.332 134.782 572.902 123.943C577.512 113.063 579.847 100.659 579.847 87.077C579.847 73.657 577.508 61.332 572.902 50.449ZM542.056 87.313C542.056 98.782 540.351 108.155 536.985 115.174C534.078 121.615 529.672 127.266 524.135 131.657C518.999 135.579 513.049 138.298 506.722 139.614C500.368 140.962 493.892 141.65 487.397 141.668H451.874V32.957H487.397C493.809 32.9824 500.201 33.6707 506.471 35.011C512.822 36.3358 518.812 39.0143 524.034 42.864C529.278 46.72 533.634 52.264 536.982 59.335C540.351 66.434 542.056 75.847 542.056 87.313Z" fill="#161B4B"/>
</g>
</g>
</g>
</svg>
