<svg id="bus" xmlns="http://www.w3.org/2000/svg" width="24" height="24" viewBox="0 0 24 24">
  <path id="패스_70604" data-name="패스 70604" d="M0,0H24V24H0Z" fill="none"/>
  <path id="패스_70605" data-name="패스 70605" d="M17,4c3.4,0,6,3.64,6,8v5a1,1,0,0,1-1,1H20.829a3,3,0,0,1-5.658,0H8.829a3,3,0,0,1-5.658,0H2a1,1,0,0,1-1-1V6A2,2,0,0,1,3,4ZM6,16a1,1,0,1,0,1,1,1,1,0,0,0-1-1m12,0a1,1,0,1,0,1,1,1,1,0,0,0-1-1m-.76-9.989L18.308,11h2.636c-.313-2.756-1.9-4.82-3.7-4.989M6,6H3V9H6Zm5,0H8V9h3Zm4.191,0H13V9h2.834Z" fill="#3cc344"/>
</svg>
