<svg xmlns="http://www.w3.org/2000/svg" xmlns:xlink="http://www.w3.org/1999/xlink" width="64" height="64" viewBox="0 0 64 64">
  <defs>
    <linearGradient id="linear-gradient" x1="0.922" y1="0.741" x2="-0.322" y2="0.142" gradientUnits="objectBoundingBox">
      <stop offset="0" stop-color="#ffbf00"/>
      <stop offset="1" stop-color="#f5f221"/>
    </linearGradient>
    <linearGradient id="linear-gradient-2" x1="0.5" y1="0.7" x2="0.5" y2="-0.836" gradientUnits="objectBoundingBox">
      <stop offset="0" stop-color="#09f"/>
      <stop offset="1" stop-color="#5cd2f5"/>
    </linearGradient>
    <linearGradient id="linear-gradient-3" y1="0.833" y2="0.167" xlink:href="#linear-gradient-2"/>
    <linearGradient id="linear-gradient-4" x1="0.5" y1="0.917" x2="0.5" y2="-0.111" gradientUnits="objectBoundingBox">
      <stop offset="0.027" stop-color="#eaad29"/>
      <stop offset="1" stop-color="#f5dc34"/>
    </linearGradient>
  </defs>
  <g id="그룹_53228" data-name="그룹 53228" transform="translate(-1283 -1313)">
    <g id="그룹_51846" data-name="그룹 51846" transform="translate(355.491 204.201)">
      <g id="그룹_24" data-name="그룹 24" transform="translate(944.509 1118.798)">
        <path id="패스_49" data-name="패스 49" d="M154.478,246.983c2.795-3.97,3.676-12.318-1.278-18.106-4.438-5.183-9.322-5.068-10.3-4.987-.968-.077-5.855-.2-10.291,4.987-4.956,5.787-4.079,14.136-1.28,18.106,2.652,3.764,3.713,6.625,3.817,8.888h15.512C150.767,253.609,151.826,250.746,154.478,246.983Z" transform="translate(-129.048 -223.869)" fill="url(#linear-gradient)"/>
        <path id="패스_50" data-name="패스 50" d="M150.89,228.075a15.906,15.906,0,0,0-.137-2.048,12.227,12.227,0,0,0-7.375-2.135c-1-.077-6.057-.2-10.645,4.987a15.418,15.418,0,0,0-3.18,13.933,15.76,15.76,0,0,0,21.336-14.737Z" transform="translate(-129.045 -223.87)" fill="#fff" opacity="0.2"/>
      </g>
      <g id="그룹_38" data-name="그룹 38" transform="translate(950.612 1153.44)">
        <path id="패스_81" data-name="패스 81" d="M138.56,274.435l-.038,2.912a6.341,6.341,0,0,0,6.263,6.419l2.957.038a6.338,6.338,0,0,0,6.421-6.26l.038-3.109Z" transform="translate(-138.521 -274.434)" fill="url(#linear-gradient-2)"/>
      </g>
      <path id="패스_82" data-name="패스 82" d="M155.056,271.806a1.961,1.961,0,0,1-1.961,1.961H138.171a1.961,1.961,0,0,1-1.961-1.961h0a1.962,1.962,0,0,1,1.961-1.961H153.1A1.962,1.962,0,0,1,155.056,271.806Z" transform="translate(812.84 880.451)" fill="url(#linear-gradient-3)"/>
      <g id="그룹_79" data-name="그룹 79" transform="translate(965.683 1122.43)">
        <path id="패스_125" data-name="패스 125" d="M170.7,233.849a4.68,4.68,0,1,1-4.679-4.679,4.68,4.68,0,0,1,4.679,4.679Z" transform="translate(-161.339 -229.17)" opacity="0.5" fill="url(#linear-gradient-4)"/>
        <path id="패스_126" data-name="패스 126" d="M170.7,233.849a4.68,4.68,0,1,1-4.679-4.679,4.68,4.68,0,0,1,4.679,4.679Z" transform="translate(-161.339 -229.17)" fill="none" stroke="#fff" stroke-linecap="round" stroke-linejoin="round" stroke-width="3"/>
      </g>
    </g>
    <rect id="사각형_24799" data-name="사각형 24799" width="64" height="64" transform="translate(1283 1313)" fill="none"/>
  </g>
</svg>
