<svg xmlns="http://www.w3.org/2000/svg" xmlns:xlink="http://www.w3.org/1999/xlink" width="126" height="13" viewBox="0 0 126 13">
  <defs>
    <clipPath id="clip-path">
      <rect id="사각형_58" data-name="사각형 58" width="126" height="13" transform="translate(0 0)" fill="none"/>
    </clipPath>
  </defs>
  <g id="일자리_logo" data-name="일자리 logo" transform="translate(0 0)">
    <g id="그룹_110" data-name="그룹 110">
      <g id="그룹_109" data-name="그룹 109" clip-path="url(#clip-path)">
        <path id="패스_38" data-name="패스 38" d="M14.978,5.231a37.76,37.76,0,0,1,2.937,3.278c-3.538.067-10.822.1-11.656-.3-1.042-.5-3.127-3.079-2.843-3.178s11.278.1,11.562.2" fill="#fff"/>
        <path id="패스_39" data-name="패스 39" d="M18.579,9.6a34.021,34.021,0,0,1,2.748,3.377c-3.538,0-10.784.119-11.466-.2A13.175,13.175,0,0,1,6.639,9.4c.095-.2,11.655.1,11.94.2" fill="#fff"/>
        <path id="패스_40" data-name="패스 40" d="M17.063,2.251c1.061.715,3.917,7.052,5.212,10.131-2.148-2.585-6.538-7.79-6.918-7.946-.474-.2-11.466,0-12.224-.3A12.155,12.155,0,0,1,0,1.056c.092-.2,4.073.1,9.571,0s6.162.3,7.489,1.2" fill="#fff"/>
        <path id="패스_41" data-name="패스 41" d="M34,6.581V1.47A1.25,1.25,0,0,1,35.161.147c.04,0,.08,0,.12,0a1.253,1.253,0,0,1,1.285,1.226c0,.032,0,.063,0,.1V6.581ZM25.278,3.592v-.36C25.278,1.11,26.729.3,28.905.3s3.627.814,3.627,2.936v.36c0,2.122-1.451,2.936-3.627,2.936s-3.627-.814-3.627-2.936m2.507-.454v.547c0,.667.445.961,1.12.961s1.12-.294,1.12-.961V3.138c0-.654-.445-.961-1.12-.961s-1.12.307-1.12.961m8.387,9.542H27.582a1.728,1.728,0,0,1-1.8-1.662c0-.051,0-.1,0-.153v-.16c0-.961.649-1.575,1.807-1.575h6.4V8.783c0-.16-.038-.214-.2-.214H26.614a.694.694,0,0,1-.7-.687.758.758,0,0,1,0-.1.711.711,0,0,1,.638-.772.477.477,0,0,1,.062,0h8.4c1.133,0,1.553.347,1.553,1.4v2.135H28.74a.248.248,0,0,0-.277.219.212.212,0,0,0,0,.035v.04a.252.252,0,0,0,.247.256l.033,0h7.432a.75.75,0,0,1,.725.814.712.712,0,0,1-.636.773.671.671,0,0,1-.09,0" fill="#fff"/>
        <path id="패스_42" data-name="패스 42" d="M40.245,4.313V2.938H38.616a1.033,1.033,0,0,1-1.07-1,1.144,1.144,0,0,1,0-.132A1.026,1.026,0,0,1,38.616.656h5.753a1.022,1.022,0,0,1,1.047,1,1.012,1.012,0,0,1,0,.145,1.03,1.03,0,0,1-.9,1.132.933.933,0,0,1-.143,0H42.714V4.379a14.547,14.547,0,0,1-.1,1.722c1.833.667,2.953,2.175,2.813,5.832h-2.38c.153-1.775-.191-2.869-.955-3.457a5.58,5.58,0,0,1-2.914,3.43,1.262,1.262,0,0,1-1.578-.467,1.113,1.113,0,0,1,.382-1.455c1.591-1.041,2.265-2.709,2.265-5.672M46.4,12.68V1.443a1.223,1.223,0,0,1,1.137-1.3,1.077,1.077,0,0,1,.123,0,1.224,1.224,0,0,1,1.259,1.2c0,.033,0,.065,0,.1V4.82h.42a1,1,0,0,1,1.013,1,1.166,1.166,0,0,1-.008.163A1.022,1.022,0,0,1,49.5,7.134a.906.906,0,0,1-.153.008h-.42V12.68Z" fill="#fff"/>
        <path id="패스_43" data-name="패스 43" d="M53.353,7.929V9.357c0,.467.14.574.585.574h3.754a1.1,1.1,0,0,1,.073,2.189H53c-1.591,0-2.2-.6-2.2-2.269V7.422c0-1.668.611-2.242,2.2-2.242h2.278V3.245c0-.173-.051-.374-.344-.374H52A1.023,1.023,0,0,1,50.924,1.9a1.09,1.09,0,0,1,0-.137A1.046,1.046,0,0,1,51.878.642a.992.992,0,0,1,.126,0h3.6c1.756,0,2.227.52,2.227,2.042V7.355H53.939c-.445,0-.585.107-.585.574M62.02,12.68H59.475V1.47a1.274,1.274,0,1,1,2.545,0Z" fill="#fff"/>
        <path id="패스_44" data-name="패스 44" d="M66.7,7.582c-1.718,0-3.182-.894-3.182-2.789V3.952a1.8,1.8,0,0,1,.267-.921A.885.885,0,0,1,63,2.111a.941.941,0,0,1,.886-.988h1.544a1.3,1.3,0,0,1,1.494-1.1,1.324,1.324,0,0,1,1.051,1.1h1.489a.915.915,0,0,1,.93.9c0,.028,0,.057,0,.085a.87.87,0,0,1-.789.934,1.711,1.711,0,0,1,.267.908v.841c0,1.9-1.451,2.789-3.169,2.789m5.231,2.629H65.049a1.024,1.024,0,0,1-1.1-.955A1.047,1.047,0,0,1,64.86,8.1a1,1,0,0,1,.19,0h7.878c1.591,0,1.884.454,1.884,2.055V12.68H72.24V10.532a.286.286,0,0,0-.242-.32.254.254,0,0,0-.064,0m.293-2.576V6.515h-.751a.889.889,0,0,1-.943-.84.97.97,0,0,1,0-.161.9.9,0,0,1,.793-.988.793.793,0,0,1,.149,0h.751V3.712h-.751a.889.889,0,0,1-.943-.84.97.97,0,0,1,0-.161.9.9,0,0,1,.793-.988.793.793,0,0,1,.149,0h.751v-.28a1.223,1.223,0,0,1,1.137-1.3,1.077,1.077,0,0,1,.123,0,1.225,1.225,0,0,1,1.259,1.2c0,.033,0,.065,0,.1V7.636ZM66.7,5.687a.91.91,0,0,0,.892-.925c0-.017,0-.033,0-.049V3.952a.892.892,0,1,0-1.782,0v.761a.914.914,0,0,0,.844.973H66.7" fill="#fff"/>
        <path id="패스_45" data-name="패스 45" d="M76.5,5.314c1.273-.48,2.049-1.508,2.049-3.483V1.59A1.216,1.216,0,0,1,79.732.34a1.158,1.158,0,0,1,.144.009A1.193,1.193,0,0,1,81.121,1.5c0,.031,0,.061,0,.092v.24a7.676,7.676,0,0,1-.076,1.108c1.845.254,3.042,1.521,2.953,4.377H81.518c.089-1.348-.28-2.135-1.133-2.322a4.543,4.543,0,0,1-3.169,2.442,1.1,1.1,0,0,1-1.3-.747,1.074,1.074,0,0,1,.572-1.369l.013-.005M86.736,12.68H78.705c-1.425,0-1.807-.52-1.807-1.948V9.371a1.233,1.233,0,0,1,1.121-1.325,1.132,1.132,0,0,1,.19,0A1.19,1.19,0,0,1,79.48,9.164a1.239,1.239,0,0,1,0,.206v.908c0,.294.064.334.344.334h6.911a1,1,0,0,1,1.066.951,1.025,1.025,0,0,1-.907,1.118A.9.9,0,0,1,86.736,12.68ZM84.9,9.584V1.47A1.25,1.25,0,0,1,86.068.147c.04,0,.08,0,.12,0a1.253,1.253,0,0,1,1.285,1.226c0,.032,0,.063,0,.1V9.584Z" fill="#fff"/>
        <path id="패스_46" data-name="패스 46" d="M99.73,12.68H90.567a1.458,1.458,0,0,1-1.573-1.351,1.553,1.553,0,0,1-.005-.224v-.08c0-.908.522-1.441,1.578-1.441H97.4v-.24c0-.16-.051-.2-.229-.2H89.79a.664.664,0,0,1-.674-.657c0-.012,0-.025,0-.037a.657.657,0,0,1,.6-.707.519.519,0,0,1,.079,0h8.858c1.056,0,1.374.387,1.374,1.174V10.8H91.941a.213.213,0,0,0-.228.2c0,.009,0,.019,0,.028,0,.133.064.214.229.214H99.73a.725.725,0,0,1,0,1.441Zm-9.889-9.2h1.005a1.153,1.153,0,0,1,1.311-1.2A1.141,1.141,0,0,1,93.433,3.3a1.267,1.267,0,0,1,.01.19h2.291a1.153,1.153,0,0,1,1.311-1.2A1.141,1.141,0,0,1,98.32,3.3a1.265,1.265,0,0,1,.01.19h1.031a.763.763,0,0,1,.858.67.814.814,0,0,1,.007.157.785.785,0,0,1-.69.859.731.731,0,0,1-.175-.005h-9.52a.785.785,0,0,1-.884-.688.853.853,0,0,1-.007-.166.776.776,0,0,1,.891-.827m-.318,2.122H99.641a.8.8,0,0,1,.9.695.89.89,0,0,1,.008.159.794.794,0,0,1-.9.854H89.523a.79.79,0,0,1-.891-.854.807.807,0,0,1,.744-.861.724.724,0,0,1,.147.007M90.007.336h9.138a.8.8,0,0,1,.885.709.906.906,0,0,1,.006.131.813.813,0,0,1-.739.873.724.724,0,0,1-.152-.006H90.007a.774.774,0,0,1-.862-.691.822.822,0,0,1,0-.177A.788.788,0,0,1,89.858.33.688.688,0,0,1,90.007.336Z" fill="#fff"/>
        <path id="패스_47" data-name="패스 47" d="M110.9,8.049V4.913h-.6V7.582h-2.214v-6.3a1.072,1.072,0,0,1,1-1.136,1.034,1.034,0,0,1,.111,0A1.075,1.075,0,0,1,110.305,1.2c0,.029,0,.057,0,.086V2.858h.6V1.283a1.072,1.072,0,0,1,1-1.136,1.033,1.033,0,0,1,.111,0,1.085,1.085,0,0,1,1.119,1.056c0,.026,0,.052,0,.078V8.049Zm-3.958-.574h-3.4a1.98,1.98,0,0,1-1.976-1.987c0-.054,0-.107,0-.161V5.06A1.827,1.827,0,0,1,103.244,3.1a1.709,1.709,0,0,1,.3.009h1.489V2.658c0-.2-.051-.254-.28-.254h-2.265a.861.861,0,0,1-.854-.869c0-.021,0-.043,0-.065a.879.879,0,0,1,.78-.958c.024,0,.048,0,.073,0h3.042c1.3,0,1.82.681,1.82,1.682V4.873h-2.965a.308.308,0,0,0-.341.278.321.321,0,0,0,0,.043v.08a.3.3,0,0,0,.344.307h2.558a.868.868,0,0,1,.843.891c0,.023,0,.047,0,.07a.846.846,0,0,1-.739.931.723.723,0,0,1-.1,0m2.036,1.561v.04a4.113,4.113,0,0,1,4.543,3.6h-2.609a2.473,2.473,0,0,0-2.864-1.642,6.882,6.882,0,0,1-5.04,1.762,1.137,1.137,0,0,1-1.044-1.213v-.015a1,1,0,0,1,1.007-.994.778.778,0,0,1,.088.007c1.145.053,2.813-.427,3.322-1.642.356-.841.789-1.121,1.451-1.081a1.071,1.071,0,0,1,1.144,1.006,1.237,1.237,0,0,1,0,.168" fill="#fff"/>
        <path id="패스_48" data-name="패스 48" d="M115.32,3.725h.993v-.08a1.3,1.3,0,0,1,2.6,0v.08h2.265v-.08a1.3,1.3,0,0,1,2.6,0v.08h.993a.826.826,0,0,1,.911.747.877.877,0,0,1,.005.147.839.839,0,0,1-.764.9.827.827,0,0,1-.152-.006h-3.436v.574h3.754a.838.838,0,0,1,.913.767.892.892,0,0,1,0,.154.855.855,0,0,1-.769.924.833.833,0,0,1-.147,0H115a.837.837,0,0,1-.913-.767.892.892,0,0,1,0-.154.855.855,0,0,1,.769-.924.833.833,0,0,1,.147,0h3.754V5.514H115.32a.821.821,0,0,1-.911-.735.835.835,0,0,1-.006-.159.843.843,0,0,1,.776-.9.761.761,0,0,1,.141.005m10.143,8.955h-9.2c-1.438,0-1.642-.374-1.642-1.828v-.6c0-1.455.2-1.828,1.642-1.828h7.56c1.438,0,1.642.374,1.642,1.828ZM115.511.336h9.062a.83.83,0,0,1,.912.753.832.832,0,0,1,0,.154.843.843,0,0,1-.758.912.787.787,0,0,1-.158,0h-9.062a.824.824,0,0,1-.912-.741.9.9,0,0,1,0-.166.848.848,0,0,1,.769-.912.833.833,0,0,1,.147,0M117.2,10.4v.28c0,.214.051.28.242.28h5.434V10.4c0-.187-.064-.254-.267-.254h-5.167C117.255,10.145,117.2,10.211,117.2,10.4Z" fill="#fff"/>
      </g>
    </g>
  </g>
</svg>
