<svg xmlns="http://www.w3.org/2000/svg" xmlns:xlink="http://www.w3.org/1999/xlink" width="100" height="100" viewBox="0 0 100 100">
  <defs>
    <clipPath id="clip-path">
      <rect id="crop" width="100" height="100" transform="translate(-11 -9)" fill="none" opacity="0.1"/>
    </clipPath>
    <clipPath id="clip-path-2">
      <rect id="사각형_27578" data-name="사각형 27578" width="63.22" height="47.918" fill="none"/>
    </clipPath>
  </defs>
  <g id="Vector_Smart_Object" data-name="Vector Smart Object" transform="translate(11 9)" clip-path="url(#clip-path)">
    <g id="그룹_53166" data-name="그룹 53166" transform="translate(7.391 17.042)">
      <g id="그룹_53165" data-name="그룹 53165" transform="translate(0 0)" clip-path="url(#clip-path-2)">
        <path id="패스_70662" data-name="패스 70662" d="M26.866,39.928H34.93a3.741,3.741,0,0,0,3.375-3.268H54.029V5.144A3.643,3.643,0,0,0,50.385,1.5H11.412A3.645,3.645,0,0,0,7.766,5.144V36.659H23.493a3.738,3.738,0,0,0,3.373,3.268" transform="translate(0.712 0.137)" fill="none"/>
        <path id="패스_70663" data-name="패스 70663" d="M26.866,39.928H34.93a3.741,3.741,0,0,0,3.375-3.268H54.029V5.144A3.643,3.643,0,0,0,50.385,1.5H11.412A3.645,3.645,0,0,0,7.766,5.144V36.659H23.493A3.738,3.738,0,0,0,26.866,39.928Z" transform="translate(0.712 0.137)" fill="none" stroke="#fff" stroke-linecap="round" stroke-linejoin="round" stroke-width="3"/>
        <path id="패스_70664" data-name="패스 70664" d="M38.879,33.707A3.74,3.74,0,0,1,35.5,36.975H27.439a3.737,3.737,0,0,1-3.372-3.268H1.5V38.37c0,2.664,1.727,4.822,3.857,4.822H57.589c2.129,0,3.856-2.158,3.856-4.822V33.707Z" transform="translate(0.138 3.089)" fill="#3b9df8" opacity="0.75"/>
        <path id="패스_70665" data-name="패스 70665" d="M38.879,33.707A3.74,3.74,0,0,1,35.5,36.975H27.439a3.737,3.737,0,0,1-3.372-3.268H1.5V38.37c0,2.664,1.727,4.822,3.857,4.822H57.589c2.129,0,3.856-2.158,3.856-4.822V33.707Z" transform="translate(0.138 3.089)" fill="none" stroke="#fff" stroke-linecap="round" stroke-linejoin="round" stroke-width="3"/>
        <line id="선_2266" data-name="선 2266" x2="5.724" transform="translate(28.748 8.918)" fill="#fff"/>
        <line id="선_2267" data-name="선 2267" x2="5.724" transform="translate(28.748 8.918)" fill="none" stroke="#fff" stroke-linecap="round" stroke-linejoin="round" stroke-width="3"/>
        <rect id="사각형_27576" data-name="사각형 27576" width="23.496" height="10.12" transform="translate(19.862 17.803)" fill="#7d99ff" opacity="0.75"/>
        <rect id="사각형_27577" data-name="사각형 27577" width="23.496" height="10.12" transform="translate(19.862 17.803)" fill="none" stroke="#fff" stroke-width="3"/>
      </g>
    </g>
  </g>
</svg>
