<svg xmlns="http://www.w3.org/2000/svg" xmlns:xlink="http://www.w3.org/1999/xlink" width="100" height="100" viewBox="0 0 100 100">
  <defs>
    <clipPath id="clip-path">
      <rect id="crop" width="100" height="100" transform="translate(-8 -9)" fill="none"/>
    </clipPath>
    <clipPath id="clip-path-2">
      <rect id="사각형_27575" data-name="사각형 27575" width="56" height="58" fill="none"/>
    </clipPath>
  </defs>
  <g id="Vector_Smart_Object" data-name="Vector Smart Object" transform="translate(8 9)" clip-path="url(#clip-path)">
    <g id="그룹_53164" data-name="그룹 53164" transform="translate(14 12)">
      <g id="그룹_53163" data-name="그룹 53163" transform="translate(0 0)" clip-path="url(#clip-path-2)">
        <path id="패스_70656" data-name="패스 70656" d="M17.657,10.665V7.292A5.8,5.8,0,0,1,23.471,1.5h5.816A5.8,5.8,0,0,1,35.1,7.292v3.374" transform="translate(1.621 0.131)" fill="none"/>
        <path id="패스_70657" data-name="패스 70657" d="M17.657,10.665V7.292A5.8,5.8,0,0,1,23.471,1.5h5.816A5.8,5.8,0,0,1,35.1,7.292v3.374" transform="translate(1.621 0.131)" fill="none" stroke="#fff" stroke-linecap="round" stroke-linejoin="round" stroke-width="3"/>
        <path id="패스_70658" data-name="패스 70658" d="M48.99,30.791H32.516v6.951H23.21V30.791H6.733A5.8,5.8,0,0,1,1.5,27.479V53.962H54.225V27.482a5.805,5.805,0,0,1-5.234,3.309" transform="translate(0.138 2.407)" fill="none"/>
        <path id="패스_70659" data-name="패스 70659" d="M48.99,30.791H32.516v6.951H23.21V30.791H6.733A5.8,5.8,0,0,1,1.5,27.479V53.962H54.225V27.482A5.805,5.805,0,0,1,48.99,30.791Z" transform="translate(0.138 2.407)" fill="none" stroke="#fff" stroke-linecap="round" stroke-linejoin="round" stroke-width="3"/>
        <path id="패스_70660" data-name="패스 70660" d="M1.5,9.927v19.09a5.8,5.8,0,0,0,5.233,3.312H23.21V25.376h9.306v6.952H48.99a5.805,5.805,0,0,0,5.234-3.309V9.927Z" transform="translate(0.138 0.869)" fill="#3b9df8" opacity="0.75"/>
        <path id="패스_70661" data-name="패스 70661" d="M1.5,9.927v19.09a5.8,5.8,0,0,0,5.233,3.312H23.21V25.376h9.306v6.952H48.99a5.805,5.805,0,0,0,5.234-3.309V9.927Z" transform="translate(0.138 0.869)" fill="none" stroke="#fff" stroke-width="3"/>
        <rect id="사각형_27573" data-name="사각형 27573" width="9.306" height="13.902" transform="translate(23.348 26.246)" fill="#7d99ff" opacity="0.75"/>
        <rect id="사각형_27574" data-name="사각형 27574" width="9.306" height="13.902" transform="translate(23.348 26.246)" fill="none" stroke="#fff" stroke-linecap="round" stroke-linejoin="round" stroke-width="3"/>
      </g>
    </g>
  </g>
</svg>
