<svg xmlns="http://www.w3.org/2000/svg" xmlns:xlink="http://www.w3.org/1999/xlink" width="100" height="100" viewBox="0 0 100 100">
  <defs>
    <clipPath id="clip-path">
      <rect id="crop" width="100" height="100" transform="translate(-7 -10)" fill="none"/>
    </clipPath>
    <clipPath id="clip-path-2">
      <rect id="사각형_27586" data-name="사각형 27586" width="68.427" height="51.75" fill="none"/>
    </clipPath>
  </defs>
  <g id="Vector_Smart_Object" data-name="Vector Smart Object" transform="translate(7 10)" clip-path="url(#clip-path)">
    <g id="그룹_53170" data-name="그룹 53170" transform="translate(8.787 14.125)">
      <g id="그룹_53169" data-name="그룹 53169" transform="translate(0 0)" clip-path="url(#clip-path-2)">
        <path id="사각형_27580" data-name="사각형 27580" d="M4.4,0H47.634a4.4,4.4,0,0,1,4.4,4.4V39.744a4.4,4.4,0,0,1-4.4,4.4H4.4a4.4,4.4,0,0,1-4.4-4.4V4.4A4.4,4.4,0,0,1,4.4,0Z" transform="translate(9.877 1.707)" fill="none"/>
        <path id="사각형_27581" data-name="사각형 27581" d="M4.4,0H47.634a4.4,4.4,0,0,1,4.4,4.4v31.72a0,0,0,0,1,0,0H0a0,0,0,0,1,0,0V4.4A4.4,4.4,0,0,1,4.4,0Z" transform="translate(9.877 1.707)" fill="none" stroke="#fff" stroke-width="3"/>
        <path id="패스_70676" data-name="패스 70676" d="M4.453,33.231v7.21a5.007,5.007,0,0,0,5.006,5.006H61.1A5.008,5.008,0,0,0,66.1,40.441v-7.21Z" transform="translate(0.616 4.596)" fill="#3b9df8" opacity="0.75"/>
        <path id="패스_70677" data-name="패스 70677" d="M4.453,33.231v7.21a5.007,5.007,0,0,0,5.006,5.006H61.1A5.008,5.008,0,0,0,66.1,40.441v-7.21Z" transform="translate(0.616 4.596)" fill="none" stroke="#fff" stroke-width="3"/>
        <line id="선_2270" data-name="선 2270" x2="5.608" transform="translate(52.387 43.383)" fill="#fff"/>
        <line id="선_2271" data-name="선 2271" x2="5.608" transform="translate(52.387 43.383)" fill="none" stroke="#fff" stroke-width="3"/>
        <rect id="사각형_27582" data-name="사각형 27582" width="21.499" height="10.423" transform="translate(1.707 16.249)" fill="#7d99ff" opacity="0.75"/>
        <rect id="사각형_27583" data-name="사각형 27583" width="21.499" height="10.423" transform="translate(1.707 16.249)" fill="none" stroke="#fff" stroke-width="3"/>
        <rect id="사각형_27584" data-name="사각형 27584" width="21.499" height="10.423" transform="translate(30.045 16.249)" fill="#7d99ff" opacity="0.75"/>
        <rect id="사각형_27585" data-name="사각형 27585" width="21.499" height="10.423" transform="translate(30.045 16.249)" fill="none" stroke="#fff" stroke-width="3"/>
      </g>
    </g>
  </g>
</svg>
