<svg xmlns="http://www.w3.org/2000/svg" width="74" height="74" viewBox="0 0 74 74">
  <g id="Result_icon" transform="translate(-923 -722)">
    <rect id="사각형_6007" data-name="사각형 6007" width="74" height="74" transform="translate(923 722)" fill="none"/>
    <g id="그룹_33263" data-name="그룹 33263" transform="translate(581.781 119.621)">
      <path id="패스_40157" data-name="패스 40157" d="M372.247,656.26a22.853,22.853,0,1,1,8.193-44.187l-1.3,3.384a19.242,19.242,0,1,0,6.7,4.357l2.561-2.561a22.845,22.845,0,0,1-16.16,39.007Z" transform="translate(0)" fill="#828dac"/>
      <rect id="사각형_6008" data-name="사각형 6008" width="3.623" height="6.466" transform="translate(386.591 650.04) rotate(-45.018)" fill="#828dac"/>
      <path id="패스_40158" data-name="패스 40158" d="M387.913,656.439,375.585,644.11l7.361-7.364,12.329,12.332Zm-7.205-12.329,7.205,7.206,2.24-2.239-7.206-7.208Z" transform="translate(11.759 11.761)" fill="#828dac"/>
      <rect id="사각형_6009" data-name="사각형 6009" width="6.787" height="2.173" transform="translate(392.178 658.144) rotate(-45)" fill="#828dac"/>
      <g id="그룹_33262" data-name="그룹 33262" transform="translate(367.984 621.512)">
        <path id="패스_40159" data-name="패스 40159" d="M366.406,635.806h-3.623v-5.918h1.811c2.905,0,5.269-1.829,5.269-4.075,0-2.474-2.068-4.073-5.269-4.073h-2.369v-3.623h2.369c5.234,0,8.892,3.165,8.892,7.7,0,3.707-3.043,6.809-7.08,7.537Z" transform="translate(-362.225 -618.117)" fill="#828dac"/>
        <rect id="사각형_6010" data-name="사각형 6010" width="3.623" height="4.084" transform="translate(0.65 19.71)" fill="#828dac"/>
      </g>
    </g>
  </g>
</svg>
