<svg xmlns="http://www.w3.org/2000/svg" width="40" height="40" viewBox="0 0 40 40">
  <g id="그룹_53231" data-name="그룹 53231" transform="translate(5.697 14.445)">
    <g id="그룹_3" data-name="그룹 3" transform="translate(20.687 0)">
      <path id="패스_4" data-name="패스 4" d="M86.752,5.293V7.858a1.788,1.788,0,0,0,1.857,1.9A3.368,3.368,0,0,0,90.024,9.5a2.684,2.684,0,0,1,.695-.283,1.035,1.035,0,0,1,1.149.513,1.165,1.165,0,0,1-.347,1.539,4.749,4.749,0,0,1-2.912.877C86.3,12.15,84,10.962,84,7.979V5.171C84,2.188,86.3,1,88.608,1a4.63,4.63,0,0,1,2.632.661,1.232,1.232,0,0,1,.494,1.606,1.15,1.15,0,0,1-1.216.58,3.236,3.236,0,0,1-.735-.283,3.041,3.041,0,0,0-1.176-.175A1.788,1.788,0,0,0,86.752,5.293Z" transform="translate(-84 -1)" fill="#fff"/>
    </g>
    <g id="그룹_4" data-name="그룹 4" transform="translate(0 0)">
      <path id="패스_5" data-name="패스 5" d="M47.151,1h2.055c2.385,0,4.9,1.274,4.9,5.125v.9c0,3.851-2.51,5.125-4.9,5.125H47.151C45.5,12.15,45,11.555,45,9.962V3.189C45,1.6,45.5,1,47.151,1Zm4.137,6.247V5.9c0-1.621-.869-2.507-2.165-2.507h-.91c-.317,0-.4.069-.4.4V9.352c0,.332.083.4.4.4h.91C50.419,9.754,51.288,8.868,51.288,7.247Z" transform="translate(-45 -1)" fill="#fff"/>
    </g>
    <g id="그룹_5" data-name="그룹 5" transform="translate(11.209 0.105)">
      <path id="패스_6" data-name="패스 6" d="M69.028,4.713A4.2,4.2,0,0,1,66.15,5.739l1.007,2.785a6.088,6.088,0,0,0,3.309-.879c1.381-.821,2.781-3.273,3.309-4.4L72.768,1.2A3.6,3.6,0,0,0,70.9,2.514a12.685,12.685,0,0,1-1.87,2.2Z" transform="translate(-66.15 -1.195)" fill="#fff"/>
    </g>
    <g id="그룹_6" data-name="그룹 6" transform="translate(10.086 0.536)">
      <path id="패스_7" data-name="패스 7" d="M67.212,3.607A1.606,1.606,0,1,1,65.606,2,1.606,1.606,0,0,1,67.212,3.607Z" transform="translate(-64 -2.001)" fill="#fff"/>
    </g>
    <g id="그룹_7" data-name="그룹 7" transform="translate(10.086 4.191)">
      <path id="패스_8" data-name="패스 8" d="M64,10.607a1.606,1.606,0,0,1,3.212,0v3.747a1.606,1.606,0,0,1-3.212,0Z" transform="translate(-64 -9.001)" fill="#fff"/>
    </g>
    <g id="그룹_8" data-name="그룹 8" transform="translate(16.465 0)">
      <path id="패스_9" data-name="패스 9" d="M79.212,10.558a1.606,1.606,0,0,1-3.212,0V2.593a1.606,1.606,0,0,1,3.212,0Z" transform="translate(-76 -1)" fill="#fff"/>
    </g>
    <g id="사각형_27627" data-name="사각형 27627" transform="translate(-5.697 -14.445)" fill="none" stroke="#fff" stroke-width="2">
      <rect width="40" height="40" rx="5" stroke="none"/>
      <rect x="1" y="1" width="38" height="38" rx="4" fill="none"/>
    </g>
  </g>
</svg>
