<svg width="420" height="200" viewBox="0 0 420 200" fill="none" xmlns="http://www.w3.org/2000/svg">
    <g clip-path="url(#clip_404)">
        <path d="M141.952 87.834C141.952 82.602 142.381 73.994 142.695 68.762H142.067C139.556 73.509 136.731 77.862 133.906 82.807L110.521 116.828H167.815V127.057H97V118.586L139.825 55H154.168V154.547H141.952V87.834Z" fill="black"/>
        <path d="M212.382 152.218C199.503 152.248 187.132 147.192 177.961 138.15C173.525 133.788 169.982 128.602 167.531 122.884C165.006 116.974 163.704 110.614 163.704 104.187C163.704 97.7602 165.006 91.4 167.531 85.49C169.982 79.7715 173.525 74.586 177.961 70.224C187.14 61.189 199.502 56.1251 212.381 56.1251C225.261 56.1251 237.624 61.189 246.802 70.224C251.239 74.586 254.782 79.7715 257.233 85.49C259.758 91.4 261.06 97.7602 261.06 104.187C261.06 110.614 259.758 116.974 257.233 122.884C254.782 128.602 251.239 133.788 246.802 138.15C237.631 147.192 225.261 152.248 212.382 152.218ZM212.382 62.548C189.113 62.548 170.182 81.227 170.182 104.187C170.182 127.147 189.112 145.826 212.382 145.826C235.652 145.826 254.582 127.147 254.582 104.187C254.582 81.227 235.651 62.548 212.382 62.548Z" fill="black" stroke="black" stroke-width="3"/>
        <path d="M203.453 88.0116L192.814 98.65L195.177 101.013L205.816 90.3748L203.453 88.0116Z" fill="#C12626"/>
        <path d="M195.177 88.0109L192.814 90.374L203.453 101.012L205.816 98.6493L195.177 88.0109Z" fill="#C12626"/>
        <path d="M231.536 88.0116L220.898 98.65L223.261 101.013L233.9 90.3748L231.536 88.0116Z" fill="#C12626"/>
        <path d="M223.261 88.0109L220.898 90.374L231.536 101.012L233.9 98.6493L223.261 88.0109Z" fill="#C12626"/>
        <path d="M194.789 101.581L191.604 98.402L195.738 94.261L191.597 90.127L194.776 86.942L198.917 91.076L203.051 86.935L206.236 90.114L202.102 94.2551L206.243 98.389L203.064 101.574L198.923 97.44L194.789 101.581ZM198.922 95.8021L203.063 99.936L204.606 98.3911L200.465 94.257L204.599 90.116L203.053 88.5731L198.919 92.7141L194.778 88.58L193.235 90.126L197.377 94.2601L193.243 98.4011L194.789 99.944L198.922 95.8021Z" fill="#C12626"/>
        <path d="M231.097 101.547L226.955 97.413L222.821 101.554L219.636 98.375L223.77 94.234L219.629 90.1L222.808 86.915L226.949 91.0491L231.083 86.9081L234.268 90.087L230.134 94.228L234.275 98.3621L231.097 101.547ZM226.954 95.775L231.095 99.9091L232.638 98.363L228.497 94.229L232.631 90.088L231.086 88.545L226.952 92.686L222.811 88.552L221.268 90.098L225.41 94.2321L221.276 98.373L222.822 99.916L226.954 95.775Z" fill="#C12626"/>
        <path d="M199.5 123.002C199.5 123.002 201.268 119.002 213.007 119.002C224.746 119.002 227.5 123.002 227.5 123.002" stroke="#C12626" stroke-width="4" stroke-linecap="round"/>
        <path d="M296.952 87.834C296.952 82.602 297.381 73.994 297.695 68.762H297.067C294.556 73.509 291.731 77.862 288.906 82.807L265.521 116.828H322.815V127.057H252V118.586L294.825 55H309.168V154.547H296.952V87.834Z" fill="black"/>

        <path d="M134 179.049H137.935C141.023 179.049 143.106 180.067 143.106 183.023C143.106 185.863 141.034 187.191 138.02 187.191H135.754V192.545H134.001L134 179.049ZM137.8 185.798C140.21 185.798 141.359 184.943 141.359 183.023C141.359 181.076 140.137 180.442 137.716 180.442H135.756V185.798H137.8Z" fill="#C12626"/>
        <path d="M147.666 179.049H149.645L154.307 192.549H152.45L150.05 185.011C149.55 183.502 149.113 182.021 148.671 180.464H148.587C148.161 182.028 147.719 183.502 147.223 185.011L144.794 192.549H143.009L147.666 179.049ZM145.455 187.063H151.8V188.434H145.455V187.063Z" fill="#C12626"/>
        <path d="M155.244 185.809C155.244 181.454 157.916 178.798 161.568 178.798C162.309 178.788 163.045 178.93 163.728 179.217C164.412 179.503 165.029 179.928 165.542 180.463L164.581 181.583C164.205 181.173 163.746 180.846 163.235 180.627C162.724 180.407 162.171 180.298 161.615 180.308C158.839 180.308 157.054 182.399 157.054 185.764C157.054 189.164 158.692 191.287 161.632 191.287C162.527 191.325 163.408 191.044 164.115 190.493V186.976H161.198V185.552H165.714V191.233C164.56 192.295 163.034 192.859 161.467 192.801C157.831 192.797 155.244 190.195 155.244 185.809Z" fill="#C12626"/>
        <path d="M168.539 179.049H176.481V180.503H170.294V184.731H175.514V186.185H170.294V191.091H176.694V192.545H168.542L168.539 179.049Z" fill="#C12626"/>
        <path d="M183.594 179.049H185.405L190.392 187.533L191.879 190.327H191.963C191.874 188.966 191.739 187.444 191.739 186.033V179.048H193.404V192.548H191.593L186.606 184.056L185.119 181.269H185.035C185.123 182.635 185.258 184.075 185.258 185.485V192.548H183.593L183.594 179.049Z" fill="#C12626"/>
        <path d="M196.197 185.748C196.197 181.423 198.626 178.797 202.087 178.797C205.548 178.797 207.976 181.429 207.976 185.748C207.976 190.067 205.547 192.797 202.087 192.797C198.627 192.797 196.197 190.074 196.197 185.748ZM206.165 185.748C206.165 182.384 204.546 180.307 202.086 180.307C199.626 180.307 198.007 182.384 198.007 185.748C198.007 189.112 199.625 191.286 202.086 191.286C204.547 191.286 206.165 189.113 206.165 185.748Z" fill="#C12626"/>
        <path d="M213.139 180.503H208.971V179.049H219.061V180.503H214.892V192.545H213.14L213.139 180.503Z" fill="#C12626"/>
        <path d="M225.517 179.049H233.464V180.503H227.271V185.054H232.522V186.508H227.271V192.546H225.518L225.517 179.049Z" fill="#C12626"/>
        <path d="M234.719 185.748C234.719 181.423 237.148 178.797 240.608 178.797C244.068 178.797 246.497 181.429 246.497 185.748C246.497 190.067 244.068 192.797 240.608 192.797C237.148 192.797 234.719 190.074 234.719 185.748ZM244.687 185.748C244.687 182.384 243.068 180.307 240.608 180.307C238.148 180.307 236.53 182.384 236.53 185.748C236.53 189.112 238.147 191.286 240.608 191.286C243.069 191.286 244.687 189.113 244.687 185.748Z" fill="#C12626"/>
        <path d="M249.225 186.974V179.049H250.978V187.022C250.978 190.266 252.378 191.286 254.178 191.286C256.003 191.286 257.445 190.265 257.445 187.022V179.049H259.125V186.974C259.125 191.307 256.99 192.796 254.178 192.796C251.366 192.796 249.225 191.308 249.225 186.974Z" fill="#C12626"/>
        <path d="M262.462 179.049H264.272L269.259 187.533L270.747 190.327H270.83C270.742 188.966 270.607 187.444 270.607 186.033V179.048H272.271V192.548H270.461L265.474 184.056L263.987 181.269H263.903C263.991 182.635 264.126 184.075 264.126 185.485V192.548H262.462V179.049Z" fill="#C12626"/>
        <path d="M276.046 179.049H279.492C283.729 179.049 286 181.461 286 185.749C286 190.037 283.729 192.549 279.569 192.549H276.045L276.046 179.049ZM279.362 191.137C282.583 191.137 284.19 189.159 284.19 185.748C284.19 182.337 282.584 180.457 279.362 180.457H277.799V191.137H279.362Z" fill="#C12626"/>

        <path d="M44.38 7.99194V12.3929" stroke="#F24048" stroke-width="3" stroke-linecap="round" stroke-linejoin="round"/>
        <path d="M37.386 8.86896L38.525 13.12" stroke="#F24048" stroke-width="3" stroke-linecap="round" stroke-linejoin="round"/>
        <path d="M30.8569 11.525L33.0579 15.337" stroke="#F24048" stroke-width="3" stroke-linecap="round" stroke-linejoin="round"/>
        <path d="M25.2379 15.7809L28.3499 18.8929" stroke="#F24048" stroke-width="3" stroke-linecap="round" stroke-linejoin="round"/>
        <path d="M20.912 21.3459L24.724 23.5469" stroke="#F24048" stroke-width="3" stroke-linecap="round" stroke-linejoin="round"/>
        <path d="M18.174 27.8409L22.425 28.9799" stroke="#F24048" stroke-width="3" stroke-linecap="round" stroke-linejoin="round"/>
        <path d="M17.21 34.824H21.611" stroke="#F24048" stroke-width="3" stroke-linecap="round" stroke-linejoin="round"/>
        <path d="M18.0859 41.818L22.3369 40.679" stroke="#F24048" stroke-width="3" stroke-linecap="round" stroke-linejoin="round"/>
        <path d="M20.912 48.263L24.724 46.062" stroke="#F24048" stroke-width="3" stroke-linecap="round" stroke-linejoin="round"/>
        <path d="M25.168 53.882L28.28 50.77" stroke="#F24048" stroke-width="3" stroke-linecap="round" stroke-linejoin="round"/>
        <path d="M30.52 58.3769L32.721 54.5649" stroke="#F24048" stroke-width="3" stroke-linecap="round" stroke-linejoin="round"/>
        <path d="M37.228 60.9459L38.367 56.6949" stroke="#F24048" stroke-width="3" stroke-linecap="round" stroke-linejoin="round"/>
        <path d="M44.2109 61.91V57.509" stroke="#F24048" stroke-width="3" stroke-linecap="round" stroke-linejoin="round"/>
        <path d="M51.2049 61.033L50.0659 56.782" stroke="#F24048" stroke-width="3" stroke-linecap="round" stroke-linejoin="round"/>
        <path d="M57.734 58.3769L55.533 54.5649" stroke="#F24048" stroke-width="3" stroke-linecap="round" stroke-linejoin="round"/>
        <path d="M63.352 54.121L60.24 51.009" stroke="#F24048" stroke-width="3" stroke-linecap="round" stroke-linejoin="round"/>
        <path d="M67.6789 48.557L63.8669 46.356" stroke="#F24048" stroke-width="3" stroke-linecap="round" stroke-linejoin="round"/>
        <path d="M70.247 42.145L65.996 41.006" stroke="#F24048" stroke-width="3" stroke-linecap="round" stroke-linejoin="round"/>
        <path d="M71.2109 35.162H66.8099" stroke="#F24048" stroke-width="3" stroke-linecap="round" stroke-linejoin="round"/>
        <path d="M70.335 28.168L66.084 29.307" stroke="#F24048" stroke-width="3" stroke-linecap="round" stroke-linejoin="round"/>
        <path d="M67.6789 21.639L63.8669 23.84" stroke="#F24048" stroke-width="3" stroke-linecap="round" stroke-linejoin="round"/>
        <path d="M63.4219 16.02L60.3099 19.132" stroke="#F24048" stroke-width="3" stroke-linecap="round" stroke-linejoin="round"/>
        <path d="M58.0699 11.525L55.8689 15.337" stroke="#F24048" stroke-width="3" stroke-linecap="round" stroke-linejoin="round"/>
        <path d="M51.3619 8.95593L50.2229 13.2069" stroke="#F24048" stroke-width="3" stroke-linecap="round" stroke-linejoin="round"/>
        <path d="M371.094 147.797V150.242" stroke="#F24048" stroke-width="2" stroke-linecap="round" stroke-linejoin="round"/>
        <path d="M367.209 148.284L367.842 150.646" stroke="#F24048" stroke-width="2" stroke-linecap="round" stroke-linejoin="round"/>
        <path d="M363.582 149.76L364.805 151.878" stroke="#F24048" stroke-width="2" stroke-linecap="round" stroke-linejoin="round"/>
        <path d="M360.46 152.124L362.189 153.853" stroke="#F24048" stroke-width="2" stroke-linecap="round" stroke-linejoin="round"/>
        <path d="M358.057 154.97L360.175 156.193" stroke="#F24048" stroke-width="2" stroke-linecap="round" stroke-linejoin="round"/>
        <path d="M356.536 158.466L358.898 159.099" stroke="#F24048" stroke-width="2" stroke-linecap="round" stroke-linejoin="round"/>
        <path d="M356 162.229H358.445" stroke="#F24048" stroke-width="2" stroke-linecap="round" stroke-linejoin="round"/>
        <path d="M356.487 165.999L358.849 165.366" stroke="#F24048" stroke-width="2" stroke-linecap="round" stroke-linejoin="round"/>
        <path d="M358.057 169.468L360.175 168.245" stroke="#F24048" stroke-width="2" stroke-linecap="round" stroke-linejoin="round"/>
        <path d="M360.421 172.338L362.15 170.609" stroke="#F24048" stroke-width="2" stroke-linecap="round" stroke-linejoin="round"/>
        <path d="M363.395 174.835L364.618 172.717" stroke="#F24048" stroke-width="2" stroke-linecap="round" stroke-linejoin="round"/>
        <path d="M367.121 176.262L367.754 173.9" stroke="#F24048" stroke-width="2" stroke-linecap="round" stroke-linejoin="round"/>
        <path d="M371 176.797V174.352" stroke="#F24048" stroke-width="2" stroke-linecap="round" stroke-linejoin="round"/>
        <path d="M374.886 176.311L374.253 173.949" stroke="#F24048" stroke-width="2" stroke-linecap="round" stroke-linejoin="round"/>
        <path d="M378.513 174.835L377.29 172.717" stroke="#F24048" stroke-width="2" stroke-linecap="round" stroke-linejoin="round"/>
        <path d="M381.635 172.471L379.906 170.742" stroke="#F24048" stroke-width="2" stroke-linecap="round" stroke-linejoin="round"/>
        <path d="M384.038 169.626L381.92 168.403" stroke="#F24048" stroke-width="2" stroke-linecap="round" stroke-linejoin="round"/>
        <path d="M385.465 166.174L383.103 165.541" stroke="#F24048" stroke-width="2" stroke-linecap="round" stroke-linejoin="round"/>
        <path d="M386 162.411H383.555" stroke="#F24048" stroke-width="2" stroke-linecap="round" stroke-linejoin="round"/>
        <path d="M385.514 158.641L383.152 159.274" stroke="#F24048" stroke-width="2" stroke-linecap="round" stroke-linejoin="round"/>
        <path d="M384.038 155.127L381.92 156.35" stroke="#F24048" stroke-width="2" stroke-linecap="round" stroke-linejoin="round"/>
        <path d="M381.674 152.257L379.945 153.986" stroke="#F24048" stroke-width="2" stroke-linecap="round" stroke-linejoin="round"/>
        <path d="M378.7 149.76L377.477 151.878" stroke="#F24048" stroke-width="2" stroke-linecap="round" stroke-linejoin="round"/>
        <path d="M374.974 148.333L374.341 150.695" stroke="#F24048" stroke-width="2" stroke-linecap="round" stroke-linejoin="round"/>
    </g>
    <defs>
        <clipPath id="clip0_404">
            <rect width="420" height="200" fill="white"/>
        </clipPath>
    </defs>
</svg>
