<svg width="420" height="200" viewBox="0 0 420 200" fill="none" xmlns="http://www.w3.org/2000/svg">
    <g clip-path="url(#clip_500)">
        <path d="M83.0031 127.364H94.703C95.578 135.976 104.055 142.385 114.619 142.451C127.268 142.384 136.419 133.239 136.419 121.089C136.419 108.539 126.932 99.259 113.812 99.189C105.603 99.056 99.212 101.589 95.6451 107.868H83.942L90.803 54.997H143.554V65.678H100.898L97.265 93.983H98.203C103.381 90.2802 109.601 88.3166 115.966 88.375C134.536 88.375 148.195 101.994 148.266 120.819C148.203 139.514 134.068 152.997 114.623 152.997C97.062 152.997 83.7401 142.251 83.0031 127.364Z" fill="black"/>

        <path d="M195.382 152.218C182.503 152.248 170.132 147.192 160.961 138.15C156.525 133.788 152.982 128.602 150.531 122.884C148.006 116.974 146.704 110.614 146.704 104.187C146.704 97.7602 148.006 91.4 150.531 85.49C152.982 79.7715 156.525 74.586 160.961 70.224C170.14 61.189 182.502 56.1251 195.381 56.1251C208.261 56.1251 220.624 61.189 229.802 70.224C234.239 74.586 237.782 79.7715 240.233 85.49C242.758 91.4 244.06 97.7602 244.06 104.187C244.06 110.614 242.758 116.974 240.233 122.884C237.782 128.602 234.239 133.788 229.802 138.15C220.631 147.192 208.261 152.248 195.382 152.218ZM195.382 62.548C172.113 62.548 153.182 81.227 153.182 104.187C153.182 127.147 172.112 145.826 195.382 145.826C218.652 145.826 237.582 127.147 237.582 104.187C237.582 81.227 218.651 62.548 195.382 62.548Z" fill="black" stroke="black" stroke-width="3"/>
        <path d="M186.453 88.0116L175.814 98.65L178.177 101.013L188.816 90.3748L186.453 88.0116Z" fill="#C12626"/>
        <path d="M178.177 88.0109L175.814 90.374L186.453 101.012L188.816 98.6493L178.177 88.0109Z" fill="#C12626"/>
        <path d="M214.536 88.0116L203.898 98.65L206.261 101.013L216.9 90.3748L214.536 88.0116Z" fill="#C12626"/>
        <path d="M206.261 88.0109L203.898 90.374L214.536 101.012L216.9 98.6493L206.261 88.0109Z" fill="#C12626"/>
        <path d="M177.789 101.581L174.604 98.402L178.738 94.261L174.597 90.127L177.776 86.942L181.917 91.076L186.051 86.935L189.236 90.114L185.102 94.2551L189.243 98.389L186.064 101.574L181.923 97.44L177.789 101.581ZM181.922 95.8021L186.063 99.936L187.606 98.3911L183.465 94.257L187.599 90.116L186.053 88.5731L181.919 92.7141L177.778 88.58L176.235 90.126L180.377 94.2601L176.243 98.4011L177.789 99.944L181.922 95.8021Z" fill="#C12626"/>
        <path d="M214.097 101.547L209.955 97.413L205.821 101.554L202.636 98.375L206.77 94.234L202.629 90.1L205.808 86.915L209.949 91.0491L214.083 86.9081L217.268 90.087L213.134 94.228L217.275 98.3621L214.097 101.547ZM209.954 95.775L214.095 99.9091L215.638 98.363L211.497 94.229L215.631 90.088L214.086 88.545L209.952 92.686L205.811 88.552L204.268 90.098L208.41 94.2321L204.276 98.373L205.822 99.916L209.954 95.775Z" fill="#C12626"/>
        <path d="M182.5 123.002C182.5 123.002 184.268 119.002 196.007 119.002C207.746 119.002 210.5 123.002 210.5 123.002" stroke="#C12626" stroke-width="4" stroke-linecap="round"/>

        <path d="M293.382 152.999C280.503 153.029 268.132 147.973 258.961 138.931C254.525 134.569 250.982 129.383 248.531 123.665C246.006 117.755 244.704 111.395 244.704 104.968C244.704 98.5412 246.006 92.181 248.531 86.271C250.982 80.5525 254.525 75.367 258.961 71.005C268.14 61.97 280.502 56.9061 293.381 56.9061C306.261 56.9061 318.624 61.97 327.802 71.005C332.239 75.367 335.782 80.5525 338.233 86.271C340.758 92.181 342.06 98.5412 342.06 104.968C342.06 111.395 340.758 117.755 338.233 123.665C335.782 129.383 332.239 134.569 327.802 138.931C318.631 147.973 306.261 153.029 293.382 152.999ZM293.382 63.329C270.113 63.329 251.182 82.008 251.182 104.968C251.182 127.928 270.112 146.607 293.382 146.607C316.652 146.607 335.582 127.928 335.582 104.968C335.582 82.008 316.651 63.329 293.382 63.329Z" fill="black" stroke="black" stroke-width="3"/>

        <path d="M98.7012 192.754H97.001V179.189H98.7012V192.754Z" fill="#C12626"/>
        <path d="M112.592 192.754H110.967L103.558 182.187H103.426V192.754H101.726V179.189H103.37L110.779 189.776H110.911V179.189H112.593L112.592 192.754Z" fill="#C12626"/>
        <path d="M114.86 179.189H125.179V180.689H120.888V192.755H119.168V180.689H114.859L114.86 179.189Z" fill="#C12626"/>
        <path d="M127.447 179.189H135.747V180.689H129.147V185.223H135.308V186.703H129.147V191.256H135.837V192.756H127.445L127.447 179.189Z" fill="#C12626"/>
        <path d="M138.334 179.189H142.983C146.183 179.189 147.651 180.951 147.651 183.368C147.712 184.196 147.494 185.02 147.032 185.709C146.569 186.398 145.889 186.912 145.1 187.168L148.181 192.751H146.197L143.334 187.477C143.234 187.487 143.116 187.487 143.003 187.487H140.036V192.752H138.336L138.334 179.189ZM142.927 185.953C145.11 185.953 145.96 184.979 145.969 183.368C145.96 181.747 145.109 180.688 142.907 180.688H140.034V185.953H142.927Z" fill="#C12626"/>
        <path d="M160.948 192.754H159.323L151.914 182.187H151.782V192.754H150.082V179.189H151.726L159.134 189.776H159.267V179.189H160.949L160.948 192.754Z" fill="#C12626"/>
        <path d="M162.772 192.754L167.78 179.189H169.58L174.588 192.754H172.788L171.418 188.932H165.918L164.548 192.754H162.772ZM170.898 187.454L168.725 181.383H168.612L166.439 187.454H170.898Z" fill="#C12626"/>
        <path d="M176.407 179.189H178.107V191.256H184.457V192.756H176.406L176.407 179.189Z" fill="#C12626"/>
        <path d="M195.991 180.499C194.177 180.499 192.991 181.436 192.991 182.729C193 184.154 194.597 184.688 195.637 184.941L196.998 185.316C198.463 185.691 200.873 186.525 200.873 189.065C200.873 191.276 199.073 192.991 195.902 193.001C192.954 192.992 191.13 191.483 190.969 189.234H192.708C192.85 190.752 194.277 191.474 195.902 191.464C197.792 191.474 199.21 190.508 199.21 189.027C199.21 187.706 197.944 187.2 196.51 186.797L194.828 186.348C192.682 185.729 191.341 184.642 191.35 182.805C191.34 180.505 193.401 179.005 196.056 179.005C198.711 179.005 200.62 180.542 200.686 182.605H199.022C198.872 181.268 197.625 180.499 195.991 180.499Z" fill="#C12626"/>
        <path d="M203.278 179.189H211.578V180.689H204.978V185.223H211.139V186.703H204.978V191.256H211.668V192.756H203.277L203.278 179.189Z" fill="#C12626"/>
        <path d="M214.232 179.189H218.881C222.081 179.189 223.549 180.951 223.549 183.368C223.611 184.196 223.393 185.02 222.93 185.709C222.468 186.398 221.787 186.912 220.998 187.168L224.079 192.751H222.095L219.232 187.477C219.132 187.487 219.014 187.487 218.901 187.487H215.934V192.752H214.234L214.232 179.189ZM218.825 185.953C221.008 185.953 221.858 184.979 221.867 183.368C221.858 181.747 221.007 180.688 218.805 180.688H215.933V185.953H218.825Z" fill="#C12626"/>
        <path d="M230.309 190.562H230.46L234.504 179.188H236.304L231.296 192.753H229.496L224.488 179.188H226.288L230.309 190.562Z" fill="#C12626"/>
        <path d="M238.126 179.189H246.426V180.689H239.826V185.223H245.988V186.703H239.826V191.256H246.517V192.756H238.125L238.126 179.189Z" fill="#C12626"/>
        <path d="M249.079 179.189H253.728C256.928 179.189 258.396 180.951 258.396 183.368C258.457 184.196 258.239 185.02 257.777 185.709C257.314 186.398 256.634 186.912 255.845 187.168L258.926 192.751H256.941L254.078 187.477C253.978 187.487 253.861 187.487 253.748 187.487H250.78V192.752H249.08L249.079 179.189ZM253.671 185.953C255.854 185.953 256.704 184.979 256.714 183.368C256.704 181.747 255.854 180.688 253.652 180.688H250.779V185.953H253.671Z" fill="#C12626"/>
        <path d="M265.676 179.189H273.976V180.689H267.376V185.223H273.537V186.703H267.376V191.256H274.066V192.756H265.675L265.676 179.189Z" fill="#C12626"/>
        <path d="M276.629 179.189H281.278C284.478 179.189 285.946 180.951 285.946 183.368C286.007 184.196 285.789 185.02 285.327 185.709C284.864 186.398 284.183 186.912 283.394 187.168L286.475 192.751H284.49L281.627 187.477C281.527 187.487 281.409 187.487 281.296 187.487H278.329V192.752H276.629V179.189ZM281.221 185.953C283.404 185.953 284.255 184.979 284.264 183.368C284.255 181.747 283.404 180.688 281.202 180.688H278.329V185.953H281.221Z" fill="#C12626"/>
        <path d="M288.318 179.189H292.967C296.167 179.189 297.635 180.951 297.635 183.368C297.696 184.196 297.478 185.02 297.015 185.709C296.552 186.398 295.872 186.912 295.083 187.168L298.164 192.751H296.18L293.317 187.477C293.217 187.487 293.1 187.487 292.986 187.487H290.019V192.752H288.319L288.318 179.189ZM292.91 185.953C295.093 185.953 295.943 184.979 295.953 183.368C295.943 181.747 295.093 180.688 292.891 180.688H290.018V185.953H292.91Z" fill="#C12626"/>
        <path d="M305.61 192.943C302.095 192.943 299.553 190.263 299.563 185.971C299.553 181.679 302.095 179 305.61 179C309.125 179 311.668 181.68 311.658 185.971C311.668 190.263 309.116 192.943 305.61 192.943ZM305.61 191.369C308.086 191.36 310.004 189.469 310.01 185.969C310.001 182.469 308.082 180.569 305.61 180.569C303.138 180.569 301.216 182.462 301.21 185.969C301.216 189.467 303.135 191.36 305.61 191.369Z" fill="#C12626"/>
        <path d="M314.154 179.189H318.803C322.003 179.189 323.471 180.951 323.471 183.368C323.533 184.196 323.315 185.02 322.852 185.709C322.39 186.398 321.709 186.912 320.92 187.168L324.001 192.751H322.017L319.153 187.477C319.053 187.487 318.936 187.487 318.822 187.487H315.855V192.752H314.155L314.154 179.189ZM318.747 185.953C320.93 185.953 321.78 184.979 321.789 183.368C321.78 181.747 320.929 180.688 318.727 180.688H315.854V185.953H318.747Z" fill="#C12626"/>

        <path d="M44.38 7.99194V12.3929" stroke="#F24048" stroke-width="3" stroke-linecap="round" stroke-linejoin="round"/>
        <path d="M37.386 8.86896L38.525 13.12" stroke="#F24048" stroke-width="3" stroke-linecap="round" stroke-linejoin="round"/>
        <path d="M30.8569 11.525L33.0579 15.337" stroke="#F24048" stroke-width="3" stroke-linecap="round" stroke-linejoin="round"/>
        <path d="M25.2379 15.7809L28.3499 18.8929" stroke="#F24048" stroke-width="3" stroke-linecap="round" stroke-linejoin="round"/>
        <path d="M20.912 21.3459L24.724 23.5469" stroke="#F24048" stroke-width="3" stroke-linecap="round" stroke-linejoin="round"/>
        <path d="M18.174 27.8409L22.425 28.9799" stroke="#F24048" stroke-width="3" stroke-linecap="round" stroke-linejoin="round"/>
        <path d="M17.21 34.824H21.611" stroke="#F24048" stroke-width="3" stroke-linecap="round" stroke-linejoin="round"/>
        <path d="M18.0859 41.818L22.3369 40.679" stroke="#F24048" stroke-width="3" stroke-linecap="round" stroke-linejoin="round"/>
        <path d="M20.912 48.263L24.724 46.062" stroke="#F24048" stroke-width="3" stroke-linecap="round" stroke-linejoin="round"/>
        <path d="M25.168 53.882L28.28 50.77" stroke="#F24048" stroke-width="3" stroke-linecap="round" stroke-linejoin="round"/>
        <path d="M30.52 58.3769L32.721 54.5649" stroke="#F24048" stroke-width="3" stroke-linecap="round" stroke-linejoin="round"/>
        <path d="M37.228 60.9459L38.367 56.6949" stroke="#F24048" stroke-width="3" stroke-linecap="round" stroke-linejoin="round"/>
        <path d="M44.2109 61.91V57.509" stroke="#F24048" stroke-width="3" stroke-linecap="round" stroke-linejoin="round"/>
        <path d="M51.2049 61.033L50.0659 56.782" stroke="#F24048" stroke-width="3" stroke-linecap="round" stroke-linejoin="round"/>
        <path d="M57.734 58.3769L55.533 54.5649" stroke="#F24048" stroke-width="3" stroke-linecap="round" stroke-linejoin="round"/>
        <path d="M63.352 54.121L60.24 51.009" stroke="#F24048" stroke-width="3" stroke-linecap="round" stroke-linejoin="round"/>
        <path d="M67.6789 48.557L63.8669 46.356" stroke="#F24048" stroke-width="3" stroke-linecap="round" stroke-linejoin="round"/>
        <path d="M70.247 42.145L65.996 41.006" stroke="#F24048" stroke-width="3" stroke-linecap="round" stroke-linejoin="round"/>
        <path d="M71.2109 35.162H66.8099" stroke="#F24048" stroke-width="3" stroke-linecap="round" stroke-linejoin="round"/>
        <path d="M70.335 28.168L66.084 29.307" stroke="#F24048" stroke-width="3" stroke-linecap="round" stroke-linejoin="round"/>
        <path d="M67.6789 21.639L63.8669 23.84" stroke="#F24048" stroke-width="3" stroke-linecap="round" stroke-linejoin="round"/>
        <path d="M63.4219 16.02L60.3099 19.132" stroke="#F24048" stroke-width="3" stroke-linecap="round" stroke-linejoin="round"/>
        <path d="M58.0699 11.525L55.8689 15.337" stroke="#F24048" stroke-width="3" stroke-linecap="round" stroke-linejoin="round"/>
        <path d="M51.3619 8.95593L50.2229 13.2069" stroke="#F24048" stroke-width="3" stroke-linecap="round" stroke-linejoin="round"/>
        <path d="M371.094 147.797V150.242" stroke="#F24048" stroke-width="2" stroke-linecap="round" stroke-linejoin="round"/>
        <path d="M367.209 148.284L367.842 150.646" stroke="#F24048" stroke-width="2" stroke-linecap="round" stroke-linejoin="round"/>
        <path d="M363.582 149.76L364.805 151.878" stroke="#F24048" stroke-width="2" stroke-linecap="round" stroke-linejoin="round"/>
        <path d="M360.46 152.124L362.189 153.853" stroke="#F24048" stroke-width="2" stroke-linecap="round" stroke-linejoin="round"/>
        <path d="M358.057 154.97L360.175 156.193" stroke="#F24048" stroke-width="2" stroke-linecap="round" stroke-linejoin="round"/>
        <path d="M356.536 158.466L358.898 159.099" stroke="#F24048" stroke-width="2" stroke-linecap="round" stroke-linejoin="round"/>
        <path d="M356 162.229H358.445" stroke="#F24048" stroke-width="2" stroke-linecap="round" stroke-linejoin="round"/>
        <path d="M356.487 165.999L358.849 165.366" stroke="#F24048" stroke-width="2" stroke-linecap="round" stroke-linejoin="round"/>
        <path d="M358.057 169.468L360.175 168.245" stroke="#F24048" stroke-width="2" stroke-linecap="round" stroke-linejoin="round"/>
        <path d="M360.421 172.338L362.15 170.609" stroke="#F24048" stroke-width="2" stroke-linecap="round" stroke-linejoin="round"/>
        <path d="M363.395 174.835L364.618 172.717" stroke="#F24048" stroke-width="2" stroke-linecap="round" stroke-linejoin="round"/>
        <path d="M367.121 176.262L367.754 173.9" stroke="#F24048" stroke-width="2" stroke-linecap="round" stroke-linejoin="round"/>
        <path d="M371 176.797V174.352" stroke="#F24048" stroke-width="2" stroke-linecap="round" stroke-linejoin="round"/>
        <path d="M374.886 176.311L374.253 173.949" stroke="#F24048" stroke-width="2" stroke-linecap="round" stroke-linejoin="round"/>
        <path d="M378.513 174.835L377.29 172.717" stroke="#F24048" stroke-width="2" stroke-linecap="round" stroke-linejoin="round"/>
        <path d="M381.635 172.471L379.906 170.742" stroke="#F24048" stroke-width="2" stroke-linecap="round" stroke-linejoin="round"/>
        <path d="M384.038 169.626L381.92 168.403" stroke="#F24048" stroke-width="2" stroke-linecap="round" stroke-linejoin="round"/>
        <path d="M385.465 166.174L383.103 165.541" stroke="#F24048" stroke-width="2" stroke-linecap="round" stroke-linejoin="round"/>
        <path d="M386 162.411H383.555" stroke="#F24048" stroke-width="2" stroke-linecap="round" stroke-linejoin="round"/>
        <path d="M385.514 158.641L383.152 159.274" stroke="#F24048" stroke-width="2" stroke-linecap="round" stroke-linejoin="round"/>
        <path d="M384.038 155.127L381.92 156.35" stroke="#F24048" stroke-width="2" stroke-linecap="round" stroke-linejoin="round"/>
        <path d="M381.674 152.257L379.945 153.986" stroke="#F24048" stroke-width="2" stroke-linecap="round" stroke-linejoin="round"/>
        <path d="M378.7 149.76L377.477 151.878" stroke="#F24048" stroke-width="2" stroke-linecap="round" stroke-linejoin="round"/>
        <path d="M374.974 148.333L374.341 150.695" stroke="#F24048" stroke-width="2" stroke-linecap="round" stroke-linejoin="round"/>
    </g>
    <defs>
        <clipPath id="clip_500">
            <rect width="420" height="200" fill="white"/>
        </clipPath>
    </defs>
</svg>
