<svg width="420" height="200" viewBox="0 0 420 200" fill="none" xmlns="http://www.w3.org/2000/svg">
<g clip-path="url(#clip0_235_502)">
<path d="M212.382 152.218C199.503 152.248 187.132 147.192 177.961 138.15C173.525 133.788 169.982 128.602 167.531 122.884C165.006 116.974 163.704 110.614 163.704 104.187C163.704 97.7602 165.006 91.4 167.531 85.49C169.982 79.7715 173.525 74.586 177.961 70.224C187.14 61.1891 199.502 56.1252 212.381 56.1252C225.261 56.1252 237.624 61.1891 246.802 70.224C251.239 74.586 254.782 79.7715 257.233 85.49C259.758 91.4 261.06 97.7603 261.06 104.187C261.06 110.614 259.758 116.974 257.233 122.884C254.782 128.602 251.239 133.788 246.802 138.15C237.631 147.192 225.261 152.248 212.382 152.218ZM212.382 62.548C189.113 62.548 170.182 81.227 170.182 104.187C170.182 127.147 189.112 145.826 212.382 145.826C235.652 145.826 254.582 127.147 254.582 104.187C254.582 81.227 235.651 62.548 212.382 62.548Z" fill="black" stroke="black" stroke-width="3"/>
<path d="M203.453 88.0116L192.814 98.65L195.177 101.013L205.816 90.3748L203.453 88.0116Z" fill="#C12626"/>
<path d="M195.177 88.0109L192.814 90.374L203.453 101.012L205.816 98.6493L195.177 88.0109Z" fill="#C12626"/>
<path d="M231.536 88.0116L220.898 98.65L223.261 101.013L233.9 90.3748L231.536 88.0116Z" fill="#C12626"/>
<path d="M223.261 88.0109L220.898 90.374L231.536 101.012L233.9 98.6493L223.261 88.0109Z" fill="#C12626"/>
<path d="M194.789 101.581L191.604 98.402L195.738 94.261L191.597 90.127L194.776 86.942L198.917 91.076L203.051 86.935L206.236 90.114L202.102 94.2551L206.243 98.389L203.064 101.574L198.923 97.44L194.789 101.581ZM198.922 95.8021L203.063 99.936L204.606 98.3911L200.465 94.257L204.599 90.116L203.053 88.5731L198.919 92.7141L194.778 88.58L193.235 90.126L197.377 94.2601L193.243 98.4011L194.789 99.944L198.922 95.8021Z" fill="#C12626"/>
<path d="M231.097 101.547L226.955 97.413L222.821 101.554L219.636 98.375L223.77 94.234L219.629 90.1L222.808 86.915L226.949 91.0491L231.083 86.9081L234.268 90.087L230.134 94.228L234.275 98.3621L231.097 101.547ZM226.954 95.775L231.095 99.9091L232.638 98.363L228.497 94.229L232.631 90.088L231.086 88.545L226.952 92.686L222.811 88.552L221.268 90.098L225.41 94.2321L221.276 98.373L222.822 99.916L226.954 95.775Z" fill="#C12626"/>
<path d="M102.003 127.364H113.703C114.578 135.976 123.055 142.385 133.619 142.451C146.268 142.384 155.419 133.239 155.419 121.089C155.419 108.539 145.932 99.259 132.812 99.189C124.603 99.056 118.212 101.589 114.645 107.868H102.942L109.803 54.997H162.554V65.678H119.898L116.265 93.983H117.203C122.381 90.2802 128.601 88.3166 134.966 88.375C153.536 88.375 167.195 101.994 167.266 120.819C167.203 139.514 153.068 152.997 133.623 152.997C116.062 152.997 102.74 142.251 102.003 127.364Z" fill="black"/>
<path d="M252 127.709H263.917C264.571 136.796 273.54 142.461 284.869 142.461C297.369 142.461 306.41 135.678 306.475 125.732C306.41 115.326 298.159 108.016 283.428 107.95H275.703V97.5428H283.428C294.952 97.5428 303.006 91.0239 302.94 81.2089C303.005 71.6609 296.064 65.3378 285.26 65.2728C275.112 65.3378 265.88 70.936 265.36 80.287H253.965C254.554 65.14 268.565 54.9969 285.393 54.9969C303.464 54.9969 314.463 66.9169 314.333 80.5509C314.463 91.4189 308.178 99.32 298.225 102.151V102.81C310.6 104.719 318.065 113.61 318 125.729C318.065 141.403 303.922 152.995 285 152.995C266.145 152.999 252.588 142.856 252 127.709Z" fill="black"/>
<path d="M114.984 180.499C113.184 180.499 112.014 181.436 112.005 182.729C112.014 184.153 113.598 184.687 114.629 184.94L115.978 185.315C117.43 185.69 119.82 186.524 119.82 189.063C119.82 191.274 118.04 192.989 114.892 192.999C111.969 192.99 110.16 191.481 110.001 189.232H111.725C111.866 190.75 113.28 191.471 114.892 191.462C116.766 191.471 118.172 190.506 118.172 189.025C118.172 187.704 116.917 187.198 115.492 186.796L113.824 186.346C111.697 185.727 110.367 184.64 110.376 182.804C110.367 180.504 112.409 179.004 115.042 179.004C117.675 179.004 119.567 180.54 119.633 182.604H117.984C117.842 181.267 116.606 180.499 114.984 180.499Z" fill="#C12626"/>
<path d="M122.237 179.188H130.464V180.688H123.924V185.224H130.033V186.703H123.921V191.257H130.555V192.757H122.235L122.237 179.188Z" fill="#C12626"/>
<path d="M133.124 179.188H137.734C140.91 179.188 142.362 180.949 142.362 183.367C142.425 184.192 142.21 185.014 141.752 185.703C141.293 186.391 140.617 186.907 139.832 187.167L142.886 192.752H140.918L138.079 187.477C137.979 187.486 137.863 187.486 137.751 187.486H134.809V192.752H133.122L133.124 179.188ZM137.678 185.953C139.842 185.953 140.686 184.978 140.695 183.367C140.686 181.745 139.842 180.687 137.66 180.687H134.811V185.953H137.678Z" fill="#C12626"/>
<path d="M149.066 190.563H149.216L153.226 179.188H155.007L150.041 192.755H148.261L143.295 179.188H145.076L149.066 190.563Z" fill="#C12626"/>
<path d="M158.521 192.755H156.834V179.188H158.521V192.755Z" fill="#C12626"/>
<path d="M166.986 180.574C164.531 180.574 162.629 182.467 162.62 185.974C162.629 189.469 164.531 191.361 166.986 191.374C167.853 191.418 168.709 191.155 169.401 190.63C170.094 190.106 170.579 189.354 170.771 188.507H172.457C172.249 189.79 171.577 190.952 170.568 191.771C169.558 192.59 168.283 193.009 166.985 192.948C163.499 192.948 160.979 190.268 160.985 185.977C160.975 181.685 163.496 179.006 166.985 179.006C168.286 178.945 169.565 179.366 170.574 180.189C171.584 181.012 172.255 182.179 172.457 183.466H170.771C170.587 182.613 170.105 181.853 169.411 181.323C168.718 180.793 167.858 180.527 166.986 180.574Z" fill="#C12626"/>
<path d="M174.81 179.188H183.036V180.688H176.496V185.224H182.605V186.703H176.496V191.257H183.13V192.757H174.81V179.188Z" fill="#C12626"/>
<path d="M201.071 179.188V188.164C201.071 190.956 198.982 192.99 195.787 192.999C192.587 192.99 190.503 190.956 190.503 188.164V179.188H192.19V188.032C192.19 188.987 192.569 189.902 193.244 190.577C193.92 191.253 194.835 191.632 195.79 191.632C196.745 191.632 197.66 191.253 198.336 190.577C199.011 189.902 199.39 188.987 199.39 188.032V179.188H201.071Z" fill="#C12626"/>
<path d="M214.834 192.755H213.222L205.877 182.186H205.746V192.755H204.059V179.188H205.69L213.036 189.775H213.167V179.188H214.835L214.834 192.755Z" fill="#C12626"/>
<path d="M216.659 192.755L221.624 179.188H223.405L228.371 192.755H226.59L225.232 188.932H219.778L218.42 192.755H216.659ZM224.717 187.455L222.562 181.384H222.449L220.294 187.455H224.717Z" fill="#C12626"/>
<path d="M233.52 190.563H233.67L237.68 179.188H239.461L234.495 192.755H232.715L227.749 179.188H229.529L233.52 190.563Z" fill="#C12626"/>
<path d="M238.936 192.755L243.902 179.188H245.682L250.648 192.755H248.867L247.509 188.932H242.056L240.698 192.755H238.936ZM246.994 187.455L244.839 181.384H244.726L242.571 187.455H246.994Z" fill="#C12626"/>
<path d="M254.165 192.755H252.479V179.188H254.165V192.755Z" fill="#C12626"/>
<path d="M257.158 179.188H258.845V191.256H265.145V192.756H257.162L257.158 179.188Z" fill="#C12626"/>
<path d="M267.043 192.755L272.009 179.188H273.79L278.756 192.755H276.975L275.616 188.932H270.166L268.807 192.755H267.043ZM275.101 187.455L272.946 181.384H272.834L270.679 187.455H275.101Z" fill="#C12626"/>
<path d="M280.568 179.188H285.328C288.176 179.188 289.516 180.788 289.506 182.788C289.548 183.451 289.346 184.106 288.939 184.63C288.532 185.155 287.947 185.513 287.295 185.637V185.768C288.101 185.873 288.837 186.283 289.349 186.914C289.861 187.545 290.112 188.349 290.049 189.16C290.04 191.193 288.7 192.76 285.495 192.76H280.567L280.568 179.188ZM285.268 185.128C285.595 185.161 285.926 185.125 286.239 185.024C286.553 184.923 286.841 184.758 287.088 184.54C287.334 184.321 287.533 184.054 287.671 183.756C287.809 183.457 287.884 183.133 287.891 182.804C287.891 181.623 287.091 180.686 285.324 180.686H282.255V185.127L285.268 185.128ZM285.474 191.256C287.601 191.256 288.425 190.319 288.415 189.138C288.406 188.78 288.325 188.427 288.175 188.102C288.025 187.777 287.809 187.486 287.543 187.247C287.276 187.008 286.963 186.826 286.623 186.713C286.283 186.6 285.924 186.558 285.567 186.589H282.255V191.256H285.474Z" fill="#C12626"/>
<path d="M292.449 179.188H294.136V191.256H300.436V192.756H292.453L292.449 179.188Z" fill="#C12626"/>
<path d="M302.68 179.188H310.906V180.688H304.366V185.224H310.475V186.703H304.366V191.257H311V192.757H302.68V179.188Z" fill="#C12626"/>
<path d="M199.5 123.002C199.5 123.002 201.268 119.002 213.007 119.002C224.746 119.002 227.5 123.002 227.5 123.002" stroke="#C12626" stroke-width="4" stroke-linecap="round"/>
<path d="M44.38 7.99197V12.393" stroke="#F24048" stroke-width="3" stroke-linecap="round" stroke-linejoin="round"/>
<path d="M37.386 8.86899L38.525 13.12" stroke="#F24048" stroke-width="3" stroke-linecap="round" stroke-linejoin="round"/>
<path d="M30.8569 11.525L33.0579 15.337" stroke="#F24048" stroke-width="3" stroke-linecap="round" stroke-linejoin="round"/>
<path d="M58.0699 11.525L55.8689 15.337" stroke="#F24048" stroke-width="3" stroke-linecap="round" stroke-linejoin="round"/>
<path d="M25.2379 15.781L28.3499 18.893" stroke="#F24048" stroke-width="3" stroke-linecap="round" stroke-linejoin="round"/>
<path d="M20.912 21.346L24.724 23.547" stroke="#F24048" stroke-width="3" stroke-linecap="round" stroke-linejoin="round"/>
<path d="M18.174 27.841L22.425 28.98" stroke="#F24048" stroke-width="3" stroke-linecap="round" stroke-linejoin="round"/>
<path d="M17.21 34.824H21.611" stroke="#F24048" stroke-width="3" stroke-linecap="round" stroke-linejoin="round"/>
<path d="M18.0859 41.818L22.3369 40.679" stroke="#F24048" stroke-width="3" stroke-linecap="round" stroke-linejoin="round"/>
<path d="M70.247 42.145L65.996 41.006" stroke="#F24048" stroke-width="3" stroke-linecap="round" stroke-linejoin="round"/>
<path d="M71.2109 35.162H66.8099" stroke="#F24048" stroke-width="3" stroke-linecap="round" stroke-linejoin="round"/>
<path d="M70.335 28.168L66.084 29.307" stroke="#F24048" stroke-width="3" stroke-linecap="round" stroke-linejoin="round"/>
<path d="M67.6789 21.639L63.8669 23.84" stroke="#F24048" stroke-width="3" stroke-linecap="round" stroke-linejoin="round"/>
<path d="M63.4219 16.02L60.3099 19.132" stroke="#F24048" stroke-width="3" stroke-linecap="round" stroke-linejoin="round"/>
<path d="M51.3619 8.95596L50.2229 13.207" stroke="#F24048" stroke-width="3" stroke-linecap="round" stroke-linejoin="round"/>
<path d="M44.2109 61.91V57.509" stroke="#F24048" stroke-width="3" stroke-linecap="round" stroke-linejoin="round"/>
<path d="M51.2049 61.033L50.0659 56.782" stroke="#F24048" stroke-width="3" stroke-linecap="round" stroke-linejoin="round"/>
<path d="M57.734 58.377L55.533 54.565" stroke="#F24048" stroke-width="3" stroke-linecap="round" stroke-linejoin="round"/>
<path d="M30.52 58.377L32.721 54.565" stroke="#F24048" stroke-width="3" stroke-linecap="round" stroke-linejoin="round"/>
<path d="M63.352 54.121L60.24 51.009" stroke="#F24048" stroke-width="3" stroke-linecap="round" stroke-linejoin="round"/>
<path d="M67.6789 48.557L63.8669 46.356" stroke="#F24048" stroke-width="3" stroke-linecap="round" stroke-linejoin="round"/>
<path d="M20.912 48.263L24.724 46.062" stroke="#F24048" stroke-width="3" stroke-linecap="round" stroke-linejoin="round"/>
<path d="M25.168 53.882L28.28 50.77" stroke="#F24048" stroke-width="3" stroke-linecap="round" stroke-linejoin="round"/>
<path d="M37.228 60.946L38.367 56.695" stroke="#F24048" stroke-width="3" stroke-linecap="round" stroke-linejoin="round"/>
<path d="M371.094 147.797V150.242" stroke="#F24048" stroke-width="2" stroke-linecap="round" stroke-linejoin="round"/>
<path d="M367.209 148.284L367.842 150.646" stroke="#F24048" stroke-width="2" stroke-linecap="round" stroke-linejoin="round"/>
<path d="M363.582 149.76L364.805 151.878" stroke="#F24048" stroke-width="2" stroke-linecap="round" stroke-linejoin="round"/>
<path d="M378.7 149.76L377.477 151.878" stroke="#F24048" stroke-width="2" stroke-linecap="round" stroke-linejoin="round"/>
<path d="M360.46 152.124L362.189 153.853" stroke="#F24048" stroke-width="2" stroke-linecap="round" stroke-linejoin="round"/>
<path d="M358.057 154.97L360.175 156.193" stroke="#F24048" stroke-width="2" stroke-linecap="round" stroke-linejoin="round"/>
<path d="M356.536 158.466L358.898 159.099" stroke="#F24048" stroke-width="2" stroke-linecap="round" stroke-linejoin="round"/>
<path d="M356 162.229H358.445" stroke="#F24048" stroke-width="2" stroke-linecap="round" stroke-linejoin="round"/>
<path d="M356.487 165.999L358.849 165.366" stroke="#F24048" stroke-width="2" stroke-linecap="round" stroke-linejoin="round"/>
<path d="M385.465 166.174L383.103 165.541" stroke="#F24048" stroke-width="2" stroke-linecap="round" stroke-linejoin="round"/>
<path d="M386 162.411H383.555" stroke="#F24048" stroke-width="2" stroke-linecap="round" stroke-linejoin="round"/>
<path d="M385.514 158.641L383.152 159.274" stroke="#F24048" stroke-width="2" stroke-linecap="round" stroke-linejoin="round"/>
<path d="M384.038 155.127L381.92 156.35" stroke="#F24048" stroke-width="2" stroke-linecap="round" stroke-linejoin="round"/>
<path d="M381.674 152.257L379.945 153.986" stroke="#F24048" stroke-width="2" stroke-linecap="round" stroke-linejoin="round"/>
<path d="M374.974 148.333L374.341 150.695" stroke="#F24048" stroke-width="2" stroke-linecap="round" stroke-linejoin="round"/>
<path d="M371 176.797V174.352" stroke="#F24048" stroke-width="2" stroke-linecap="round" stroke-linejoin="round"/>
<path d="M374.886 176.311L374.253 173.949" stroke="#F24048" stroke-width="2" stroke-linecap="round" stroke-linejoin="round"/>
<path d="M378.513 174.835L377.29 172.717" stroke="#F24048" stroke-width="2" stroke-linecap="round" stroke-linejoin="round"/>
<path d="M363.395 174.835L364.618 172.717" stroke="#F24048" stroke-width="2" stroke-linecap="round" stroke-linejoin="round"/>
<path d="M381.635 172.471L379.906 170.742" stroke="#F24048" stroke-width="2" stroke-linecap="round" stroke-linejoin="round"/>
<path d="M384.038 169.626L381.92 168.403" stroke="#F24048" stroke-width="2" stroke-linecap="round" stroke-linejoin="round"/>
<path d="M358.057 169.468L360.175 168.245" stroke="#F24048" stroke-width="2" stroke-linecap="round" stroke-linejoin="round"/>
<path d="M360.421 172.338L362.15 170.609" stroke="#F24048" stroke-width="2" stroke-linecap="round" stroke-linejoin="round"/>
<path d="M367.121 176.262L367.754 173.9" stroke="#F24048" stroke-width="2" stroke-linecap="round" stroke-linejoin="round"/>
</g>
<defs>
<clipPath id="clip0_235_502">
<rect width="420" height="200" fill="white"/>
</clipPath>
</defs>
</svg>
