<svg xmlns="http://www.w3.org/2000/svg" width="16" height="16" viewBox="0 0 16 16">
  <path id="sun-line" d="M9,13.364A4.364,4.364,0,1,1,13.364,9,4.364,4.364,0,0,1,9,13.364Zm0-1.455A2.909,2.909,0,1,0,6.091,9,2.909,2.909,0,0,0,9,11.909ZM8.273,1H9.727V3.182H8.273Zm0,13.818H9.727V17H8.273ZM2.829,3.857,3.857,2.829,5.4,4.372,4.372,5.4ZM12.6,13.628,13.628,12.6l1.543,1.543-1.029,1.029Zm1.543-10.8,1.029,1.029L13.628,5.4,12.6,4.372ZM4.372,12.6,5.4,13.628,3.857,15.171,2.829,14.143ZM17,8.273V9.727H14.818V8.273Zm-13.818,0V9.727H1V8.273Z" transform="translate(-1 -1)" fill="#252b3b"/>
</svg>
