<svg xmlns="http://www.w3.org/2000/svg" width="19.811" height="18.5" viewBox="0 0 19.811 18.5">
  <path id="attach" d="M18.75,7.892,9.968,16.409a5.52,5.52,0,0,1-7.637,0A5.126,5.126,0,0,1,2.332,9L9.544,2.009a3.6,3.6,0,0,1,1.169-.782A3.7,3.7,0,0,1,13.5,1.2a3.611,3.611,0,0,1,1.182.763,3.486,3.486,0,0,1,.786,1.147,3.394,3.394,0,0,1-.024,2.7,3.49,3.49,0,0,1-.807,1.133l-7.212,7A1.84,1.84,0,0,1,4.9,13.923a1.708,1.708,0,0,1-.022-2.447l7.213-7" transform="translate(0 -0.193)" fill="none" stroke="#888" stroke-linecap="round" stroke-linejoin="round" stroke-width="1.5"/>
</svg>
