<svg width="48" height="48" viewBox="0 0 48 48" fill="none" xmlns="http://www.w3.org/2000/svg">
<circle cx="24" cy="24" r="24" fill="white"/>
<path fill-rule="evenodd" clip-rule="evenodd" d="M15 26.769C15 27.3199 15.2188 27.8481 15.6083 28.2377C15.9979 28.6272 16.5261 28.846 17.077 28.846H19.154V27.461H17.077C16.8935 27.461 16.7175 27.3881 16.5877 27.2583C16.4579 27.1285 16.385 26.9525 16.385 26.769V17.077C16.385 16.8935 16.4579 16.7175 16.5877 16.5877C16.7175 16.4579 16.8935 16.385 17.077 16.385H26.769C26.9525 16.385 27.1285 16.4579 27.2583 16.5877C27.3881 16.7175 27.461 16.8935 27.461 17.077V19.154H21.233C20.9599 19.1537 20.6894 19.2073 20.4371 19.3117C20.1847 19.4161 19.9554 19.5692 19.7623 19.7623C19.5692 19.9554 19.4161 20.1847 19.3117 20.4371C19.2073 20.6894 19.1537 20.9599 19.154 21.233V30.923C19.154 31.1959 19.2078 31.4662 19.3123 31.7183C19.4168 31.9704 19.57 32.1995 19.763 32.3924C19.9561 32.5853 20.1853 32.7382 20.4376 32.8425C20.6898 32.9467 20.9601 33.0003 21.233 33H30.923C31.4739 33 32.0021 32.7812 32.3917 32.3917C32.7812 32.0021 33 31.4739 33 30.923V21.233C33.0003 20.9601 32.9467 20.6898 32.8425 20.4376C32.7382 20.1853 32.5853 19.9561 32.3924 19.763C32.1995 19.57 31.9704 19.4168 31.7183 19.3123C31.4662 19.2078 31.1959 19.154 30.923 19.154H28.846V17.077C28.846 16.5261 28.6272 15.9979 28.2377 15.6083C27.8481 15.2188 27.3199 15 26.769 15H17.077C16.5261 15 15.9979 15.2188 15.6083 15.6083C15.2188 15.9979 15 16.5261 15 17.077V26.769ZM20.538 21.233C20.5376 21.1416 20.5553 21.0511 20.5901 20.9666C20.6249 20.8821 20.6761 20.8053 20.7407 20.7407C20.8053 20.6761 20.8821 20.6249 20.9666 20.5901C21.0511 20.5553 21.1416 20.5376 21.233 20.538H30.923C31.1065 20.538 31.2825 20.6109 31.4123 20.7407C31.5421 20.8705 31.615 21.0465 31.615 21.23V30.923C31.615 31.1065 31.5421 31.2825 31.4123 31.4123C31.2825 31.5421 31.1065 31.615 30.923 31.615H21.233C21.0495 31.615 20.8735 31.5421 20.7437 31.4123C20.6139 31.2825 20.541 31.1065 20.541 30.923V21.233H20.538Z" fill="black"/>
</svg>
