<svg width="48" height="48" viewBox="0 0 48 48" fill="none" xmlns="http://www.w3.org/2000/svg">
<circle cx="24" cy="24" r="24" fill="url(#paint0_linear_554_110)"/>
<path d="M29.18 13H19.565C17.8239 13 16.154 13.6917 14.9228 14.9228C13.6917 16.154 13 17.8238 13 19.565V29.184C13 30.9251 13.6917 32.595 14.9228 33.8262C16.154 35.0573 17.8239 35.749 19.565 35.749H29.18C30.9211 35.749 32.591 35.0573 33.8222 33.8262C35.0533 32.595 35.745 30.9251 35.745 29.184V19.569C35.745 17.8279 35.0533 16.158 33.8222 14.9268C32.591 13.6957 30.9211 13.004 29.18 13.004M33.65 29.353C33.65 29.9253 33.5373 30.492 33.3183 31.0207C33.0993 31.5495 32.7782 32.0299 32.3736 32.4346C31.9689 32.8392 31.4885 33.1602 30.9597 33.3793C30.431 33.5983 29.8643 33.711 29.292 33.711H19.452C18.2962 33.711 17.1877 33.2519 16.3704 32.4346C15.5531 31.6173 15.094 30.5088 15.094 29.353V19.513C15.094 18.3572 15.5531 17.2487 16.3704 16.4314C17.1877 15.6141 18.2962 15.155 19.452 15.155H29.292C29.8643 15.155 30.431 15.2677 30.9597 15.4867C31.4885 15.7057 31.9689 16.0267 32.3736 16.4314C32.7782 16.8361 33.0993 17.3165 33.3183 17.8453C33.5373 18.374 33.65 18.9407 33.65 19.513V29.353Z" fill="white"/>
<path d="M24.3729 18.5281C23.206 18.5281 22.0653 18.8741 21.095 19.5224C20.1248 20.1707 19.3686 21.0922 18.922 22.1702C18.4755 23.2483 18.3586 24.4346 18.5863 25.5791C18.8139 26.7236 19.3758 27.7749 20.201 28.6C21.0261 29.4251 22.0774 29.9871 23.2219 30.2147C24.3663 30.4424 25.5527 30.3255 26.6307 29.879C27.7088 29.4324 28.6303 28.6762 29.2786 27.7059C29.9269 26.7357 30.2729 25.595 30.2729 24.4281C30.2729 22.8633 29.6513 21.3626 28.5448 20.2561C27.4384 19.1497 25.9377 18.5281 24.3729 18.5281ZM24.3729 28.2551C23.6162 28.2551 22.8765 28.0307 22.2473 27.6103C21.6181 27.1899 21.1277 26.5923 20.8381 25.8932C20.5486 25.1941 20.4728 24.4248 20.6204 23.6827C20.768 22.9405 21.1324 22.2588 21.6675 21.7237C22.2026 21.1886 22.8843 20.8242 23.6265 20.6766C24.3686 20.529 25.1379 20.6047 25.837 20.8943C26.5362 21.1839 27.1337 21.6743 27.5541 22.3035C27.9745 22.9326 28.1989 23.6724 28.1989 24.4291C28.1989 25.4438 27.7958 26.417 27.0783 27.1345C26.3608 27.852 25.3876 28.2551 24.3729 28.2551Z" fill="white"/>
<path d="M30.471 16.928C30.199 16.928 29.9332 17.0086 29.7071 17.1597C29.4809 17.3108 29.3047 17.5255 29.2006 17.7768C29.0965 18.028 29.0693 18.3045 29.1224 18.5712C29.1754 18.838 29.3064 19.0829 29.4987 19.2752C29.691 19.4675 29.936 19.5985 30.2027 19.6516C30.4694 19.7046 30.7459 19.6774 30.9972 19.5733C31.2484 19.4692 31.4631 19.293 31.6142 19.0669C31.7653 18.8408 31.846 18.5749 31.846 18.303C31.846 17.9383 31.7011 17.5886 31.4432 17.3307C31.1854 17.0728 30.8356 16.928 30.471 16.928Z" fill="white"/>
<defs>
<linearGradient id="paint0_linear_554_110" x1="34.5" y1="-1.13156e-06" x2="15" y2="44" gradientUnits="userSpaceOnUse">
<stop stop-color="#4748E8"/>
<stop offset="0.25" stop-color="#8F39BB"/>
<stop offset="0.6" stop-color="#E73292"/>
<stop offset="0.79" stop-color="#F0622A"/>
<stop offset="1" stop-color="#EDC867"/>
</linearGradient>
</defs>
</svg>
