<svg xmlns="http://www.w3.org/2000/svg" width="20" height="20" viewBox="0 0 20 20">
  <g id="그룹_33531" data-name="그룹 33531" transform="translate(-691.111 -1491.111)">
    <g id="그룹_33525" data-name="그룹 33525" transform="translate(691.111 1491.111)">
      <path id="패스_464" data-name="패스 464" d="M701.111,1511.111a10,10,0,1,1,10-10A10.011,10.011,0,0,1,701.111,1511.111Zm0-18.947a8.947,8.947,0,1,0,8.947,8.947A8.957,8.957,0,0,0,701.111,1492.164Z" transform="translate(-691.111 -1491.111)"/>
    </g>
    <g id="그룹_33530" data-name="그룹 33530" transform="translate(695.74 1498.725)">
      <g id="그룹_33526" data-name="그룹 33526" transform="translate(2.71 4.287)">
        <path id="패스_465" data-name="패스 465" d="M724.882,1543.923a2.8,2.8,0,0,1-2.63-1.865.533.533,0,0,1,1-.357,1.722,1.722,0,0,0,3.254,0,.532.532,0,0,1,1,.357A2.8,2.8,0,0,1,724.882,1543.923Z" transform="translate(-722.221 -1541.346)"/>
      </g>
      <g id="그룹_33529" data-name="그룹 33529" transform="translate(0)">
        <g id="그룹_33527" data-name="그룹 33527">
          <path id="패스_466" data-name="패스 466" d="M714.437,1525.575a.532.532,0,0,1-.5-.354,1.056,1.056,0,0,0-1.995,0,.532.532,0,0,1-1-.355,2.12,2.12,0,0,1,4,0,.531.531,0,0,1-.323.679A.509.509,0,0,1,714.437,1525.575Z" transform="translate(-710.906 -1523.446)"/>
        </g>
        <g id="그룹_33528" data-name="그룹 33528" transform="translate(6.679)">
          <path id="패스_467" data-name="패스 467" d="M742.327,1525.575a.533.533,0,0,1-.5-.354,1.056,1.056,0,0,0-1.995,0,.532.532,0,0,1-1-.355,2.12,2.12,0,0,1,4,0,.531.531,0,0,1-.323.679A.509.509,0,0,1,742.327,1525.575Z" transform="translate(-738.797 -1523.446)"/>
        </g>
      </g>
    </g>
  </g>
</svg>
