<svg xmlns="http://www.w3.org/2000/svg" width="20" height="20" viewBox="0 0 20 20">
  <g id="그룹_33524" data-name="그룹 33524" transform="translate(-1224.444 -1491.111)">
    <g id="그룹_33519" data-name="그룹 33519" transform="translate(1224.444 1491.111)">
      <path id="패스_459" data-name="패스 459" d="M1234.444,1511.111a10,10,0,1,1,10-10A10.011,10.011,0,0,1,1234.444,1511.111Zm0-18.947a8.947,8.947,0,1,0,8.947,8.947A8.958,8.958,0,0,0,1234.444,1492.164Z" transform="translate(-1224.444 -1491.111)"/>
    </g>
    <g id="그룹_33520" data-name="그룹 33520" transform="translate(1231.813 1503.742)">
      <path id="패스_460" data-name="패스 460" d="M1261.988,1546.665a2.111,2.111,0,0,1-2.105,2.105h0a2.111,2.111,0,0,1-2.105-2.105Z" transform="translate(-1257.252 -1546.139)"/>
      <path id="패스_461" data-name="패스 461" d="M1258.188,1547.6a2.634,2.634,0,0,1-2.632-2.631.526.526,0,0,1,.526-.526h4.211a.526.526,0,0,1,.526.526A2.634,2.634,0,0,1,1258.188,1547.6Zm-1.489-2.105a1.579,1.579,0,0,0,2.978,0Z" transform="translate(-1255.556 -1544.444)"/>
    </g>
    <g id="그룹_33523" data-name="그룹 33523" transform="translate(1228.655 1499.412)">
      <g id="_1" data-name=" 1" transform="translate(0 0)">
        <g id="그룹_33521" data-name="그룹 33521">
          <path id="패스_462" data-name="패스 462" d="M1245.744,1526.252a2.48,2.48,0,0,1-2.832,0,1.1,1.1,0,0,0-.6,1.456,9.126,9.126,0,0,0,2.013,1.783h0a9.112,9.112,0,0,0,2.013-1.783A1.1,1.1,0,0,0,1245.744,1526.252Z" transform="translate(-1242.222 -1526.162)"/>
        </g>
      </g>
      <g id="_1-2" data-name=" 1" transform="translate(7.368 0)">
        <g id="그룹_33522" data-name="그룹 33522">
          <path id="패스_463" data-name="패스 463" d="M1276.855,1526.252a2.479,2.479,0,0,1-2.832,0,1.1,1.1,0,0,0-.6,1.456,9.126,9.126,0,0,0,2.013,1.783h0a9.115,9.115,0,0,0,2.013-1.783A1.1,1.1,0,0,0,1276.855,1526.252Z" transform="translate(-1273.333 -1526.162)"/>
        </g>
      </g>
    </g>
  </g>
</svg>
