<svg width="372" height="225" viewBox="0 0 372 225" fill="none" xmlns="http://www.w3.org/2000/svg">
<mask id="mask0_477_93" style="mask-type:luminance" maskUnits="userSpaceOnUse" x="0" y="0" width="372" height="225">
<path d="M372 0H0V225H372V0Z" fill="white"/>
</mask>
<g mask="url(#mask0_477_93)">
<g opacity="0.05">
<path d="M82.6499 118.416C83.5738 128.924 85.3123 139.344 87.8499 149.583C88.5559 152.759 89.5669 155.86 90.3969 159.001C91.2879 162.125 92.3679 165.201 93.3399 168.301C95.5319 174.423 97.8329 180.501 100.448 186.442C101.882 189.689 103.398 192.894 104.97 196.07C118.812 183.626 134.166 172.976 150.67 164.37C150.806 164.299 150.954 164.256 151.107 164.243C151.26 164.229 151.414 164.246 151.56 164.293C151.706 164.339 151.842 164.414 151.959 164.513C152.076 164.612 152.172 164.734 152.242 164.87C152.253 164.896 152.261 164.923 152.267 164.951C152.369 165.19 152.39 165.455 152.325 165.707C152.261 165.958 152.115 166.181 151.91 166.34C136.643 178.105 122.178 190.65 109.41 204.608C112.387 210.059 115.561 215.396 118.959 220.573C122.588 225.935 126.375 231.097 130.469 236.148C134.536 241.215 138.789 246.132 143.229 250.899C148.337 256.399 153.656 261.704 159.129 266.859C162.677 263.198 166.416 259.727 170.329 256.459C176.871 250.98 183.77 245.941 190.98 241.375C195.88 238.315 200.903 235.48 206.011 232.835C196.836 215.264 187.971 197.521 179.595 179.535C175.914 171.511 172.145 163.524 168.604 155.435C167.059 151.904 165.546 148.358 164.126 144.773C159.321 132.921 155.785 120.593 153.576 107.995C153.534 107.728 153.586 107.455 153.722 107.221C153.858 106.987 154.071 106.808 154.324 106.712L154.27 106.579C240.87 68.4642 318.757 72.1792 324.453 82.4472C327.745 88.3792 322.982 95.5272 318.235 100.612C318.061 100.797 317.961 101.038 317.952 101.291C317.944 101.544 318.027 101.792 318.188 101.988C318.348 102.184 318.575 102.315 318.825 102.356C319.075 102.397 319.331 102.346 319.546 102.212C330.325 95.2712 346.409 82.1612 337.377 70.1122C319.777 46.6292 226.277 37.1982 142.124 76.7372C120.509 87.8826 100.503 101.903 82.6499 118.416Z" fill="url(#paint0_radial_477_93)"/>
<path d="M346.274 183.419C346.046 183.58 345.88 183.814 345.802 184.083C345.725 184.351 345.741 184.638 345.848 184.896C345.955 185.154 346.147 185.367 346.391 185.502C346.636 185.637 346.919 185.684 347.194 185.637C356.244 184.186 373.779 178.489 371.853 156.109C369.033 123.346 310.797 112.109 263.438 122.302C237.404 126.626 212.06 134.392 188.073 145.396C184.965 146.815 181.917 148.296 178.891 149.796C180.001 152.273 181.099 154.758 182.186 157.25L189.966 174.45C198.277 192.379 206.824 210.205 215.607 227.93C230.159 221.255 245.478 216.397 261.217 213.466C261.522 213.413 261.835 213.482 262.088 213.659C262.341 213.836 262.514 214.107 262.568 214.411C262.573 214.471 262.573 214.531 262.568 214.591C262.576 214.84 262.504 215.085 262.362 215.29C262.221 215.494 262.017 215.648 261.781 215.728C246.893 220.536 232.5 226.762 218.8 234.318C220.158 237.032 221.5 239.754 222.877 242.461C232.018 260.639 241.422 278.698 250.951 296.701C252.511 295.894 254.087 295.125 255.678 294.394C262.161 291.503 268.921 289.279 275.854 287.757C276.668 287.557 277.439 287.382 278.174 287.231C279.82 273.885 281.729 257.673 283.774 239.024C284.101 236.031 286.855 235.01 286.974 238.017C287.644 254.092 287.253 270.194 285.803 286.217C286.024 286.21 286.177 286.207 286.177 286.207C288.69 285.975 291.214 285.872 293.738 285.899C298.626 285.93 303.488 286.602 308.201 287.899L309.116 286.391C312.494 280.859 315.772 275.265 319.396 269.765C319.547 269.538 319.773 269.372 320.034 269.295C320.296 269.218 320.576 269.236 320.825 269.346C320.894 269.365 320.961 269.392 321.025 269.425C321.234 269.564 321.393 269.765 321.48 270C321.568 270.235 321.578 270.492 321.51 270.733C319.618 277.087 317.164 283.259 314.175 289.177C314.052 289.429 313.914 289.677 313.789 289.927C316.651 291.186 319.29 292.898 321.606 294.998C340.212 276.376 354.297 253.732 362.777 228.811C356.477 222.351 348.046 217.466 338.064 214.181C322.775 209.15 303.834 207.904 283.237 210.635C281.727 195.075 279.152 179.637 275.531 164.429C309.131 154.108 356.259 156.78 358.951 165.129C361.236 172.225 351.66 179.659 346.274 183.419Z" fill="url(#paint1_radial_477_93)"/>
<path d="M101.581 279.418C111.833 288.554 122.753 296.912 134.249 304.423C134.576 303.547 134.935 302.654 135.376 301.723C136.191 299.811 137.064 297.939 137.996 296.107C142.055 288.339 146.99 281.062 152.706 274.417C152.881 274.21 153.07 274.01 153.245 273.803C147.524 268.555 141.976 263.109 136.679 257.403C127.382 247.585 118.966 236.97 111.527 225.679C108.646 221.21 105.993 216.611 103.462 211.945C93.6271 223.46 85.1339 236.056 78.1459 249.49C78.1459 249.49 77.5409 250.477 76.7849 251.943C84.0366 261.968 92.3502 271.179 101.581 279.418Z" fill="url(#paint2_radial_477_93)"/>
<path d="M257.058 12.9251C253.185 2.94211 208.082 -3.02189 171.864 4.17311C157.562 6.6963 143.639 11.0277 130.43 17.0631C127.647 18.3338 124.916 19.6694 122.237 21.0701C93.4051 36.0663 69.469 59.0033 53.258 87.1701C37.4246 114.465 29.4026 145.59 30.0694 177.138C30.7363 208.686 40.0663 239.443 57.039 266.045C57.9617 263.512 58.949 261.003 60.001 258.519C61.748 254.419 63.716 250.436 65.801 246.519C59.3169 234.431 54.0536 221.727 50.089 208.595C48.062 201.341 49.779 200.006 52.928 207.776C57.2792 219.217 62.6893 230.227 69.088 240.662C69.661 239.648 70.006 239.016 70.006 239.016C77.8287 225.993 87.2272 213.983 97.989 203.26C98.189 203.06 98.4 202.873 98.602 202.673C96.584 198.473 94.653 194.237 92.902 189.926C92.176 188.167 91.536 186.375 90.862 184.596C86.7357 173.753 83.5274 162.582 81.271 151.201C79.77 143.559 78.7443 135.831 78.2 128.061C78.094 126.534 78.0097 125.006 77.947 123.479C77.829 120.617 77.78 117.755 77.814 114.892C77.8831 100.527 79.1057 86.1912 81.47 72.0221C94.97 56.8791 133.925 19.7711 196.465 13.3061C242.909 8.50611 247.128 16.1531 244.036 22.3721C243.004 23.9712 241.805 25.4568 240.461 26.8041C239.297 27.9461 239.461 28.7291 241.226 28.1541C247.413 26.2251 260.249 21.1541 257.058 12.9251Z" fill="url(#paint3_radial_477_93)"/>
</g>
</g>
<defs>
<radialGradient id="paint0_radial_477_93" cx="0" cy="0" r="1" gradientUnits="userSpaceOnUse" gradientTransform="translate(264.358 328.727) scale(323.266 272.652)">
<stop stop-color="#141D52"/>
<stop offset="0.097" stop-color="#122258"/>
<stop offset="0.233" stop-color="#0F336A"/>
<stop offset="0.391" stop-color="#0A4E88"/>
<stop offset="0.566" stop-color="#0373B1"/>
<stop offset="0.641" stop-color="#0085C6"/>
<stop offset="0.686" stop-color="#0887BB"/>
<stop offset="0.763" stop-color="#1F8DA0"/>
<stop offset="0.862" stop-color="#449874"/>
<stop offset="0.98" stop-color="#77A637"/>
<stop offset="1" stop-color="#81A92C"/>
</radialGradient>
<radialGradient id="paint1_radial_477_93" cx="0" cy="0" r="1" gradientUnits="userSpaceOnUse" gradientTransform="translate(264.438 328.391) scale(295.649 272.57)">
<stop stop-color="#141D52"/>
<stop offset="0.097" stop-color="#122258"/>
<stop offset="0.233" stop-color="#0F336A"/>
<stop offset="0.391" stop-color="#0A4E88"/>
<stop offset="0.566" stop-color="#0373B1"/>
<stop offset="0.641" stop-color="#0085C6"/>
<stop offset="0.686" stop-color="#0887BB"/>
<stop offset="0.763" stop-color="#1F8DA0"/>
<stop offset="0.862" stop-color="#449874"/>
<stop offset="0.98" stop-color="#77A637"/>
<stop offset="1" stop-color="#81A92C"/>
</radialGradient>
<radialGradient id="paint2_radial_477_93" cx="0" cy="0" r="1" gradientUnits="userSpaceOnUse" gradientTransform="translate(265.106 328.467) scale(225.404 272.625)">
<stop stop-color="#141D52"/>
<stop offset="0.097" stop-color="#122258"/>
<stop offset="0.233" stop-color="#0F336A"/>
<stop offset="0.391" stop-color="#0A4E88"/>
<stop offset="0.566" stop-color="#0373B1"/>
<stop offset="0.641" stop-color="#0085C6"/>
<stop offset="0.686" stop-color="#0887BB"/>
<stop offset="0.763" stop-color="#1F8DA0"/>
<stop offset="0.862" stop-color="#449874"/>
<stop offset="0.98" stop-color="#77A637"/>
<stop offset="1" stop-color="#81A92C"/>
</radialGradient>
<radialGradient id="paint3_radial_477_93" cx="0" cy="0" r="1" gradientUnits="userSpaceOnUse" gradientTransform="translate(265.068 328.595) scale(233.899 272.464)">
<stop stop-color="#141D52"/>
<stop offset="0.097" stop-color="#122258"/>
<stop offset="0.233" stop-color="#0F336A"/>
<stop offset="0.391" stop-color="#0A4E88"/>
<stop offset="0.566" stop-color="#0373B1"/>
<stop offset="0.641" stop-color="#0085C6"/>
<stop offset="0.686" stop-color="#0887BB"/>
<stop offset="0.763" stop-color="#1F8DA0"/>
<stop offset="0.862" stop-color="#449874"/>
<stop offset="0.98" stop-color="#77A637"/>
<stop offset="1" stop-color="#81A92C"/>
</radialGradient>
</defs>
</svg>
