<svg xmlns="http://www.w3.org/2000/svg" xmlns:xlink="http://www.w3.org/1999/xlink" width="32" height="32" viewBox="0 0 32 32">
  <defs>
    <clipPath id="clip-path">
      <rect id="사각형_20770" data-name="사각형 20770" width="32" height="32" fill="none"/>
    </clipPath>
  </defs>
  <g id="PDF" transform="translate(-204 11)">
    <g id="그룹_40931" data-name="그룹 40931" transform="translate(204 -11)" clip-path="url(#clip-path)">
      <path id="패스_36452" data-name="패스 36452" d="M80.366,68.93s1.15-2.576-7.151-1.4c0,0-3.251-1.025-5.4-6.526a37.623,37.623,0,0,0,.475-4.526s-.7,2.651-.875,3.126c0,0-1.4-5.151-.2-6.3,0,0,.817.175,1.184,2.725,0,0,.541-2.943-1.259-3.051a1.548,1.548,0,0,0-1.475,1.375,20.844,20.844,0,0,0,1.025,7.176s-6.026,14.178-9.452,14.653c0,0-.325-1.35,4.051-5.051,0,0-6.7,3.751-4.451,5.176,0,0,1.1,1.05,2.826-.45,0,0,1.625-1.225,3.7-5.251a59.934,59.934,0,0,1,9.227-2.2s6.726,3.8,7.777,1.15v-.3s-.55,1.7-5.926-1.075c0,0,5.1-.6,5.926.75m-16.7,1.025A44.061,44.061,0,0,0,67.238,62.8a13.5,13.5,0,0,0,4.3,4.976,58.753,58.753,0,0,0-7.877,2.175" transform="translate(-52.258 -49.109)" fill="#fff"/>
    </g>
  </g>
</svg>
