<svg id="book" xmlns="http://www.w3.org/2000/svg" width="32" height="32" viewBox="0 0 32 32">
  <path id="패스_36453" data-name="패스 36453" d="M0,0H32V32H0Z" fill="none"/>
  <path id="패스_36454" data-name="패스 36454" d="M3,19.691a14.157,14.157,0,0,1,14.157,0,14.157,14.157,0,0,1,14.157,0" transform="translate(-1.157 7.345)" fill="none" stroke="#274694" stroke-linecap="round" stroke-linejoin="round" stroke-width="1.5"/>
  <path id="패스_36455" data-name="패스 36455" d="M3,6.691a14.157,14.157,0,0,1,14.157,0,14.157,14.157,0,0,1,14.157,0" transform="translate(-1.157 -0.104)" fill="none" stroke="#274694" stroke-linecap="round" stroke-linejoin="round" stroke-width="1.5"/>
  <path id="패스_36456" data-name="패스 36456" d="M3,6V26.449" transform="translate(-1.157 0.587)" fill="none" stroke="#274694" stroke-linecap="round" stroke-linejoin="round" stroke-width="1.5"/>
  <path id="패스_36457" data-name="패스 36457" d="M12,6V26.449" transform="translate(4 0.587)" fill="none" stroke="#274694" stroke-linecap="round" stroke-linejoin="round" stroke-width="1.5"/>
  <path id="패스_36458" data-name="패스 36458" d="M21,6V26.449" transform="translate(9.157 0.587)" fill="none" stroke="#274694" stroke-linecap="round" stroke-linejoin="round" stroke-width="1.5"/>
  <path id="패스_36459" data-name="패스 36459" d="M5.5,10.519h6" transform="translate(0.497 0.481)" fill="none" stroke="#274694" stroke-linecap="round" stroke-width="1.5"/>
  <path id="패스_36460" data-name="패스 36460" d="M5.5,10.519h6" transform="translate(0.497 3.481)" fill="none" stroke="#274694" stroke-linecap="round" stroke-width="1.5"/>
</svg>
