<svg width="80" height="80" viewBox="0 0 80 80" fill="none" xmlns="http://www.w3.org/2000/svg">
<path d="M62.616 53.4521C58.737 47.1771 51.647 44.9101 51.347 44.8171C51.0711 44.7186 50.7741 44.6944 50.4858 44.7471C50.1976 44.7997 49.9283 44.9274 49.705 45.1171C49.66 45.1581 45.174 49.0991 40.486 49.0991C37.1 49.0991 33.257 47.1131 31.079 45.1221C30.8506 44.9208 30.5721 44.785 30.2728 44.729C29.9736 44.673 29.6648 44.699 29.379 44.8041C29.084 44.9041 22.11 47.4271 18.251 53.6721C15.569 58.0011 16.021 65.8821 16.041 66.2081C16.0592 66.6645 16.2435 67.0986 16.5594 67.4287C16.8752 67.7587 17.3008 67.9619 17.756 68.0001H51.027V64.5001H19.433C19.452 61.7001 19.783 57.9131 21.152 55.7001C23.2566 52.577 26.1968 50.1084 29.637 48.5761C30.8493 49.5048 32.1479 50.3148 33.515 50.9951C35.5395 52.2836 37.8876 52.9722 40.2873 52.981C42.687 52.9899 45.0401 52.3186 47.074 51.0451C47.8997 50.6375 48.7011 50.1824 49.474 49.6821C50.063 49.3091 50.704 48.8401 51.166 48.4821C54.6374 49.9336 57.6067 52.3716 59.706 55.4941C61.078 57.7151 61.48 61.7031 61.552 64.5041H51.027V68.0041H63.269C63.7327 67.9611 64.1643 67.7486 64.4811 67.4072C64.7979 67.0659 64.9777 66.6197 64.986 66.1541C64.999 65.8201 65.281 57.7681 62.617 53.4541" fill="black"/>
<path d="M50.8601 33.4411V33.4562L50.8604 33.4712C50.8845 34.8674 50.6312 36.2544 50.1151 37.5519C49.5991 38.8494 48.8307 40.0316 47.8543 41.0298C46.878 42.0281 45.7132 42.8226 44.4275 43.3674C43.1446 43.9109 41.7668 44.1949 40.3736 44.203C38.981 44.194 37.604 43.9093 36.322 43.3654C35.0371 42.8203 33.8731 42.0256 32.8975 41.0274C31.9219 40.0292 31.154 38.8474 30.6384 37.5503C30.1229 36.2533 29.8698 34.8668 29.8939 33.4713L29.8941 33.4562V33.4411V25.5121V25.4927L29.8937 25.4733C29.8628 24.0771 30.1111 22.6887 30.624 21.3898C31.137 20.0908 31.9042 18.9074 32.8808 17.909C33.8573 16.9105 35.0234 16.1173 36.3107 15.5757C37.598 15.0341 38.9805 14.7551 40.3771 14.7551C41.7737 14.7551 43.1562 15.0341 44.4435 15.5757C45.7308 16.1173 46.8969 16.9105 47.8735 17.909C48.85 18.9074 49.6173 20.0908 50.1302 21.3898C50.6432 22.6887 50.8915 24.0771 50.8605 25.4733L50.8601 25.4927V25.5121V33.4411Z" stroke="black" stroke-width="3.5"/>
</svg>
