<svg xmlns="http://www.w3.org/2000/svg" width="24" height="24" viewBox="0 0 24 24">
  <g id="Vector_Smart_Object_copy_11" data-name="Vector Smart Object copy 11" transform="translate(-89.1 -297.312)">
    <path id="패스_137" data-name="패스 137" d="M112.143,321.312H90.057a.93.93,0,0,1-.933-.864c-.367-5.676,3.545-7.056,6.4-8.063.4-.141.775-.274,1.128-.412a2.272,2.272,0,0,0,1.414-1.927,8.452,8.452,0,0,1-2.557-5.894c0-5.653,3.04-6.839,5.59-6.839,3.5,0,5.59,2.557,5.59,6.839a8.4,8.4,0,0,1-2.546,5.981,2.261,2.261,0,0,0,1.4,1.84h0c.353.138.729.272,1.128.412,2.857,1.007,6.769,2.387,6.4,8.063A.93.93,0,0,1,112.143,321.312Zm-21.168-1.846h20.25c-.115-3.557-2.58-4.426-5.18-5.343-.415-.146-.807-.284-1.191-.435h0a4.118,4.118,0,0,1-2.592-3.551q-.013-.168-.024-.329a.918.918,0,0,1,.347-.782,6.482,6.482,0,0,0,2.234-4.875c0-1.865-.483-4.993-3.719-4.993-1.6,0-3.719.518-3.719,4.993a6.614,6.614,0,0,0,2.256,4.808.918.918,0,0,1,.33.764q-.013.2-.029.411a4.126,4.126,0,0,1-2.592,3.553c-.384.151-.776.289-1.191.435C93.555,315.039,91.089,315.909,90.975,319.466Z" fill="#1F387D"/>
  </g>
</svg>
