<svg xmlns="http://www.w3.org/2000/svg" xmlns:xlink="http://www.w3.org/1999/xlink" width="70" height="70" viewBox="0 0 70 70">
  <defs>
    <linearGradient id="linear-gradient" x1="0.922" y1="0.741" x2="-0.322" y2="0.142" gradientUnits="objectBoundingBox">
      <stop offset="0" stop-color="#ffbf00"/>
      <stop offset="1" stop-color="#f5f221"/>
    </linearGradient>
    <linearGradient id="linear-gradient-2" x1="0.5" y1="0.7" x2="0.5" y2="-0.836" gradientUnits="objectBoundingBox">
      <stop offset="0" stop-color="#09f"/>
      <stop offset="1" stop-color="#5cd2f5"/>
    </linearGradient>
    <linearGradient id="linear-gradient-3" x1="0.5" y1="0.833" x2="0.5" y2="0.167" xlink:href="#linear-gradient-2"/>
    <linearGradient id="linear-gradient-4" x1="0.5" y1="0.917" x2="0.5" y2="-0.111" gradientUnits="objectBoundingBox">
      <stop offset="0.027" stop-color="#eaad29"/>
      <stop offset="1" stop-color="#f5dc34"/>
    </linearGradient>
  </defs>
  <g id="본사소재지_icon" transform="translate(-931 -1112)">
    <rect id="사각형_24798" data-name="사각형 24798" width="70" height="70" transform="translate(931 1112)" fill="none"/>
    <g id="그룹_51846" data-name="그룹 51846" transform="translate(1.33 0.113)">
      <g id="그룹_24" data-name="그룹 24" transform="translate(944.529 1118.798)">
        <path id="패스_49" data-name="패스 49" d="M161.883,253.717c3.609-5.126,4.747-15.907-1.65-23.38-5.731-6.693-12.038-6.545-13.3-6.44-1.25-.1-7.561-.252-13.289,6.44-6.4,7.473-5.267,18.254-1.653,23.38,3.425,4.86,4.794,8.555,4.929,11.477h20.031C157.09,262.272,158.458,258.576,161.883,253.717Z" transform="translate(-129.064 -223.869)" fill="url(#linear-gradient)"/>
        <path id="패스_50" data-name="패스 50" d="M157.254,229.3a20.541,20.541,0,0,0-.177-2.645,15.789,15.789,0,0,0-9.523-2.757c-1.293-.1-7.821-.252-13.746,6.44a19.91,19.91,0,0,0-4.106,17.992A20.351,20.351,0,0,0,157.254,229.3Z" transform="translate(-129.065 -223.869)" fill="#fff" opacity="0.2"/>
      </g>
      <g id="그룹_38" data-name="그룹 38" transform="translate(952.39 1163.533)">
        <path id="패스_81" data-name="패스 81" d="M138.571,274.435l-.049,3.76a8.188,8.188,0,0,0,8.087,8.289l3.819.049a8.185,8.185,0,0,0,8.291-8.084l.049-4.015Z" transform="translate(-138.521 -274.435)" fill="url(#linear-gradient-2)"/>
      </g>
      <path id="패스_82" data-name="패스 82" d="M160.546,272.377a2.532,2.532,0,0,1-2.532,2.532H138.742a2.532,2.532,0,0,1-2.532-2.532h0a2.533,2.533,0,0,1,2.532-2.532h19.272a2.533,2.533,0,0,1,2.532,2.532Z" transform="translate(814.163 889.627)" fill="url(#linear-gradient-3)"/>
      <g id="그룹_79" data-name="그룹 79" transform="translate(971.851 1123.488)">
        <path id="패스_125" data-name="패스 125" d="M173.425,235.212a6.043,6.043,0,1,1-6.042-6.042A6.042,6.042,0,0,1,173.425,235.212Z" transform="translate(-161.339 -229.17)" opacity="0.5" fill="url(#linear-gradient-4)"/>
        <path id="패스_126" data-name="패스 126" d="M173.425,235.212a6.043,6.043,0,1,1-6.042-6.042A6.042,6.042,0,0,1,173.425,235.212Z" transform="translate(-161.339 -229.17)" fill="none" stroke="#fff" stroke-linecap="round" stroke-linejoin="round" stroke-width="3"/>
      </g>
    </g>
  </g>
</svg>
