<svg xmlns="http://www.w3.org/2000/svg" width="20" height="20" viewBox="0 0 20 20">
  <g id="file_icon" data-name="file icon" transform="translate(-336 -1020)">
    <rect id="사각형_25428" data-name="사각형 25428" width="20" height="20" transform="translate(336 1020)" fill="none"/>
    <path id="패스_6308" data-name="패스 6308" d="M7.105,1.875H5.125a2,2,0,0,0-2,2v12a2,2,0,0,0,2,2h8a2,2,0,0,0,2-2v-6m-8.02-8a2.016,2.016,0,0,1,2.02,2v2a2,2,0,0,0,2,2h2a2,2,0,0,1,2,2m-8.02-8c3.28,0,8.02,4.764,8.02,8m-8.444,4h5.333M6.681,11.208h3.556" transform="translate(336.875 1020.125)" fill="none" stroke="#0042a6" stroke-linecap="round" stroke-linejoin="round" stroke-width="1"/>
  </g>
</svg>
