<svg id="businessplan" xmlns="http://www.w3.org/2000/svg" width="24" height="24" viewBox="0 0 24 24">
  <path id="패스_63359" data-name="패스 63359" d="M0,0H24V24H0Z" fill="none"/>
  <path id="패스_63360" data-name="패스 63360" d="M16.014,6.009,11,6.009c0,1.662,2.245,3.009,5.014,3.009s5.014-1.347,5.014-3.009S18.784,3,16.014,3,11,4.347,11,6.009" transform="translate(-0.038 0.009)" fill="none" stroke="#0042a6" stroke-linecap="round" stroke-linejoin="round" stroke-width="1.7"/>
  <path id="패스_63361" data-name="패스 63361" d="M11,6v4.012c0,1.662,2.245,3.009,5.014,3.009s5.014-1.347,5.014-3.009V6" transform="translate(-0.038 -0.007)" fill="none" stroke="#0042a6" stroke-linecap="round" stroke-linejoin="round" stroke-width="1.7"/>
  <path id="패스_63362" data-name="패스 63362" d="M11,10v4.012c0,1.662,2.245,3.009,5.014,3.009s5.014-1.347,5.014-3.009V10" transform="translate(-0.038 -0.012)" fill="none" stroke="#0042a6" stroke-linecap="round" stroke-linejoin="round" stroke-width="1.7"/>
  <path id="패스_63363" data-name="패스 63363" d="M11,14v4.012c0,1.662,2.245,3.009,5.014,3.009s5.014-1.347,5.014-3.009V14" transform="translate(-0.038 -0.029)" fill="none" stroke="#0042a6" stroke-linecap="round" stroke-linejoin="round" stroke-width="1.7"/>
  <path id="패스_63364" data-name="패스 63364" d="M7.012,9H4.5a1.5,1.5,0,0,0,0,3.009h1a1.5,1.5,0,0,1,0,3.009H3" transform="translate(0.009 -0.009)" fill="none" stroke="#0042a6" stroke-linecap="round" stroke-linejoin="round" stroke-width="1.7"/>
  <path id="패스_63365" data-name="패스 63365" d="M5,15.02v1M5,8V9" transform="translate(0 -0.012)" fill="none" stroke="#0042a6" stroke-linecap="round" stroke-linejoin="round" stroke-width="1.7"/>
</svg>
