<svg id="key" xmlns="http://www.w3.org/2000/svg" width="48" height="48" viewBox="0 0 48 48">
  <path id="패스_64975" data-name="패스 64975" d="M0,0H48V48H0Z" fill="none"/>
  <path id="패스_64976" data-name="패스 64976" d="M30.056,4.682l7.19,7.19a5.743,5.743,0,0,1,0,8.122L31.97,25.269a5.743,5.743,0,0,1-8.122,0l-.6-.6-13.09,13.09a3.992,3.992,0,0,1-2.473,1.154l-.349.016H5a2,2,0,0,1-1.982-1.762L3,36.932V34.593a3.992,3.992,0,0,1,.932-2.563l.238-.259L5,30.944H8.988V26.952H12.98V22.96L17.26,18.68l-.6-.6a5.743,5.743,0,0,1,0-8.122l5.275-5.275a5.743,5.743,0,0,1,8.122,0Z" transform="translate(3.036 3.036)" fill="none" stroke="#274694" stroke-linecap="round" stroke-linejoin="round" stroke-width="3"/>
  <path id="패스_64977" data-name="패스 64977" d="M15,9h.02" transform="translate(15 9)" fill="none" stroke="#274694" stroke-linecap="round" stroke-linejoin="round" stroke-width="3"/>
</svg>
