<svg xmlns="http://www.w3.org/2000/svg" xmlns:xlink="http://www.w3.org/1999/xlink" width="21" height="20" viewBox="0 0 21 20">
  <defs>
    <clipPath id="clip-path">
      <rect id="사각형_24795" data-name="사각형 24795" width="21" height="20" fill="#fff" stroke="#707070" stroke-width="1"/>
    </clipPath>
  </defs>
  <g id="마스크_그룹_40960" data-name="마스크 그룹 40960" clip-path="url(#clip-path)">
    <path id="패스_62228" data-name="패스 62228" d="M18.443,6.994,9.749.747l-8.7,6.247a.88.88,0,0,0-.3.609v9.539a.767.767,0,0,0,.782.745H6.745v-4a2.931,2.931,0,0,1,3-2.857,2.931,2.931,0,0,1,3,2.857v4h5.217a.768.768,0,0,0,.783-.745V7.6a.883.883,0,0,0-.3-.609Z" transform="translate(0.755 0.682)" fill="none" stroke="#666" stroke-linecap="round" stroke-linejoin="round" stroke-width="1.5"/>
  </g>
</svg>
