<svg xmlns="http://www.w3.org/2000/svg" width="21" height="21" viewBox="0 0 21 21">
  <g id="sns_icon_01" data-name="sns_icon 01" transform="translate(-12.309 -385.652)">
    <rect id="사각형_24823" data-name="사각형 24823" width="21" height="21" transform="translate(12.309 385.652)" fill="none"/>
    <g id="그룹_18" data-name="그룹 18" transform="translate(14.309 390.652)">
      <path id="패스_90" data-name="패스 90" d="M30.953,392.527a2.138,2.138,0,0,0-1.5-1.516,50.374,50.374,0,0,0-6.642-.358,50.373,50.373,0,0,0-6.642.358,2.138,2.138,0,0,0-1.5,1.516,24.139,24.139,0,0,0,0,8.252,2.138,2.138,0,0,0,1.5,1.516,50.4,50.4,0,0,0,6.642.358,50.4,50.4,0,0,0,6.642-.358,2.138,2.138,0,0,0,1.5-1.516,24.146,24.146,0,0,0,0-8.252Z" transform="translate(-14.308 -390.653)" fill="#fff"/>
      <path id="패스_91" data-name="패스 91" d="M57.661,418.2,62.3,415.55,57.661,412.9Z" transform="translate(-51.006 -409.55)" fill="#d2272c"/>
    </g>
  </g>
</svg>
